<svg xmlns:inkscape="http://www.inkscape.org/namespaces/inkscape" xmlns:sodipodi="http://sodipodi.sourceforge.net/DTD/sodipodi-0.dtd" xmlns="http://www.w3.org/2000/svg" xmlns:svg="http://www.w3.org/2000/svg" version="1.1" id="svg2" width="3796.2134" height="6318.2402" viewBox="0 0 5500 6300" sodipodi:docname="iStock-1191910106.eps">
  <defs id="defs6"/>
  <sodipodi:namedview id="namedview4" pagecolor="#ffffff" bordercolor="#000000" borderopacity="0.25" inkscape:showpageshadow="2" inkscape:pageopacity="0.0" inkscape:pagecheckerboard="0" inkscape:deskcolor="#d1d1d1"/>
  <g id="g8" inkscape:groupmode="layer" inkscape:label="ink_ext_XXXXXX" transform="matrix(1.3333333,0,0,-1.3333333,0,6318.24)">
    <g id="g10" transform="scale(0.1)">      
      <path d="m 5387.99,13412.3 v -513.4 h 359.42 c 84.42,0 144.61,-16.4 180.56,-48.8 35.93,-32.5 53.91,-75.1 53.91,-127.5 0,-51.3 -17.98,-93.3 -53.91,-125.8 -35.95,-32.6 -96.14,-48.8 -180.56,-48.8 h -765.03 c -84.46,0 -144.61,16.2 -180.56,48.8 -35.92,32.5 -53.9,75 -53.9,127.5 0,51.3 18.24,93.3 54.75,125.8 36.52,32.4 96.41,48.8 179.71,48.8 h 54.75 v 1372.6 h -54.75 c -84.46,0 -144.61,16.2 -180.56,48.7 -35.92,32.6 -53.9,75 -53.9,127.6 0,52.4 17.98,94.8 53.9,127.4 35.95,32.5 96.1,48.7 180.56,48.7 l 1651.55,-1.6 v -535.7 c 0,-83.2 -16.26,-142.9 -48.76,-178.8 -32.53,-35.9 -75.04,-53.9 -127.52,-53.9 -51.33,0 -93.28,17.7 -125.77,53 -32.54,35.4 -48.8,95.3 -48.8,179.7 v 184.9 h -895.09 v -508.3 h 308.09 c 0,91.3 8.52,149.9 25.65,176.3 35.36,55.8 85.57,83.8 150.6,83.8 51.37,0 93.28,-18 125.81,-53.9 32.49,-36 48.76,-96.2 48.76,-180.6 v -403.9 c 0,-84.4 -16.27,-144.6 -48.76,-180.5 -32.53,-36 -75.04,-54 -127.52,-54 -63.92,0 -113.53,28 -148.89,83.9 -17.13,26.3 -25.65,85.5 -25.65,178 h -308.09" style="fill:#ffffff;fill-opacity:1;fill-rule:nonzero;stroke:none" id="path752"/>
      <path d="m 8417.99,13287.4 v -388.5 h 126.63 c 84.42,0 144.61,-16.4 180.57,-48.8 35.96,-32.5 53.9,-75.1 53.9,-127.5 0,-51.3 -17.94,-93.3 -53.9,-125.8 -35.96,-32.6 -96.15,-48.8 -180.57,-48.8 h -532.24 c -84.46,0 -144.64,16.2 -180.56,48.8 -35.96,32.5 -53.94,75 -53.94,127.5 0,51.3 18.24,93.3 54.8,125.8 36.47,32.4 96.4,48.8 179.7,48.8 h 54.76 v 1372.6 h -54.76 c -84.46,0 -144.64,16.2 -180.56,48.7 -35.96,32.6 -53.94,75 -53.94,127.6 0,52.4 17.98,94.8 53.94,127.4 35.92,32.5 96.1,48.7 180.56,48.7 l 532.24,-1.6 c 84.42,0 144.61,-15.9 180.57,-48 35.96,-31.8 53.9,-74.1 53.9,-126.5 0,-52.6 -17.94,-95 -53.9,-127.6 -35.96,-32.5 -96.15,-48.7 -180.57,-48.7 h -126.63 v -520.4 l 622.96,535.7 c -36.52,26.2 -61.61,50.8 -75.31,73.6 -13.69,22.8 -20.54,50.8 -20.54,84 0,53.6 17.98,96.9 53.93,129.9 35.92,33.1 96.11,49.6 180.57,49.6 l 357.67,-1.6 c 84.42,0 144.61,-15.9 180.56,-48 35.96,-31.8 53.9,-74.1 53.9,-126.5 0,-51.4 -17.94,-93.7 -53.9,-126.7 -35.95,-33.1 -92.16,-49.6 -168.58,-49.6 l -629.8,-551.2 c 117.47,-67.3 227.87,-170 331.17,-308 103.25,-138 194.78,-309.3 274.66,-513.4 h 94.13 c 83.27,0 142.94,-16.4 178.86,-48.8 35.96,-32.5 53.9,-75.1 53.9,-127.5 0,-51.3 -17.68,-93.3 -53.04,-125.8 -35.37,-32.6 -95.29,-48.8 -179.72,-48.8 h -318.32 c -73.03,174.6 -152.91,341.1 -239.6,499.8 -70.76,128.9 -137.76,222.7 -201.11,281.5 -63.31,58.7 -138.92,105.8 -226.76,141.2 l -215.63,-183.1" style="fill:#ffffff;fill-opacity:1;fill-rule:nonzero;stroke:none" id="path754"/>
      
      <path d="M 17440.6,76.5039 H 28395.4 L 28395,47310.6 H 17440.6 V 76.5039 M 28433.4,38.0977 V 76.5039 38.0977 M 17364.3,0 V 47386.8 H 28471.6 V 38.0977 0 H 17364.3" style="fill:#503d3f;fill-opacity:1;fill-rule:nonzero;stroke:none" id="path758"/>
      <path d="m 18194.4,37328.3 v 49 h 9452.9 v -49 h -9452.9" style="fill:#100f0d;fill-opacity:1;fill-rule:nonzero;stroke:none" id="path760"/>
      
      
      <path d="m 18194.4,36537.9 v 49.1 h 9452.9 v -49.1 h -9452.9" style="fill:#100f0d;fill-opacity:1;fill-rule:nonzero;stroke:none" id="path766"/>
      <path d="m 18194.4,36343.4 v 49 h 9452.9 v -49 h -9452.9" style="fill:#100f0d;fill-opacity:1;fill-rule:nonzero;stroke:none" id="path768"/>
      <path d="m 18194.4,35654.5 v 49 h 9452.9 v -49 h -9452.9" style="fill:#100f0d;fill-opacity:1;fill-rule:nonzero;stroke:none" id="path770"/>
      <path d="m 18194.4,35460.5 v 49.1 h 9452.9 v -49.1 h -9452.9" style="fill:#100f0d;fill-opacity:1;fill-rule:nonzero;stroke:none" id="path772"/>
      <path d="m 18194.4,35356.4 v 49.2 h 9452.9 v -49.2 h -9452.9" style="fill:#100f0d;fill-opacity:1;fill-rule:nonzero;stroke:none" id="path774"/>
      <path d="m 18194.4,35057.9 v 49 h 9452.9 v -49 h -9452.9" style="fill:#100f0d;fill-opacity:1;fill-rule:nonzero;stroke:none" id="path776"/>
      <path d="m 18194.4,34864.6 v 49 h 9452.9 v -49 h -9452.9" style="fill:#100f0d;fill-opacity:1;fill-rule:nonzero;stroke:none" id="path778"/>
      <path d="m 18194.4,34765.2 v 49 h 9452.9 v -49 h -9452.9" style="fill:#100f0d;fill-opacity:1;fill-rule:nonzero;stroke:none" id="path780"/>
      <path d="m 18194.4,34465.9 v 49 h 9452.9 v -49 h -9452.9" style="fill:#100f0d;fill-opacity:1;fill-rule:nonzero;stroke:none" id="path782"/>
      <path d="m 18194.4,34076.9 v 49 h 9452.9 v -49 h -9452.9" style="fill:#100f0d;fill-opacity:1;fill-rule:nonzero;stroke:none" id="path784"/>
      <path d="m 18194.4,33974.1 v 49 h 9452.9 v -49 h -9452.9" style="fill:#100f0d;fill-opacity:1;fill-rule:nonzero;stroke:none" id="path786"/>
      <path d="m 18194.4,33782.8 v 138.8 h 9452.9 v -138.8 h -9452.9" style="fill:#100f0d;fill-opacity:1;fill-rule:nonzero;stroke:none" id="path788"/>
      <path d="m 18194.4,33389.9 v 138.8 h 9452.9 v -138.8 h -9452.9" style="fill:#100f0d;fill-opacity:1;fill-rule:nonzero;stroke:none" id="path790"/>
      <path d="m 18194.4,33192.8 v 50.3 h 9452.9 v -50.3 h -9452.9" style="fill:#100f0d;fill-opacity:1;fill-rule:nonzero;stroke:none" id="path792"/>
      <path d="m 18194.4,33090 v 50.4 h 9452.9 v -50.4 h -9452.9" style="fill:#100f0d;fill-opacity:1;fill-rule:nonzero;stroke:none" id="path794"/>
      <path d="m 18194.4,32985.2 v 50.3 h 9452.9 v -50.3 h -9452.9" style="fill:#100f0d;fill-opacity:1;fill-rule:nonzero;stroke:none" id="path796"/>
      <path d="m 18194.4,32687.4 v 50.4 h 9452.9 v -50.4 h -9452.9" style="fill:#100f0d;fill-opacity:1;fill-rule:nonzero;stroke:none" id="path798"/>
      <path d="m 18194.4,32299.7 v 50.4 h 9452.9 v -50.4 h -9452.9" style="fill:#100f0d;fill-opacity:1;fill-rule:nonzero;stroke:none" id="path800"/>
      <path d="m 18194.4,32196.3 v 50.4 h 9452.9 v -50.4 h -9452.9" style="fill:#100f0d;fill-opacity:1;fill-rule:nonzero;stroke:none" id="path802"/>
      <path d="m 18194.4,32092.9 v 50.4 h 9452.9 v -50.4 h -9452.9" style="fill:#100f0d;fill-opacity:1;fill-rule:nonzero;stroke:none" id="path804"/>
      <path d="m 18194.4,31900.4 v 140.7 h 9452.9 v -140.7 h -9452.9" style="fill:#100f0d;fill-opacity:1;fill-rule:nonzero;stroke:none" id="path806"/>
      <path d="m 18194.4,31614.1 v 140.8 h 9452.9 v -140.8 h -9452.9" style="fill:#100f0d;fill-opacity:1;fill-rule:nonzero;stroke:none" id="path808"/>
      <path d="m 18194.4,31506.2 v 51 h 9452.9 v -51 h -9452.9" style="fill:#100f0d;fill-opacity:1;fill-rule:nonzero;stroke:none" id="path810"/>
      <path d="m 18194.4,31402.1 v 50.9 h 9452.9 l -0.3,-50.9 h -9452.6" style="fill:#100f0d;fill-opacity:1;fill-rule:nonzero;stroke:none" id="path812"/>
      <path d="m 18194.4,31197.8 v 50.9 H 27647 v -50.9 h -9452.6" style="fill:#100f0d;fill-opacity:1;fill-rule:nonzero;stroke:none" id="path814"/>
      <path d="m 18194.4,31003.2 v 51.1 H 27647 v -51.1 h -9452.6" style="fill:#100f0d;fill-opacity:1;fill-rule:nonzero;stroke:none" id="path816"/>
      <path d="m 18194.4,30505 v 51.1 H 27647 v -51.1 h -9452.6" style="fill:#100f0d;fill-opacity:1;fill-rule:nonzero;stroke:none" id="path818"/>
      <path d="m 18194.4,30308.6 v 51.1 H 27647 v -51.1 h -9452.6" style="fill:#100f0d;fill-opacity:1;fill-rule:nonzero;stroke:none" id="path820"/>
      <path d="m 18194.4,29818.8 v 51.1 H 27647 v -51.1 h -9452.6" style="fill:#100f0d;fill-opacity:1;fill-rule:nonzero;stroke:none" id="path822"/>
      <path d="m 18194.4,30807 v 141.4 H 27647 V 30807 h -9452.6" style="fill:#100f0d;fill-opacity:1;fill-rule:nonzero;stroke:none" id="path824"/>
      <path d="m 18194.4,30611.8 v 141.4 H 27647 v -141.4 h -9452.6" style="fill:#100f0d;fill-opacity:1;fill-rule:nonzero;stroke:none" id="path826"/>
      <path d="m 18194.4,30116.1 v 141.3 H 27647 v -141.3 h -9452.6" style="fill:#100f0d;fill-opacity:1;fill-rule:nonzero;stroke:none" id="path828"/>
      <path d="m 18194.4,29921.7 v 141.4 H 27647 v -141.4 h -9452.6" style="fill:#100f0d;fill-opacity:1;fill-rule:nonzero;stroke:none" id="path830"/>
      <path d="m 18194.4,32794.6 v 140.3 h 9452.9 v -140.3 h -9452.9" style="fill:#100f0d;fill-opacity:1;fill-rule:nonzero;stroke:none" id="path832"/>
      <path d="m 18194.4,32402.5 v 140.1 h 9452.9 v -140.1 h -9452.9" style="fill:#100f0d;fill-opacity:1;fill-rule:nonzero;stroke:none" id="path834"/>
      <path d="m 18194.4,34271.3 v 142.8 h 9452.9 v -142.8 h -9452.9" style="fill:#100f0d;fill-opacity:1;fill-rule:nonzero;stroke:none" id="path836"/>
      <path d="m 18194.4,34570 v 139.3 h 9452.9 V 34570 h -9452.9" style="fill:#100f0d;fill-opacity:1;fill-rule:nonzero;stroke:none" id="path838"/>
      <path d="m 18194.4,35160 v 144 h 9452.9 v -144 h -9452.9" style="fill:#100f0d;fill-opacity:1;fill-rule:nonzero;stroke:none" id="path840"/>
      <path d="m 18194.4,36150.1 v 140.8 h 9452.9 v -140.8 h -9452.9" style="fill:#100f0d;fill-opacity:1;fill-rule:nonzero;stroke:none" id="path842"/>
      <path d="m 18194.4,36015.4 v 79.1 h 9452.9 v -79.1 h -9452.9" style="fill:#100f0d;fill-opacity:1;fill-rule:nonzero;stroke:none" id="path844"/>
      <path d="m 18194.4,36661.3 v 120.7 h 9452.9 v -120.7 h -9452.9" style="fill:#100f0d;fill-opacity:1;fill-rule:nonzero;stroke:none" id="path846"/>
      <path d="m 18194.4,36940 v 141.3 h 9452.9 V 36940 h -9452.9" style="fill:#100f0d;fill-opacity:1;fill-rule:nonzero;stroke:none" id="path848"/>
      <path d="m 27586.1,46667.4 h 61.2 v -8617 h -61.2 v 8617" style="fill:#100f0d;fill-opacity:1;fill-rule:nonzero;stroke:none" id="path850"/>
      <path d="m 27342.8,46667.4 h 61.3 v -8617 h -61.3 v 8617" style="fill:#100f0d;fill-opacity:1;fill-rule:nonzero;stroke:none" id="path852"/>
      <path d="m 26971,46667.4 h 61.3 v -8617 h -61.3 v 8617" style="fill:#100f0d;fill-opacity:1;fill-rule:nonzero;stroke:none" id="path854"/>
      <path d="m 26597.5,46667.4 h 61.4 v -8617 h -61.4 v 8617" style="fill:#100f0d;fill-opacity:1;fill-rule:nonzero;stroke:none" id="path856"/>
      <path d="m 26354.2,46667.4 h 61.4 v -8617 h -61.4 v 8617" style="fill:#100f0d;fill-opacity:1;fill-rule:nonzero;stroke:none" id="path858"/>
      <path d="m 25492.7,46667.4 h 61.2 v -8617 h -61.2 v 8617" style="fill:#100f0d;fill-opacity:1;fill-rule:nonzero;stroke:none" id="path860"/>
      <path d="m 25250.1,46667.4 h 61.5 v -8617 h -61.5 v 8617" style="fill:#100f0d;fill-opacity:1;fill-rule:nonzero;stroke:none" id="path862"/>
      <path d="m 25119.9,46667.4 h 61.4 v -8617 h -61.4 v 8617" style="fill:#100f0d;fill-opacity:1;fill-rule:nonzero;stroke:none" id="path864"/>
      <path d="m 24746.6,46667.4 h 61.3 v -8617 h -61.3 v 8617" style="fill:#100f0d;fill-opacity:1;fill-rule:nonzero;stroke:none" id="path866"/>
      <path d="m 24504.9,46667.4 h 61.2 v -8617 h -61.2 v 8617" style="fill:#100f0d;fill-opacity:1;fill-rule:nonzero;stroke:none" id="path868"/>
      <path d="m 24380.5,46667.4 h 61.2 v -8617 h -61.2 v 8617" style="fill:#100f0d;fill-opacity:1;fill-rule:nonzero;stroke:none" id="path870"/>
      <path d="m 24006.2,46667.4 h 61.3 v -8617 h -61.3 v 8617" style="fill:#100f0d;fill-opacity:1;fill-rule:nonzero;stroke:none" id="path872"/>
      <path d="m 23519.7,46667.4 h 61.2 v -8617 h -61.2 v 8617" style="fill:#100f0d;fill-opacity:1;fill-rule:nonzero;stroke:none" id="path874"/>
      <path d="m 23391.2,46667.4 h 61.3 v -8617 h -61.3 v 8617" style="fill:#100f0d;fill-opacity:1;fill-rule:nonzero;stroke:none" id="path876"/>
      <path d="m 23151.9,46667.4 h 173.6 v -8617 h -173.6 v 8617" style="fill:#100f0d;fill-opacity:1;fill-rule:nonzero;stroke:none" id="path878"/>
      <path d="m 22907.1,46667.4 h 173.5 v -8617 h -173.5 v 8617" style="fill:#100f0d;fill-opacity:1;fill-rule:nonzero;stroke:none" id="path880"/>
      <path d="m 22660.5,46667.4 h 173.5 v -8617 h -173.5 v 8617" style="fill:#100f0d;fill-opacity:1;fill-rule:nonzero;stroke:none" id="path882"/>
      <path d="m 22414,46667.4 h 62.9 v -8617 h -62.9 v 8617" style="fill:#100f0d;fill-opacity:1;fill-rule:nonzero;stroke:none" id="path884"/>
      <path d="m 22285.5,46667.4 h 63 v -8617 h -63 v 8617" style="fill:#100f0d;fill-opacity:1;fill-rule:nonzero;stroke:none" id="path886"/>
      <path d="m 22154.4,46667.4 h 62.9 v -8617 h -62.9 v 8617" style="fill:#100f0d;fill-opacity:1;fill-rule:nonzero;stroke:none" id="path888"/>
      <path d="m 21782,46667.4 h 63 v -8617 h -63 v 8617" style="fill:#100f0d;fill-opacity:1;fill-rule:nonzero;stroke:none" id="path890"/>
      <path d="m 21297.1,46667.4 h 62.9 v -8617 h -62.9 v 8617" style="fill:#100f0d;fill-opacity:1;fill-rule:nonzero;stroke:none" id="path892"/>
      <path d="m 21167.7,46667.4 h 63.1 v -8617 h -63.1 v 8617" style="fill:#100f0d;fill-opacity:1;fill-rule:nonzero;stroke:none" id="path894"/>
      <path d="m 21038.4,46667.4 h 63 v -8617 h -63 v 8617" style="fill:#100f0d;fill-opacity:1;fill-rule:nonzero;stroke:none" id="path896"/>
      <path d="m 20797.7,46667.4 h 176 v -8617 h -176 v 8617" style="fill:#100f0d;fill-opacity:1;fill-rule:nonzero;stroke:none" id="path898"/>
      <path d="m 20439.6,46667.4 h 176.1 v -8617 h -176.1 v 8617" style="fill:#100f0d;fill-opacity:1;fill-rule:nonzero;stroke:none" id="path900"/>
      <path d="m 20304.7,46667.4 h 63.8 v -8617 h -63.8 v 8617" style="fill:#100f0d;fill-opacity:1;fill-rule:nonzero;stroke:none" id="path902"/>
      <path d="m 20174.5,46667.4 h 63.7 v -8617 l -63.7,0.3 v 8616.7" style="fill:#100f0d;fill-opacity:1;fill-rule:nonzero;stroke:none" id="path904"/>
      <path d="m 19919.1,46667.4 h 63.6 v -8616.7 h -63.6 v 8616.7" style="fill:#100f0d;fill-opacity:1;fill-rule:nonzero;stroke:none" id="path906"/>
      <path d="m 19675.7,46667.4 h 63.8 v -8616.7 h -63.8 v 8616.7" style="fill:#100f0d;fill-opacity:1;fill-rule:nonzero;stroke:none" id="path908"/>
      <path d="m 19052.6,46667.4 h 63.9 v -8616.7 h -63.9 v 8616.7" style="fill:#100f0d;fill-opacity:1;fill-rule:nonzero;stroke:none" id="path910"/>
      <path d="m 18807,46667.4 h 63.9 v -8616.7 h -63.9 v 8616.7" style="fill:#100f0d;fill-opacity:1;fill-rule:nonzero;stroke:none" id="path912"/>
      <path d="m 18194.4,46667.4 h 63.8 v -8616.7 h -63.8 v 8616.7" style="fill:#100f0d;fill-opacity:1;fill-rule:nonzero;stroke:none" id="path914"/>
      <path d="m 19430.3,46667.4 h 176.9 v -8616.7 h -176.9 v 8616.7" style="fill:#100f0d;fill-opacity:1;fill-rule:nonzero;stroke:none" id="path916"/>
      <path d="m 19186.1,46667.4 h 176.9 v -8616.7 h -176.9 v 8616.7" style="fill:#100f0d;fill-opacity:1;fill-rule:nonzero;stroke:none" id="path918"/>
      <path d="m 18566.3,46667.4 h 176.6 v -8616.7 h -176.6 v 8616.7" style="fill:#100f0d;fill-opacity:1;fill-rule:nonzero;stroke:none" id="path920"/>
      <path d="m 18323.1,46667.4 h 176.9 v -8616.7 h -176.9 v 8616.7" style="fill:#100f0d;fill-opacity:1;fill-rule:nonzero;stroke:none" id="path922"/>
      <path d="m 21916.1,46667.4 h 175.4 v -8617 h -175.4 v 8617" style="fill:#100f0d;fill-opacity:1;fill-rule:nonzero;stroke:none" id="path924"/>
      <path d="m 21425.5,46667.4 h 175.3 v -8617 h -175.3 v 8617" style="fill:#100f0d;fill-opacity:1;fill-rule:nonzero;stroke:none" id="path926"/>
      <path d="m 23762.8,46667.4 h 178.7 v -8617 h -178.7 v 8617" style="fill:#100f0d;fill-opacity:1;fill-rule:nonzero;stroke:none" id="path928"/>
      <path d="m 24136.4,46667.4 h 174.3 v -8617 h -174.3 v 8617" style="fill:#100f0d;fill-opacity:1;fill-rule:nonzero;stroke:none" id="path930"/>
      <path d="m 24874.3,46667.4 h 180.1 v -8617 h -180.1 v 8617" style="fill:#100f0d;fill-opacity:1;fill-rule:nonzero;stroke:none" id="path932"/>
      <path d="m 26112.6,46667.4 h 176 v -8617 h -176 v 8617" style="fill:#100f0d;fill-opacity:1;fill-rule:nonzero;stroke:none" id="path934"/>
      <path d="m 25867,46667.4 h 175.9 v -8617 H 25867 v 8617" style="fill:#100f0d;fill-opacity:1;fill-rule:nonzero;stroke:none" id="path936"/>
      <path d="m 25622.9,46667.4 h 176 v -8617 h -176 v 8617" style="fill:#100f0d;fill-opacity:1;fill-rule:nonzero;stroke:none" id="path938"/>
      <path d="m 26726.1,46667.4 h 176.8 v -8617 h -176.8 v 8617" style="fill:#100f0d;fill-opacity:1;fill-rule:nonzero;stroke:none" id="path940"/>
      <path d="m 27100.4,46667.4 h 176.8 v -8617 h -176.8 v 8617" style="fill:#100f0d;fill-opacity:1;fill-rule:nonzero;stroke:none" id="path942"/>
      <path d="m 17440.6,13576.2 h 1072.5 v 15319 h -1072.5 z" style="fill:#79cb34;fill-opacity:1;fill-rule:nonzero;stroke:none" id="path944"/>
      <path d="m 17402.5,13576.2 h 38.102 v 15319 h -38.102 z" style="fill:#2a3319;fill-opacity:1;fill-rule:nonzero;stroke:none" id="path946"/>
      <path d="m 28395.3,13576.2 h -1072.5 v 15319 h 1072.3 l 0.2,-15319" style="fill:#79cb34;fill-opacity:1;fill-rule:nonzero;stroke:none" id="path948"/>
      <path d="m 28433.4,13576.2 h -38.1 l -0.2,15319 h 38.3 v -15319" style="fill:#2a3319;fill-opacity:1;fill-rule:nonzero;stroke:none" id="path950"/>
      <path d="M 27322.8,17656.9 H 26513 v 2308 h 809.8 v -2308" style="fill:#100f0d;fill-opacity:1;fill-rule:nonzero;stroke:none" id="path952"/>
      
      
      
      
      
      
      
      
      
      
      
      
      
      
      
      
      
      
      <path d="m 21811.7,25241.4 h -2592.3 v 1409.5 h 2592.3 v -1409.5" style="fill:#100f0d;fill-opacity:1;fill-rule:nonzero;stroke:none" id="path990"/>
      
      
      
      
      
      
      
      
      
      
      
      
      
      
      
      <path d="m 19247.8,10018.6 h -28.4 V 11153 h 28.4 v -1134.4" style="fill:#100f0d;fill-opacity:1;fill-rule:nonzero;stroke:none" id="path1022"/>
      <path d="m 19315.1,10018.6 h -28.3 V 11153 h 28.3 v -1134.4" style="fill:#100f0d;fill-opacity:1;fill-rule:nonzero;stroke:none" id="path1024"/>
      <path d="M 19379.2,10018.6 H 19351 V 11153 h 28.2 v -1134.4" style="fill:#100f0d;fill-opacity:1;fill-rule:nonzero;stroke:none" id="path1026"/>
      <path d="m 19713.9,10018.6 h -33.1 V 11153 h 33.1 v -1134.4" style="fill:#100f0d;fill-opacity:1;fill-rule:nonzero;stroke:none" id="path1028"/>
      <path d="m 19915.4,10018.6 h -33.2 V 11153 h 33.2 v -1134.4" style="fill:#100f0d;fill-opacity:1;fill-rule:nonzero;stroke:none" id="path1030"/>
      <path d="m 19982.6,10018.6 h -33.1 V 11153 h 33.1 v -1134.4" style="fill:#100f0d;fill-opacity:1;fill-rule:nonzero;stroke:none" id="path1032"/>
      <path d="m 20114.1,10018.6 h -33.2 V 11153 h 33.2 v -1134.4" style="fill:#100f0d;fill-opacity:1;fill-rule:nonzero;stroke:none" id="path1034"/>
      <path d="m 20315,10018.6 h -33.1 V 11153 h 33.1 v -1134.4" style="fill:#100f0d;fill-opacity:1;fill-rule:nonzero;stroke:none" id="path1036"/>
      <path d="m 20516.9,10018.6 h -33.2 V 11153 h 33.2 v -1134.4" style="fill:#100f0d;fill-opacity:1;fill-rule:nonzero;stroke:none" id="path1038"/>
      <path d="m 20648.3,10018.6 h -33.2 V 11153 h 33.2 v -1134.4" style="fill:#100f0d;fill-opacity:1;fill-rule:nonzero;stroke:none" id="path1040"/>
      <path d="m 21114.1,10018.6 h -33.2 V 11153 h 33.2 v -1134.4" style="fill:#100f0d;fill-opacity:1;fill-rule:nonzero;stroke:none" id="path1042"/>
      <path d="m 21245.1,10018.6 h -33.2 V 11153 h 33.2 v -1134.4" style="fill:#100f0d;fill-opacity:1;fill-rule:nonzero;stroke:none" id="path1044"/>
      <path d="m 21315.4,10018.6 h -33.1 V 11153 h 33.1 v -1134.4" style="fill:#100f0d;fill-opacity:1;fill-rule:nonzero;stroke:none" id="path1046"/>
      <path d="m 21517.3,10018.6 h -33.2 V 11153 h 33.2 v -1134.4" style="fill:#100f0d;fill-opacity:1;fill-rule:nonzero;stroke:none" id="path1048"/>
      <path d="m 21647.8,10018.6 h -33.1 V 11153 h 33.1 v -1134.4" style="fill:#100f0d;fill-opacity:1;fill-rule:nonzero;stroke:none" id="path1050"/>
      <path d="m 21715.1,10018.6 h -33.2 V 11153 h 33.2 v -1134.4" style="fill:#100f0d;fill-opacity:1;fill-rule:nonzero;stroke:none" id="path1052"/>
      <path d="m 21917.4,10018.6 h -33.1 V 11153 h 33.1 v -1134.4" style="fill:#100f0d;fill-opacity:1;fill-rule:nonzero;stroke:none" id="path1054"/>
      <path d="m 22180.4,10018.6 h -33.2 V 11153 h 33.2 v -1134.4" style="fill:#100f0d;fill-opacity:1;fill-rule:nonzero;stroke:none" id="path1056"/>
      <path d="m 22249.8,10018.6 h -33.1 V 11153 h 33.1 v -1134.4" style="fill:#100f0d;fill-opacity:1;fill-rule:nonzero;stroke:none" id="path1058"/>
      <path d="m 22379.2,10018.6 h -94 V 11153 h 94 v -1134.4" style="fill:#100f0d;fill-opacity:1;fill-rule:nonzero;stroke:none" id="path1060"/>
      <path d="m 22511.5,10018.6 h -93.8 V 11153 h 93.8 v -1134.4" style="fill:#100f0d;fill-opacity:1;fill-rule:nonzero;stroke:none" id="path1062"/>
      <path d="m 22644.7,10018.6 h -93.9 V 11153 h 93.9 v -1134.4" style="fill:#100f0d;fill-opacity:1;fill-rule:nonzero;stroke:none" id="path1064"/>
      <path d="M 22777.9,10018.6 H 22744 V 11153 h 33.9 v -1134.4" style="fill:#100f0d;fill-opacity:1;fill-rule:nonzero;stroke:none" id="path1066"/>
      <path d="m 22847.4,10018.6 h -34.1 V 11153 h 34.1 v -1134.4" style="fill:#100f0d;fill-opacity:1;fill-rule:nonzero;stroke:none" id="path1068"/>
      <path d="m 22918.2,10018.6 h -34 V 11153 h 34 v -1134.4" style="fill:#100f0d;fill-opacity:1;fill-rule:nonzero;stroke:none" id="path1070"/>
      <path d="m 23119.5,10018.6 h -34 V 11153 h 34 v -1134.4" style="fill:#100f0d;fill-opacity:1;fill-rule:nonzero;stroke:none" id="path1072"/>
      <path d="m 23381.5,10018.6 h -33.9 V 11153 h 33.9 v -1134.4" style="fill:#100f0d;fill-opacity:1;fill-rule:nonzero;stroke:none" id="path1074"/>
      <path d="m 23451.5,10018.6 h -34.1 V 11153 h 34.1 v -1134.4" style="fill:#100f0d;fill-opacity:1;fill-rule:nonzero;stroke:none" id="path1076"/>
      <path d="m 23521.4,10018.6 h -34 V 11153 h 34 v -1134.4" style="fill:#100f0d;fill-opacity:1;fill-rule:nonzero;stroke:none" id="path1078"/>
      <path d="m 23651.5,10018.6 h -95.1 V 11153 h 95.1 v -1134.4" style="fill:#100f0d;fill-opacity:1;fill-rule:nonzero;stroke:none" id="path1080"/>
      <path d="m 23845,10018.6 h -95.1 V 11153 h 95.1 v -1134.4" style="fill:#100f0d;fill-opacity:1;fill-rule:nonzero;stroke:none" id="path1082"/>
      <path d="m 23917.9,10018.6 h -34.4 V 11153 h 34.4 v -1134.4" style="fill:#100f0d;fill-opacity:1;fill-rule:nonzero;stroke:none" id="path1084"/>
      <path d="m 23988.2,10018.6 h -34.4 V 11153 h 34.4 v -1134.4" style="fill:#100f0d;fill-opacity:1;fill-rule:nonzero;stroke:none" id="path1086"/>
      <path d="m 24126.3,10018.6 h -34.4 V 11153 h 34.4 v -1134.4" style="fill:#100f0d;fill-opacity:1;fill-rule:nonzero;stroke:none" id="path1088"/>
      <path d="m 24257.9,10018.6 h -34.6 V 11153 h 34.6 v -1134.4" style="fill:#100f0d;fill-opacity:1;fill-rule:nonzero;stroke:none" id="path1090"/>
      <path d="m 24594.5,10018.6 h -34.4 V 11153 h 34.4 v -1134.4" style="fill:#100f0d;fill-opacity:1;fill-rule:nonzero;stroke:none" id="path1092"/>
      <path d="m 24727.3,10018.6 h -34.5 V 11153 h 34.5 v -1134.4" style="fill:#100f0d;fill-opacity:1;fill-rule:nonzero;stroke:none" id="path1094"/>
      <path d="m 25058.4,10018.6 h -34.5 V 11153 h 34.5 v -1134.4" style="fill:#100f0d;fill-opacity:1;fill-rule:nonzero;stroke:none" id="path1096"/>
      <path d="m 24390.5,10018.6 h -95.6 V 11153 h 95.6 v -1134.4" style="fill:#100f0d;fill-opacity:1;fill-rule:nonzero;stroke:none" id="path1098"/>
      <path d="m 24522.4,10018.6 h -95.5 V 11153 h 95.5 v -1134.4" style="fill:#100f0d;fill-opacity:1;fill-rule:nonzero;stroke:none" id="path1100"/>
      <path d="M 24857.4,10018.6 H 24762 V 11153 h 95.4 v -1134.4" style="fill:#100f0d;fill-opacity:1;fill-rule:nonzero;stroke:none" id="path1102"/>
      <path d="m 24988.9,10018.6 h -95.6 V 11153 h 95.6 v -1134.4" style="fill:#100f0d;fill-opacity:1;fill-rule:nonzero;stroke:none" id="path1104"/>
      <path d="m 23047,10018.6 h -94.7 V 11153 h 94.7 v -1134.4" style="fill:#100f0d;fill-opacity:1;fill-rule:nonzero;stroke:none" id="path1106"/>
      <path d="m 23312.1,10018.6 h -94.7 V 11153 h 94.7 v -1134.4" style="fill:#100f0d;fill-opacity:1;fill-rule:nonzero;stroke:none" id="path1108"/>
      <path d="m 22048.9,10018.6 h -96.4 V 11153 h 96.4 v -1134.4" style="fill:#100f0d;fill-opacity:1;fill-rule:nonzero;stroke:none" id="path1110"/>
      <path d="m 21847.1,10018.6 h -94.3 V 11153 h 94.3 v -1134.4" style="fill:#100f0d;fill-opacity:1;fill-rule:nonzero;stroke:none" id="path1112"/>
      <path d="m 21448.2,10018.6 h -97.3 V 11153 h 97.3 v -1134.4" style="fill:#100f0d;fill-opacity:1;fill-rule:nonzero;stroke:none" id="path1114"/>
      <path d="m 20778.9,10018.6 h -95.1 V 11153 h 95.1 v -1134.4" style="fill:#100f0d;fill-opacity:1;fill-rule:nonzero;stroke:none" id="path1116"/>
      <path d="m 20911.7,10018.6 h -95.1 V 11153 h 95.1 v -1134.4" style="fill:#100f0d;fill-opacity:1;fill-rule:nonzero;stroke:none" id="path1118"/>
      <path d="m 21043.7,10018.6 h -95.2 V 11153 h 95.2 v -1134.4" style="fill:#100f0d;fill-opacity:1;fill-rule:nonzero;stroke:none" id="path1120"/>
      <path d="m 20447.4,10018.6 h -95.6 V 11153 h 95.6 v -1134.4" style="fill:#100f0d;fill-opacity:1;fill-rule:nonzero;stroke:none" id="path1122"/>
      <path d="m 20245.1,10018.6 h -95.5 V 11153 h 95.5 v -1134.4" style="fill:#100f0d;fill-opacity:1;fill-rule:nonzero;stroke:none" id="path1124"/>
      <path d="m 19643.6,10018.6 h -93.5 V 11153 h 93.5 v -1134.4" style="fill:#100f0d;fill-opacity:1;fill-rule:nonzero;stroke:none" id="path1126"/>
      <path d="m 19844.1,10018.6 h -93.4 V 11153 h 93.4 v -1134.4" style="fill:#100f0d;fill-opacity:1;fill-rule:nonzero;stroke:none" id="path1128"/>
      <path d="m 19511.7,10018.6 h -92.1 V 11153 h 92.1 v -1134.4" style="fill:#100f0d;fill-opacity:1;fill-rule:nonzero;stroke:none" id="path1130"/>
      <path d="m 19325,11925.3 c 0,-94.1 11,-156.8 33,-187.9 22,-31.1 49.2,-46.7 81.5,-46.7 32.3,0 59.6,15.6 81.6,47 22,31.1 33.1,93.8 33.1,187.6 0,94.4 -11.1,157.1 -33.1,188.2 -22,31 -49.5,46.5 -82.3,46.5 -32.3,0 -58.2,-13.7 -77.4,-41 -24.3,-35 -36.4,-99.4 -36.4,-193.7 z m -72.4,0 c 0,67.9 6.9,122.4 20.9,163.6 14,41.4 34.7,73.3 62.2,95.8 27.4,22.3 62.1,33.6 103.8,33.6 30.8,0 57.8,-6.2 81,-18.6 23.2,-12.3 42.3,-30.2 57.5,-53.6 15.1,-23.4 26.9,-51.8 35.6,-85.3 8.6,-33.3 12.9,-78.6 12.9,-135.5 0,-67.1 -7,-121.5 -20.7,-162.9 -13.9,-41.2 -34.5,-73.2 -62.1,-95.7 -27.5,-22.6 -62.2,-33.8 -104.2,-33.8 -55.2,0 -98.7,19.7 -130.3,59.4 -37.7,47.7 -56.6,125.4 -56.6,233" style="fill:#100f0d;fill-opacity:1;fill-rule:nonzero;stroke:none" id="path1132"/>
      <path d="m 19770.4,11925.3 c 0,-94.1 11,-156.8 33.1,-187.9 21.9,-31.1 49.2,-46.7 81.5,-46.7 32.3,0 59.6,15.6 81.6,47 22,31.1 33,93.8 33,187.6 0,94.4 -11,157.1 -33,188.2 -22,31 -49.5,46.5 -82.4,46.5 -32.3,0 -58.2,-13.7 -77.4,-41 -24.2,-35 -36.4,-99.4 -36.4,-193.7 z m -72.3,0 c 0,67.9 6.9,122.4 20.9,163.6 13.9,41.4 34.7,73.3 62.1,95.8 27.5,22.3 62.2,33.6 103.9,33.6 30.8,0 57.8,-6.2 81,-18.6 23.2,-12.3 42.3,-30.2 57.5,-53.6 15.1,-23.4 26.9,-51.8 35.5,-85.3 8.7,-33.3 13,-78.6 13,-135.5 0,-67.1 -7,-121.5 -20.8,-162.9 -13.8,-41.2 -34.4,-73.2 -62,-95.7 -27.5,-22.6 -62.2,-33.8 -104.2,-33.8 -55.2,0 -98.7,19.7 -130.3,59.4 -37.7,47.7 -56.6,125.4 -56.6,233" style="fill:#100f0d;fill-opacity:1;fill-rule:nonzero;stroke:none" id="path1134"/>
      <path d="m 20148.2,12140.8 v 67.7 h 371.2 v -54.8 c -36.5,-38.8 -72.7,-90.5 -108.5,-154.8 -35.9,-64.5 -63.6,-130.6 -83.1,-198.6 -14.2,-48 -23.2,-100.7 -27,-157.7 h -72.4 c 0.8,45.1 9.6,99.6 26.6,163.5 17,63.8 41.2,125.5 72.9,184.7 31.7,59.4 65.4,109.3 101.1,150 h -280.8" style="fill:#100f0d;fill-opacity:1;fill-rule:nonzero;stroke:none" id="path1136"/>
      <path d="m 20814.7,11844.3 v 258.6 l -179.5,-258.6 z m 0,-201.7 v 137.3 h -248.8 v 64.4 l 261.7,371.7 h 57.5 v -371.7 h 77.4 v -64.4 h -77.4 v -137.3 h -70.4" style="fill:#100f0d;fill-opacity:1;fill-rule:nonzero;stroke:none" id="path1138"/>
      <path d="m 21059.9,11642.6 v 573.4 h 75.8 v -284.4 l 284.7,284.4 h 103 l -240.6,-232.3 251.1,-341.1 h -100.2 l -204.1,290.2 -93.9,-91.6 v -198.6 h -75.8" style="fill:#100f0d;fill-opacity:1;fill-rule:nonzero;stroke:none" id="path1140"/>
      <path d="m 21594.1,11642.6 v 573.4 h 75.9 v -505.7 h 282.3 v -67.7 h -358.2" style="fill:#100f0d;fill-opacity:1;fill-rule:nonzero;stroke:none" id="path1142"/>
      <path d="m 22463.6,12140.8 v 67.7 h 371.2 v -54.8 c -36.6,-38.8 -72.7,-90.5 -108.6,-154.8 -35.8,-64.5 -63.5,-130.6 -83.1,-198.6 -14.1,-48 -23.1,-100.7 -27,-157.7 h -72.4 c 0.8,45.1 9.7,99.6 26.7,163.5 16.9,63.8 41.2,125.5 72.9,184.7 31.7,59.4 65.4,109.3 101.1,150 h -280.8" style="fill:#100f0d;fill-opacity:1;fill-rule:nonzero;stroke:none" id="path1144"/>
      <path d="m 22909.1,12140.8 v 67.7 h 371.2 v -54.8 c -36.7,-38.8 -72.8,-90.5 -108.6,-154.8 -35.9,-64.5 -63.6,-130.6 -83.1,-198.6 -14.1,-48 -23.2,-100.7 -27.1,-157.7 h -72.3 c 0.8,45.1 9.7,99.6 26.6,163.5 17,63.8 41.3,125.5 73,184.7 31.6,59.4 65.4,109.3 101.1,150 h -280.8" style="fill:#100f0d;fill-opacity:1;fill-rule:nonzero;stroke:none" id="path1146"/>
      <path d="m 23575.5,11844.3 v 258.6 l -179.6,-258.6 z m 0,-201.7 v 137.3 h -248.8 v 64.4 l 261.7,371.7 h 57.5 v -371.7 h 77.4 v -64.4 h -77.4 v -137.3 h -70.4" style="fill:#100f0d;fill-opacity:1;fill-rule:nonzero;stroke:none" id="path1148"/>
      <path d="m 24165.3,11710.3 v -67.7 h -379 c -0.6,17 2.2,33.2 8.2,48.8 9.6,25.9 25.1,51.2 46.3,76.4 21.3,25 52,53.9 92.2,86.8 62.2,51.1 104.4,91.6 126.2,121.5 21.9,29.8 32.9,58.1 32.9,84.6 0,28 -9.9,51.3 -29.9,70.5 -19.9,19.2 -46,28.8 -78,28.8 -33.9,0 -61,-10.2 -81.4,-30.6 -20.3,-20.2 -30.6,-48.3 -30.9,-84.4 l -72.3,7.5 c 4.9,54 23.5,95.1 55.9,123.3 32.4,28.4 75.7,42.5 130.2,42.5 55.1,0 98.6,-15.3 130.7,-45.7 32,-30.6 48.1,-68.3 48.1,-113.4 0,-23.1 -4.8,-45.6 -14.1,-67.8 -9.4,-22.2 -25,-45.5 -46.8,-70 -21.7,-24.5 -57.9,-58 -108.5,-100.9 -42.2,-35.4 -69.3,-59.5 -81.3,-72.1 -12,-12.6 -21.9,-25.4 -29.7,-38.1 h 281.2" style="fill:#100f0d;fill-opacity:1;fill-rule:nonzero;stroke:none" id="path1150"/>
      <path d="m 24318.6,11828.4 c 0,-24.3 5.2,-47.5 15.4,-69.7 10.4,-22.2 24.7,-39 43.3,-50.6 18.4,-11.6 37.9,-17.4 58.2,-17.4 29.8,0 55.2,12 76.7,36 21.3,24 32,56.6 32,97.8 0,39.6 -10.5,70.9 -31.7,93.7 -21,22.8 -47.7,34.1 -79.7,34.1 -31.9,0 -58.8,-11.3 -81,-34.1 -22.2,-22.8 -33.2,-52.9 -33.2,-89.8 z m 287.4,247.1 -70,-5.5 c -6.3,27.7 -15.1,47.8 -26.5,60.3 -19.1,20 -42.6,30.1 -70.4,30.1 -22.5,0 -42.2,-6.2 -59.1,-18.7 -22.2,-16.3 -39.6,-39.8 -52.5,-70.8 -12.7,-31.1 -19.3,-75.3 -19.9,-132.6 17,25.7 37.7,44.9 62.2,57.4 24.5,12.6 50.2,18.8 77.1,18.8 47,0 86.9,-17.3 119.8,-51.8 33,-34.6 49.5,-79.2 49.5,-134 0,-35.9 -7.8,-69.4 -23.3,-100.4 -15.5,-30.8 -36.8,-54.4 -63.9,-70.8 -27.1,-16.4 -57.9,-24.6 -92.3,-24.6 -58.7,0 -106.5,21.4 -143.5,64.6 -37,43.2 -55.6,114.4 -55.6,213.4 0,110.8 20.5,191.3 61.4,241.6 35.7,43.9 83.8,65.8 144.4,65.8 45,0 82,-12.6 110.8,-37.9 28.8,-25.3 46.1,-60.3 51.8,-104.9" style="fill:#100f0d;fill-opacity:1;fill-rule:nonzero;stroke:none" id="path1152"/>
      <path d="m 24780.5,12072.7 c 0,-27.1 8.7,-49.1 26.2,-66.4 17.4,-17.3 40.1,-25.7 68,-25.7 27.1,0 49.3,8.4 66.7,25.6 17.3,16.9 25.9,37.9 25.9,62.7 0,25.9 -8.9,47.4 -26.7,65 -17.9,17.7 -40.1,26.5 -66.7,26.5 -26.9,0 -49.1,-8.6 -66.9,-25.7 -17.7,-17.3 -26.5,-37.9 -26.5,-62 z m -22.7,-264.7 c 0,-20.1 4.7,-39.5 14.2,-58.2 9.5,-18.8 23.7,-33.4 42.4,-43.6 18.8,-10.3 39,-15.5 60.7,-15.5 33.6,0 61.4,10.8 83.3,32.4 21.9,21.6 32.9,49.2 32.9,82.5 0,34 -11.3,62 -33.9,84.1 -22.5,22.2 -50.7,33.2 -84.6,33.2 -33.2,0 -60.6,-10.8 -82.4,-32.7 -21.8,-21.9 -32.6,-49.3 -32.6,-82.2 z m 36.7,145.6 c -29.2,10.6 -50.8,25.8 -64.9,45.7 -14.1,19.8 -21.1,43.5 -21.1,71.2 0,41.7 14.9,76.7 44.9,105.3 30,28.2 69.9,42.5 119.7,42.5 50.1,0 90.3,-14.6 120.9,-43.6 30.5,-29.2 45.8,-64.5 45.8,-106.2 0,-26.6 -7,-49.7 -21,-69.5 -14,-19.6 -35.1,-34.8 -63.5,-45.4 35.2,-11.6 61.9,-30.1 80.4,-55.7 18.3,-25.4 27.5,-56 27.5,-91.4 0,-49.1 -17.3,-90.2 -52,-123.6 -34.6,-33.5 -80.4,-50 -136.9,-50 -56.6,0 -102.2,16.7 -136.9,50.2 -34.7,33.5 -52,75.3 -52,125.3 0,37.3 9.5,68.5 28.4,93.7 18.9,25.2 45.8,42.3 80.7,51.5" style="fill:#100f0d;fill-opacity:1;fill-rule:nonzero;stroke:none" id="path1154"/>
      <path d="m 26132.8,11925.3 c 0,-94.1 11,-156.8 33.1,-187.9 22,-31.1 49.2,-46.7 81.6,-46.7 32.3,0 59.4,15.6 81.4,47 22,31.1 33.1,93.8 33.1,187.6 0,94.4 -11.1,157.1 -33.1,188.2 -22,31 -49.4,46.5 -82.2,46.5 -32.4,0 -58.2,-13.7 -77.5,-41 -24.2,-35 -36.4,-99.4 -36.4,-193.7 z m -72.3,0 c 0,67.9 7,122.4 21,163.6 13.8,41.4 34.6,73.3 62,95.8 27.6,22.3 62.1,33.6 104,33.6 30.6,0 57.7,-6.2 80.9,-18.6 23.1,-12.3 42.4,-30.2 57.5,-53.6 15.1,-23.4 27,-51.8 35.6,-85.3 8.6,-33.3 12.8,-78.6 12.8,-135.5 0,-67.1 -6.8,-121.5 -20.7,-162.9 -13.8,-41.2 -34.4,-73.2 -61.9,-95.7 -27.5,-22.6 -62.2,-33.8 -104.2,-33.8 -55.4,0 -98.7,19.7 -130.3,59.4 -37.8,47.7 -56.7,125.4 -56.7,233" style="fill:#100f0d;fill-opacity:1;fill-rule:nonzero;stroke:none" id="path1156"/>
      <path d="m 26510.6,12140.8 v 67.7 h 371.2 v -54.8 c -36.5,-38.8 -72.7,-90.5 -108.5,-154.8 -35.9,-64.5 -63.5,-130.6 -83.2,-198.6 -14.1,-48 -23.1,-100.7 -26.9,-157.7 h -72.4 c 0.8,45.1 9.7,99.6 26.6,163.5 17,63.8 41.3,125.5 73,184.7 31.6,59.4 65.3,109.3 101,150 h -280.8" style="fill:#100f0d;fill-opacity:1;fill-rule:nonzero;stroke:none" id="path1158"/>
      <path d="m 27023.8,11925.3 c 0,-94.1 11,-156.8 33,-187.9 22.1,-31.1 49.2,-46.7 81.5,-46.7 32.4,0 59.5,15.6 81.6,47 22,31.1 33,93.8 33,187.6 0,94.4 -11,157.1 -33,188.2 -22.1,31 -49.5,46.5 -82.4,46.5 -32.3,0 -58,-13.7 -77.4,-41 -24.3,-35 -36.3,-99.4 -36.3,-193.7 z m -72.4,0 c 0,67.9 7,122.4 20.9,163.6 14,41.4 34.6,73.3 62.2,95.8 27.5,22.3 62.1,33.6 103.8,33.6 30.8,0 57.7,-6.2 81,-18.6 23.2,-12.3 42.4,-30.2 57.4,-53.6 15.2,-23.4 27.1,-51.8 35.7,-85.3 8.6,-33.3 12.9,-78.6 12.9,-135.5 0,-67.1 -6.9,-121.5 -20.7,-162.9 -13.9,-41.2 -34.5,-73.2 -62,-95.7 -27.5,-22.6 -62.3,-33.8 -104.3,-33.8 -55.3,0 -98.6,19.7 -130.2,59.4 -37.8,47.7 -56.7,125.4 -56.7,233" style="fill:#100f0d;fill-opacity:1;fill-rule:nonzero;stroke:none" id="path1160"/>
      <path d="m 19247.8,3408.6 h -28.4 v 1134.2 h 28.4 V 3408.6" style="fill:#100f0d;fill-opacity:1;fill-rule:nonzero;stroke:none" id="path1162"/>
      <path d="m 19315.1,3408.6 h -28.3 v 1134.2 h 28.3 V 3408.6" style="fill:#100f0d;fill-opacity:1;fill-rule:nonzero;stroke:none" id="path1164"/>
      <path d="m 19379.2,3408.6 h -28.2 v 1134.2 h 28.2 V 3408.6" style="fill:#100f0d;fill-opacity:1;fill-rule:nonzero;stroke:none" id="path1166"/>
      <path d="m 19713.9,3408.6 h -33.1 v 1134.2 h 33.1 V 3408.6" style="fill:#100f0d;fill-opacity:1;fill-rule:nonzero;stroke:none" id="path1168"/>
      <path d="m 19915.4,3408.6 h -33.2 v 1134.2 h 33.2 V 3408.6" style="fill:#100f0d;fill-opacity:1;fill-rule:nonzero;stroke:none" id="path1170"/>
      <path d="m 19982.6,3408.6 h -33.1 v 1134.2 h 33.1 V 3408.6" style="fill:#100f0d;fill-opacity:1;fill-rule:nonzero;stroke:none" id="path1172"/>
      <path d="m 20114.1,3408.6 h -33.2 v 1134.2 h 33.2 V 3408.6" style="fill:#100f0d;fill-opacity:1;fill-rule:nonzero;stroke:none" id="path1174"/>
      <path d="m 20315,3408.6 h -33.1 v 1134.2 h 33.1 V 3408.6" style="fill:#100f0d;fill-opacity:1;fill-rule:nonzero;stroke:none" id="path1176"/>
      <path d="m 20516.9,3408.6 h -33.2 v 1134.2 h 33.2 V 3408.6" style="fill:#100f0d;fill-opacity:1;fill-rule:nonzero;stroke:none" id="path1178"/>
      <path d="m 20648.3,3408.6 h -33.2 v 1134.2 h 33.2 V 3408.6" style="fill:#100f0d;fill-opacity:1;fill-rule:nonzero;stroke:none" id="path1180"/>
      <path d="m 21114.1,3408.6 h -33.2 v 1134.2 h 33.2 V 3408.6" style="fill:#100f0d;fill-opacity:1;fill-rule:nonzero;stroke:none" id="path1182"/>
      <path d="m 21245.1,3408.6 h -33.2 v 1134.2 h 33.2 V 3408.6" style="fill:#100f0d;fill-opacity:1;fill-rule:nonzero;stroke:none" id="path1184"/>
      <path d="m 21315.4,3408.6 h -33.1 v 1134.2 h 33.1 V 3408.6" style="fill:#100f0d;fill-opacity:1;fill-rule:nonzero;stroke:none" id="path1186"/>
      <path d="m 21517.3,3408.6 h -33.2 v 1134.2 h 33.2 V 3408.6" style="fill:#100f0d;fill-opacity:1;fill-rule:nonzero;stroke:none" id="path1188"/>
      <path d="m 21647.8,3408.6 h -33.1 v 1134.2 h 33.1 V 3408.6" style="fill:#100f0d;fill-opacity:1;fill-rule:nonzero;stroke:none" id="path1190"/>
      <path d="m 21715.1,3408.6 h -33.2 v 1134.2 h 33.2 V 3408.6" style="fill:#100f0d;fill-opacity:1;fill-rule:nonzero;stroke:none" id="path1192"/>
      <path d="m 21917.4,3408.6 h -33.1 v 1134.2 h 33.1 V 3408.6" style="fill:#100f0d;fill-opacity:1;fill-rule:nonzero;stroke:none" id="path1194"/>
      <path d="m 22180.4,3408.6 h -33.2 v 1134.2 h 33.2 V 3408.6" style="fill:#100f0d;fill-opacity:1;fill-rule:nonzero;stroke:none" id="path1196"/>
      <path d="m 22249.8,3408.6 h -33.1 v 1134.2 h 33.1 V 3408.6" style="fill:#100f0d;fill-opacity:1;fill-rule:nonzero;stroke:none" id="path1198"/>
      <path d="m 22379.2,3408.6 h -94 v 1134.2 h 94 V 3408.6" style="fill:#100f0d;fill-opacity:1;fill-rule:nonzero;stroke:none" id="path1200"/>
      <path d="m 22511.5,3408.6 h -93.8 v 1134.2 h 93.8 V 3408.6" style="fill:#100f0d;fill-opacity:1;fill-rule:nonzero;stroke:none" id="path1202"/>
      <path d="m 22644.7,3408.6 h -93.9 v 1134.2 h 93.9 V 3408.6" style="fill:#100f0d;fill-opacity:1;fill-rule:nonzero;stroke:none" id="path1204"/>
      <path d="m 22777.9,3408.6 h -33.9 v 1134.2 h 33.9 V 3408.6" style="fill:#100f0d;fill-opacity:1;fill-rule:nonzero;stroke:none" id="path1206"/>
      <path d="m 22847.4,3408.6 h -34.1 v 1134.2 h 34.1 V 3408.6" style="fill:#100f0d;fill-opacity:1;fill-rule:nonzero;stroke:none" id="path1208"/>
      <path d="m 22918.2,3408.6 h -34 v 1134.2 h 34 V 3408.6" style="fill:#100f0d;fill-opacity:1;fill-rule:nonzero;stroke:none" id="path1210"/>
      <path d="m 23119.5,3408.6 h -34 v 1134.2 h 34 V 3408.6" style="fill:#100f0d;fill-opacity:1;fill-rule:nonzero;stroke:none" id="path1212"/>
      <path d="m 23381.5,3408.6 h -33.9 v 1134.2 h 33.9 V 3408.6" style="fill:#100f0d;fill-opacity:1;fill-rule:nonzero;stroke:none" id="path1214"/>
      <path d="m 23451.5,3408.6 h -34.1 v 1134.2 h 34.1 V 3408.6" style="fill:#100f0d;fill-opacity:1;fill-rule:nonzero;stroke:none" id="path1216"/>
      <path d="m 23521.4,3408.6 h -34 v 1134.2 h 34 V 3408.6" style="fill:#100f0d;fill-opacity:1;fill-rule:nonzero;stroke:none" id="path1218"/>
      <path d="m 23651.5,3408.6 h -95.1 v 1134.2 h 95.1 V 3408.6" style="fill:#100f0d;fill-opacity:1;fill-rule:nonzero;stroke:none" id="path1220"/>
      <path d="m 23845,3408.6 h -95.1 v 1134.2 h 95.1 V 3408.6" style="fill:#100f0d;fill-opacity:1;fill-rule:nonzero;stroke:none" id="path1222"/>
      <path d="m 23917.9,3408.6 h -34.4 v 1134.2 h 34.4 V 3408.6" style="fill:#100f0d;fill-opacity:1;fill-rule:nonzero;stroke:none" id="path1224"/>
      <path d="m 23988.2,3408.6 h -34.4 v 1134.2 h 34.4 V 3408.6" style="fill:#100f0d;fill-opacity:1;fill-rule:nonzero;stroke:none" id="path1226"/>
      <path d="m 24126.3,3408.6 h -34.4 v 1134.2 h 34.4 V 3408.6" style="fill:#100f0d;fill-opacity:1;fill-rule:nonzero;stroke:none" id="path1228"/>
      <path d="m 24257.9,3408.6 h -34.6 v 1134.2 h 34.6 V 3408.6" style="fill:#100f0d;fill-opacity:1;fill-rule:nonzero;stroke:none" id="path1230"/>
      <path d="m 24594.5,3408.6 h -34.4 v 1134.2 h 34.4 V 3408.6" style="fill:#100f0d;fill-opacity:1;fill-rule:nonzero;stroke:none" id="path1232"/>
      <path d="m 24727.3,3408.6 h -34.5 v 1134.2 h 34.5 V 3408.6" style="fill:#100f0d;fill-opacity:1;fill-rule:nonzero;stroke:none" id="path1234"/>
      <path d="m 25058.4,3408.6 h -34.5 v 1134.2 h 34.5 V 3408.6" style="fill:#100f0d;fill-opacity:1;fill-rule:nonzero;stroke:none" id="path1236"/>
      <path d="m 24390.5,3408.6 h -95.6 v 1134.2 h 95.6 V 3408.6" style="fill:#100f0d;fill-opacity:1;fill-rule:nonzero;stroke:none" id="path1238"/>
      <path d="m 24522.4,3408.6 h -95.5 v 1134.2 h 95.5 V 3408.6" style="fill:#100f0d;fill-opacity:1;fill-rule:nonzero;stroke:none" id="path1240"/>
      <path d="m 24857.4,3408.6 h -95.4 v 1134.2 h 95.4 V 3408.6" style="fill:#100f0d;fill-opacity:1;fill-rule:nonzero;stroke:none" id="path1242"/>
      <path d="m 24988.9,3408.6 h -95.6 v 1134.2 h 95.6 V 3408.6" style="fill:#100f0d;fill-opacity:1;fill-rule:nonzero;stroke:none" id="path1244"/>
      <path d="m 23047,3408.6 h -94.7 v 1134.2 h 94.7 V 3408.6" style="fill:#100f0d;fill-opacity:1;fill-rule:nonzero;stroke:none" id="path1246"/>
      <path d="m 23312.1,3408.6 h -94.7 v 1134.2 h 94.7 V 3408.6" style="fill:#100f0d;fill-opacity:1;fill-rule:nonzero;stroke:none" id="path1248"/>
      <path d="m 22048.9,3408.6 h -96.4 v 1134.2 h 96.4 V 3408.6" style="fill:#100f0d;fill-opacity:1;fill-rule:nonzero;stroke:none" id="path1250"/>
      <path d="m 21847.1,3408.6 h -94.3 v 1134.2 h 94.3 V 3408.6" style="fill:#100f0d;fill-opacity:1;fill-rule:nonzero;stroke:none" id="path1252"/>
      <path d="m 21448.2,3408.6 h -97.3 v 1134.2 h 97.3 V 3408.6" style="fill:#100f0d;fill-opacity:1;fill-rule:nonzero;stroke:none" id="path1254"/>
      <path d="m 20778.9,3408.6 h -95.1 v 1134.2 h 95.1 V 3408.6" style="fill:#100f0d;fill-opacity:1;fill-rule:nonzero;stroke:none" id="path1256"/>
      <path d="m 20911.7,3408.6 h -95.1 v 1134.2 h 95.1 V 3408.6" style="fill:#100f0d;fill-opacity:1;fill-rule:nonzero;stroke:none" id="path1258"/>
      <path d="m 21043.7,3408.6 h -95.2 v 1134.2 h 95.2 V 3408.6" style="fill:#100f0d;fill-opacity:1;fill-rule:nonzero;stroke:none" id="path1260"/>
      <path d="m 20447.4,3408.6 h -95.6 v 1134.2 h 95.6 V 3408.6" style="fill:#100f0d;fill-opacity:1;fill-rule:nonzero;stroke:none" id="path1262"/>
      <path d="m 20245.1,3408.6 h -95.5 v 1134.2 h 95.5 V 3408.6" style="fill:#100f0d;fill-opacity:1;fill-rule:nonzero;stroke:none" id="path1264"/>
      <path d="m 19643.6,3408.6 h -93.5 v 1134.2 h 93.5 V 3408.6" style="fill:#100f0d;fill-opacity:1;fill-rule:nonzero;stroke:none" id="path1266"/>
      <path d="m 19844.1,3408.6 h -93.4 v 1134.2 h 93.4 V 3408.6" style="fill:#100f0d;fill-opacity:1;fill-rule:nonzero;stroke:none" id="path1268"/>
      <path d="m 19511.7,3408.6 h -92.1 v 1134.2 h 92.1 V 3408.6" style="fill:#100f0d;fill-opacity:1;fill-rule:nonzero;stroke:none" id="path1270"/>
      <path d="m 19325,5315.2 c 0,-94.2 11,-156.7 33,-188 22,-31.1 49.2,-46.7 81.5,-46.7 32.3,0 59.6,15.7 81.6,47 22,31.3 33.1,93.8 33.1,187.7 0,94.3 -11.1,157.1 -33.1,188.1 -22,31.1 -49.5,46.6 -82.3,46.6 -32.3,0 -58.2,-13.7 -77.4,-41.1 -24.3,-35 -36.4,-99.5 -36.4,-193.6 z m -72.4,0 c 0,67.8 6.9,122.3 20.9,163.7 14,41.2 34.7,73.2 62.2,95.6 27.4,22.4 62.1,33.6 103.8,33.6 30.8,0 57.8,-6.1 81,-18.6 23.2,-12.4 42.3,-30.2 57.5,-53.5 15.1,-23.3 26.9,-51.8 35.6,-85.3 8.6,-33.5 12.9,-78.7 12.9,-135.5 0,-67.2 -7,-121.6 -20.7,-162.8 -13.9,-41.4 -34.5,-73.4 -62.1,-95.9 -27.5,-22.7 -62.2,-33.8 -104.2,-33.8 -55.2,0 -98.7,19.8 -130.3,59.4 -37.7,47.8 -56.6,125.5 -56.6,233.1" style="fill:#100f0d;fill-opacity:1;fill-rule:nonzero;stroke:none" id="path1272"/>
      <path d="m 19770.4,5315.2 c 0,-94.2 11,-156.7 33.1,-188 21.9,-31.1 49.2,-46.7 81.5,-46.7 32.3,0 59.6,15.7 81.6,47 22,31.3 33,93.8 33,187.7 0,94.3 -11,157.1 -33,188.1 -22,31.1 -49.5,46.6 -82.4,46.6 -32.3,0 -58.2,-13.7 -77.4,-41.1 -24.2,-35 -36.4,-99.5 -36.4,-193.6 z m -72.3,0 c 0,67.8 6.9,122.3 20.9,163.7 13.9,41.2 34.7,73.2 62.1,95.6 27.5,22.4 62.2,33.6 103.9,33.6 30.8,0 57.8,-6.1 81,-18.6 23.2,-12.4 42.3,-30.2 57.5,-53.5 15.1,-23.3 26.9,-51.8 35.5,-85.3 8.7,-33.5 13,-78.7 13,-135.5 0,-67.2 -7,-121.6 -20.8,-162.8 -13.8,-41.4 -34.4,-73.4 -62,-95.9 -27.5,-22.7 -62.2,-33.8 -104.2,-33.8 -55.2,0 -98.7,19.8 -130.3,59.4 -37.7,47.8 -56.6,125.5 -56.6,233.1" style="fill:#100f0d;fill-opacity:1;fill-rule:nonzero;stroke:none" id="path1274"/>
      <path d="m 20148.2,5530.7 v 67.6 h 371.2 v -54.7 c -36.5,-38.8 -72.7,-90.5 -108.5,-155 -35.9,-64.3 -63.6,-130.5 -83.1,-198.6 -14.2,-47.9 -23.2,-100.5 -27,-157.6 h -72.4 c 0.8,45.1 9.6,99.6 26.6,163.6 17,63.7 41.2,125.4 72.9,184.8 31.7,59.2 65.4,109.2 101.1,149.9 h -280.8" style="fill:#100f0d;fill-opacity:1;fill-rule:nonzero;stroke:none" id="path1276"/>
      <path d="m 20814.7,5234.3 v 258.4 l -179.5,-258.4 z m 0,-201.9 v 137.2 h -248.8 v 64.7 l 261.7,371.4 h 57.5 v -371.4 h 77.4 v -64.7 h -77.4 v -137.2 h -70.4" style="fill:#100f0d;fill-opacity:1;fill-rule:nonzero;stroke:none" id="path1278"/>
      <path d="m 21059.9,5032.4 v 573.3 h 75.8 v -284.2 l 284.7,284.2 h 103 l -240.6,-232.2 251.1,-341.1 h -100.2 l -204.1,290.1 -93.9,-91.4 v -198.7 h -75.8" style="fill:#100f0d;fill-opacity:1;fill-rule:nonzero;stroke:none" id="path1280"/>
      <path d="m 21594.1,5032.4 v 573.3 h 75.9 v -505.6 h 282.3 v -67.7 h -358.2" style="fill:#100f0d;fill-opacity:1;fill-rule:nonzero;stroke:none" id="path1282"/>
      <path d="m 22463.6,5530.7 v 67.6 h 371.2 v -54.7 c -36.6,-38.8 -72.7,-90.5 -108.6,-155 -35.8,-64.3 -63.5,-130.5 -83.1,-198.6 -14.1,-47.9 -23.1,-100.5 -27,-157.6 h -72.4 c 0.8,45.1 9.7,99.6 26.7,163.6 16.9,63.7 41.2,125.4 72.9,184.8 31.7,59.2 65.4,109.2 101.1,149.9 h -280.8" style="fill:#100f0d;fill-opacity:1;fill-rule:nonzero;stroke:none" id="path1284"/>
      <path d="m 22909.1,5530.7 v 67.6 h 371.2 v -54.7 c -36.7,-38.8 -72.8,-90.5 -108.6,-155 -35.9,-64.3 -63.6,-130.5 -83.1,-198.6 -14.1,-47.9 -23.2,-100.5 -27.1,-157.6 h -72.3 c 0.8,45.1 9.7,99.6 26.6,163.6 17,63.7 41.3,125.4 73,184.8 31.6,59.2 65.4,109.2 101.1,149.9 h -280.8" style="fill:#100f0d;fill-opacity:1;fill-rule:nonzero;stroke:none" id="path1286"/>
      <path d="m 23575.5,5234.3 v 258.4 l -179.6,-258.4 z m 0,-201.9 v 137.2 h -248.8 v 64.7 l 261.7,371.4 h 57.5 v -371.4 h 77.4 v -64.7 h -77.4 v -137.2 h -70.4" style="fill:#100f0d;fill-opacity:1;fill-rule:nonzero;stroke:none" id="path1288"/>
      <path d="m 24165.3,5100.1 v -67.7 h -379 c -0.6,16.9 2.2,33.3 8.2,48.9 9.6,25.8 25.1,51.3 46.3,76.3 21.3,25 52,53.9 92.2,86.8 62.2,51 104.4,91.5 126.2,121.5 21.9,29.7 32.9,58 32.9,84.7 0,27.8 -9.9,51.4 -29.9,70.6 -19.9,19 -46,28.7 -78,28.7 -33.9,0 -61,-10.3 -81.4,-30.5 -20.3,-20.4 -30.6,-48.6 -30.9,-84.6 l -72.3,7.4 c 4.9,54.1 23.5,95.2 55.9,123.5 32.4,28.3 75.7,42.4 130.2,42.4 55.1,0 98.6,-15.3 130.7,-45.7 32,-30.5 48.1,-68.3 48.1,-113.5 0,-22.9 -4.8,-45.5 -14.1,-67.5 -9.4,-22.4 -25,-45.6 -46.8,-70.2 -21.7,-24.5 -57.9,-58 -108.5,-100.8 -42.2,-35.4 -69.3,-59.5 -81.3,-72.2 -12,-12.6 -21.9,-25.4 -29.7,-38.1 h 281.2" style="fill:#100f0d;fill-opacity:1;fill-rule:nonzero;stroke:none" id="path1290"/>
      <path d="m 24318.6,5218.2 c 0,-24.3 5.2,-47.5 15.4,-69.7 10.4,-22 24.7,-39 43.3,-50.5 18.4,-11.6 37.9,-17.5 58.2,-17.5 29.8,0 55.2,12 76.7,36 21.3,24 32,56.6 32,97.8 0,39.6 -10.5,70.9 -31.7,93.7 -21,22.7 -47.7,34.2 -79.7,34.2 -31.9,0 -58.8,-11.5 -81,-34.2 -22.2,-22.8 -33.2,-52.8 -33.2,-89.8 z m 287.4,247.1 -70,-5.3 c -6.3,27.5 -15.1,47.6 -26.5,60.1 -19.1,20.1 -42.6,30.1 -70.4,30.1 -22.5,0 -42.2,-6.3 -59.1,-18.8 -22.2,-16.2 -39.6,-39.7 -52.5,-70.7 -12.7,-31.1 -19.3,-75.3 -19.9,-132.7 17,26 37.7,45 62.2,57.5 24.5,12.5 50.2,18.8 77.1,18.8 47,0 86.9,-17.3 119.8,-51.7 33,-34.7 49.5,-79.2 49.5,-134 0,-36 -7.8,-69.4 -23.3,-100.3 -15.5,-31 -36.8,-54.5 -63.9,-71.1 -27.1,-16.3 -57.9,-24.5 -92.3,-24.5 -58.7,0 -106.5,21.6 -143.5,64.6 -37,43.2 -55.6,114.3 -55.6,213.5 0,110.8 20.5,191.3 61.4,241.7 35.7,43.7 83.8,65.6 144.4,65.6 45,0 82,-12.6 110.8,-38 28.8,-25.3 46.1,-60.1 51.8,-104.8" style="fill:#100f0d;fill-opacity:1;fill-rule:nonzero;stroke:none" id="path1292"/>
      <path d="m 24780.5,5462.6 c 0,-27.1 8.7,-49.2 26.2,-66.5 17.4,-17.1 40.1,-25.8 68,-25.8 27.1,0 49.3,8.5 66.7,25.6 17.3,17.2 25.9,38 25.9,62.9 0,25.7 -8.9,47.5 -26.7,65 -17.9,17.6 -40.1,26.4 -66.7,26.4 -26.9,0 -49.1,-8.6 -66.9,-25.8 -17.7,-17.2 -26.5,-37.8 -26.5,-61.8 z m -22.7,-264.7 c 0,-20.1 4.7,-39.6 14.2,-58.3 9.5,-18.8 23.7,-33.4 42.4,-43.7 18.8,-10.2 39,-15.4 60.7,-15.4 33.6,0 61.4,10.8 83.3,32.4 21.9,21.7 32.9,49.3 32.9,82.6 0,33.8 -11.3,62 -33.9,84.2 -22.5,22 -50.7,33.2 -84.6,33.2 -33.2,0 -60.6,-11.1 -82.4,-32.9 -21.8,-21.9 -32.6,-49.3 -32.6,-82.1 z m 36.7,145.5 c -29.2,10.7 -50.8,25.9 -64.9,45.7 -14.1,19.8 -21.1,43.6 -21.1,71.2 0,41.7 14.9,76.8 44.9,105.2 30,28.5 69.9,42.6 119.7,42.6 50.1,0 90.3,-14.6 120.9,-43.6 30.5,-29 45.8,-64.5 45.8,-106.2 0,-26.6 -7,-49.7 -21,-69.4 -14,-19.8 -35.1,-34.8 -63.5,-45.5 35.2,-11.6 61.9,-30.1 80.4,-55.5 18.3,-25.7 27.5,-56.2 27.5,-91.6 0,-49 -17.3,-90.2 -52,-123.6 -34.6,-33.3 -80.4,-50 -136.9,-50 -56.6,0 -102.2,16.7 -136.9,50.2 -34.7,33.5 -52,75.3 -52,125.3 0,37.2 9.5,68.5 28.4,93.7 18.9,25.1 45.8,42.3 80.7,51.5" style="fill:#100f0d;fill-opacity:1;fill-rule:nonzero;stroke:none" id="path1294"/>
      <path d="m 26132.8,5315.2 c 0,-94.2 11,-156.7 33.1,-188 22,-31.1 49.2,-46.7 81.6,-46.7 32.3,0 59.4,15.7 81.4,47 22,31.3 33.1,93.8 33.1,187.7 0,94.3 -11.1,157.1 -33.1,188.1 -22,31.1 -49.4,46.6 -82.2,46.6 -32.4,0 -58.2,-13.7 -77.5,-41.1 -24.2,-35 -36.4,-99.5 -36.4,-193.6 z m -72.3,0 c 0,67.8 7,122.3 21,163.7 13.8,41.2 34.6,73.2 62,95.6 27.6,22.4 62.1,33.6 104,33.6 30.6,0 57.7,-6.1 80.9,-18.6 23.1,-12.4 42.4,-30.2 57.5,-53.5 15.1,-23.3 27,-51.8 35.6,-85.3 8.6,-33.5 12.8,-78.7 12.8,-135.5 0,-67.2 -6.8,-121.6 -20.7,-162.8 -13.8,-41.4 -34.4,-73.4 -61.9,-95.9 -27.5,-22.7 -62.2,-33.8 -104.2,-33.8 -55.4,0 -98.7,19.8 -130.3,59.4 -37.8,47.8 -56.7,125.5 -56.7,233.1" style="fill:#100f0d;fill-opacity:1;fill-rule:nonzero;stroke:none" id="path1296"/>
      <path d="m 26510.6,5530.7 v 67.6 h 371.2 v -54.7 c -36.5,-38.8 -72.7,-90.5 -108.5,-155 -35.9,-64.3 -63.5,-130.5 -83.2,-198.6 -14.1,-47.9 -23.1,-100.5 -26.9,-157.6 h -72.4 c 0.8,45.1 9.7,99.6 26.6,163.6 17,63.7 41.3,125.4 73,184.8 31.6,59.2 65.3,109.2 101,149.9 h -280.8" style="fill:#100f0d;fill-opacity:1;fill-rule:nonzero;stroke:none" id="path1298"/>
      <path d="m 27023.8,5315.2 c 0,-94.2 11,-156.7 33,-188 22.1,-31.1 49.2,-46.7 81.5,-46.7 32.4,0 59.5,15.7 81.6,47 22,31.3 33,93.8 33,187.7 0,94.3 -11,157.1 -33,188.1 -22.1,31.1 -49.5,46.6 -82.4,46.6 -32.3,0 -58,-13.7 -77.4,-41.1 -24.3,-35 -36.3,-99.5 -36.3,-193.6 z m -72.4,0 c 0,67.8 7,122.3 20.9,163.7 14,41.2 34.6,73.2 62.2,95.6 27.5,22.4 62.1,33.6 103.8,33.6 30.8,0 57.7,-6.1 81,-18.6 23.2,-12.4 42.4,-30.2 57.4,-53.5 15.2,-23.3 27.1,-51.8 35.7,-85.3 8.6,-33.5 12.9,-78.7 12.9,-135.5 0,-67.2 -6.9,-121.6 -20.7,-162.8 -13.9,-41.4 -34.5,-73.4 -62,-95.9 -27.5,-22.7 -62.3,-33.8 -104.3,-33.8 -55.3,0 -98.6,19.8 -130.2,59.4 -37.8,47.8 -56.7,125.5 -56.7,233.1" style="fill:#100f0d;fill-opacity:1;fill-rule:nonzero;stroke:none" id="path1300"/>
      <path d="m 19247.8,6713.6 h -28.4 v 1134.2 h 28.4 V 6713.6" style="fill:#100f0d;fill-opacity:1;fill-rule:nonzero;stroke:none" id="path1302"/>
      <path d="m 19315.1,6713.6 h -28.3 v 1134.2 h 28.3 V 6713.6" style="fill:#100f0d;fill-opacity:1;fill-rule:nonzero;stroke:none" id="path1304"/>
      <path d="m 19379.2,6713.6 h -28.2 v 1134.2 h 28.2 V 6713.6" style="fill:#100f0d;fill-opacity:1;fill-rule:nonzero;stroke:none" id="path1306"/>
      <path d="m 19713.9,6713.6 h -33.1 v 1134.2 h 33.1 V 6713.6" style="fill:#100f0d;fill-opacity:1;fill-rule:nonzero;stroke:none" id="path1308"/>
      <path d="m 19915.4,6713.6 h -33.2 v 1134.2 h 33.2 V 6713.6" style="fill:#100f0d;fill-opacity:1;fill-rule:nonzero;stroke:none" id="path1310"/>
      <path d="m 19982.6,6713.6 h -33.1 v 1134.2 h 33.1 V 6713.6" style="fill:#100f0d;fill-opacity:1;fill-rule:nonzero;stroke:none" id="path1312"/>
      <path d="m 20114.1,6713.6 h -33.2 v 1134.2 h 33.2 V 6713.6" style="fill:#100f0d;fill-opacity:1;fill-rule:nonzero;stroke:none" id="path1314"/>
      <path d="m 20315,6713.6 h -33.1 v 1134.2 h 33.1 V 6713.6" style="fill:#100f0d;fill-opacity:1;fill-rule:nonzero;stroke:none" id="path1316"/>
      <path d="m 20516.9,6713.6 h -33.2 v 1134.2 h 33.2 V 6713.6" style="fill:#100f0d;fill-opacity:1;fill-rule:nonzero;stroke:none" id="path1318"/>
      <path d="m 20648.3,6713.6 h -33.2 v 1134.2 h 33.2 V 6713.6" style="fill:#100f0d;fill-opacity:1;fill-rule:nonzero;stroke:none" id="path1320"/>
      <path d="m 21114.1,6713.6 h -33.2 v 1134.2 h 33.2 V 6713.6" style="fill:#100f0d;fill-opacity:1;fill-rule:nonzero;stroke:none" id="path1322"/>
      <path d="m 21245.1,6713.6 h -33.2 v 1134.2 h 33.2 V 6713.6" style="fill:#100f0d;fill-opacity:1;fill-rule:nonzero;stroke:none" id="path1324"/>
      <path d="m 21315.4,6713.6 h -33.1 v 1134.2 h 33.1 V 6713.6" style="fill:#100f0d;fill-opacity:1;fill-rule:nonzero;stroke:none" id="path1326"/>
      <path d="m 21517.3,6713.6 h -33.2 v 1134.2 h 33.2 V 6713.6" style="fill:#100f0d;fill-opacity:1;fill-rule:nonzero;stroke:none" id="path1328"/>
      <path d="m 21647.8,6713.6 h -33.1 v 1134.2 h 33.1 V 6713.6" style="fill:#100f0d;fill-opacity:1;fill-rule:nonzero;stroke:none" id="path1330"/>
      <path d="m 21715.1,6713.6 h -33.2 v 1134.2 h 33.2 V 6713.6" style="fill:#100f0d;fill-opacity:1;fill-rule:nonzero;stroke:none" id="path1332"/>
      <path d="m 21917.4,6713.6 h -33.1 v 1134.2 h 33.1 V 6713.6" style="fill:#100f0d;fill-opacity:1;fill-rule:nonzero;stroke:none" id="path1334"/>
      <path d="m 22180.4,6713.6 h -33.2 v 1134.2 h 33.2 V 6713.6" style="fill:#100f0d;fill-opacity:1;fill-rule:nonzero;stroke:none" id="path1336"/>
      <path d="m 22249.8,6713.6 h -33.1 v 1134.2 h 33.1 V 6713.6" style="fill:#100f0d;fill-opacity:1;fill-rule:nonzero;stroke:none" id="path1338"/>
      <path d="m 22379.2,6713.6 h -94 v 1134.2 h 94 V 6713.6" style="fill:#100f0d;fill-opacity:1;fill-rule:nonzero;stroke:none" id="path1340"/>
      <path d="m 22511.5,6713.6 h -93.8 v 1134.2 h 93.8 V 6713.6" style="fill:#100f0d;fill-opacity:1;fill-rule:nonzero;stroke:none" id="path1342"/>
      <path d="m 22644.7,6713.6 h -93.9 v 1134.2 h 93.9 V 6713.6" style="fill:#100f0d;fill-opacity:1;fill-rule:nonzero;stroke:none" id="path1344"/>
      <path d="m 22777.9,6713.6 h -33.9 v 1134.2 h 33.9 V 6713.6" style="fill:#100f0d;fill-opacity:1;fill-rule:nonzero;stroke:none" id="path1346"/>
      <path d="m 22847.4,6713.6 h -34.1 v 1134.2 h 34.1 V 6713.6" style="fill:#100f0d;fill-opacity:1;fill-rule:nonzero;stroke:none" id="path1348"/>
      <path d="m 22918.2,6713.6 h -34 v 1134.2 h 34 V 6713.6" style="fill:#100f0d;fill-opacity:1;fill-rule:nonzero;stroke:none" id="path1350"/>
      <path d="m 23119.5,6713.6 h -34 v 1134.2 h 34 V 6713.6" style="fill:#100f0d;fill-opacity:1;fill-rule:nonzero;stroke:none" id="path1352"/>
      <path d="m 23381.5,6713.6 h -33.9 v 1134.2 h 33.9 V 6713.6" style="fill:#100f0d;fill-opacity:1;fill-rule:nonzero;stroke:none" id="path1354"/>
      <path d="m 23451.5,6713.6 h -34.1 v 1134.2 h 34.1 V 6713.6" style="fill:#100f0d;fill-opacity:1;fill-rule:nonzero;stroke:none" id="path1356"/>
      <path d="m 23521.4,6713.6 h -34 v 1134.2 h 34 V 6713.6" style="fill:#100f0d;fill-opacity:1;fill-rule:nonzero;stroke:none" id="path1358"/>
      <path d="m 23651.5,6713.6 h -95.1 v 1134.2 h 95.1 V 6713.6" style="fill:#100f0d;fill-opacity:1;fill-rule:nonzero;stroke:none" id="path1360"/>
      <path d="m 23845,6713.6 h -95.1 v 1134.2 h 95.1 V 6713.6" style="fill:#100f0d;fill-opacity:1;fill-rule:nonzero;stroke:none" id="path1362"/>
      <path d="m 23917.9,6713.6 h -34.4 v 1134.2 h 34.4 V 6713.6" style="fill:#100f0d;fill-opacity:1;fill-rule:nonzero;stroke:none" id="path1364"/>
      <path d="m 23988.2,6713.6 h -34.4 v 1134.2 h 34.4 V 6713.6" style="fill:#100f0d;fill-opacity:1;fill-rule:nonzero;stroke:none" id="path1366"/>
      <path d="m 24126.3,6713.6 h -34.4 v 1134.2 h 34.4 V 6713.6" style="fill:#100f0d;fill-opacity:1;fill-rule:nonzero;stroke:none" id="path1368"/>
      <path d="m 24257.9,6713.6 h -34.6 v 1134.2 h 34.6 V 6713.6" style="fill:#100f0d;fill-opacity:1;fill-rule:nonzero;stroke:none" id="path1370"/>
      <path d="m 24594.5,6713.6 h -34.4 v 1134.2 h 34.4 V 6713.6" style="fill:#100f0d;fill-opacity:1;fill-rule:nonzero;stroke:none" id="path1372"/>
      <path d="m 24727.3,6713.6 h -34.5 v 1134.2 h 34.5 V 6713.6" style="fill:#100f0d;fill-opacity:1;fill-rule:nonzero;stroke:none" id="path1374"/>
      <path d="m 25058.4,6713.6 h -34.5 v 1134.2 h 34.5 V 6713.6" style="fill:#100f0d;fill-opacity:1;fill-rule:nonzero;stroke:none" id="path1376"/>
      <path d="m 24390.5,6713.6 h -95.6 v 1134.2 h 95.6 V 6713.6" style="fill:#100f0d;fill-opacity:1;fill-rule:nonzero;stroke:none" id="path1378"/>
      <path d="m 24522.4,6713.6 h -95.5 v 1134.2 h 95.5 V 6713.6" style="fill:#100f0d;fill-opacity:1;fill-rule:nonzero;stroke:none" id="path1380"/>
      <path d="m 24857.4,6713.6 h -95.4 v 1134.2 h 95.4 V 6713.6" style="fill:#100f0d;fill-opacity:1;fill-rule:nonzero;stroke:none" id="path1382"/>
      <path d="m 24988.9,6713.6 h -95.6 v 1134.2 h 95.6 V 6713.6" style="fill:#100f0d;fill-opacity:1;fill-rule:nonzero;stroke:none" id="path1384"/>
      <path d="m 23047,6713.6 h -94.7 v 1134.2 h 94.7 V 6713.6" style="fill:#100f0d;fill-opacity:1;fill-rule:nonzero;stroke:none" id="path1386"/>
      <path d="m 23312.1,6713.6 h -94.7 v 1134.2 h 94.7 V 6713.6" style="fill:#100f0d;fill-opacity:1;fill-rule:nonzero;stroke:none" id="path1388"/>
      <path d="m 22048.9,6713.6 h -96.4 v 1134.2 h 96.4 V 6713.6" style="fill:#100f0d;fill-opacity:1;fill-rule:nonzero;stroke:none" id="path1390"/>
      <path d="m 21847.1,6713.6 h -94.3 v 1134.2 h 94.3 V 6713.6" style="fill:#100f0d;fill-opacity:1;fill-rule:nonzero;stroke:none" id="path1392"/>
      <path d="m 21448.2,6713.6 h -97.3 v 1134.2 h 97.3 V 6713.6" style="fill:#100f0d;fill-opacity:1;fill-rule:nonzero;stroke:none" id="path1394"/>
      <path d="m 20778.9,6713.6 h -95.1 v 1134.2 h 95.1 V 6713.6" style="fill:#100f0d;fill-opacity:1;fill-rule:nonzero;stroke:none" id="path1396"/>
      <path d="m 20911.7,6713.6 h -95.1 v 1134.2 h 95.1 V 6713.6" style="fill:#100f0d;fill-opacity:1;fill-rule:nonzero;stroke:none" id="path1398"/>
      <path d="m 21043.7,6713.6 h -95.2 v 1134.2 h 95.2 V 6713.6" style="fill:#100f0d;fill-opacity:1;fill-rule:nonzero;stroke:none" id="path1400"/>
      <path d="m 20447.4,6713.6 h -95.6 v 1134.2 h 95.6 V 6713.6" style="fill:#100f0d;fill-opacity:1;fill-rule:nonzero;stroke:none" id="path1402"/>
      <path d="m 20245.1,6713.6 h -95.5 v 1134.2 h 95.5 V 6713.6" style="fill:#100f0d;fill-opacity:1;fill-rule:nonzero;stroke:none" id="path1404"/>
      <path d="m 19643.6,6713.6 h -93.5 v 1134.2 h 93.5 V 6713.6" style="fill:#100f0d;fill-opacity:1;fill-rule:nonzero;stroke:none" id="path1406"/>
      <path d="m 19844.1,6713.6 h -93.4 v 1134.2 h 93.4 V 6713.6" style="fill:#100f0d;fill-opacity:1;fill-rule:nonzero;stroke:none" id="path1408"/>
      <path d="m 19511.7,6713.6 h -92.1 v 1134.2 h 92.1 V 6713.6" style="fill:#100f0d;fill-opacity:1;fill-rule:nonzero;stroke:none" id="path1410"/>
      <path d="m 19325,8620.3 c 0,-94.1 11,-156.8 33,-187.9 22,-31.3 49.2,-46.8 81.5,-46.8 32.3,0 59.6,15.7 81.6,46.9 22,31.3 33.1,94 33.1,187.8 0,94.4 -11.1,157.1 -33.1,188.2 -22,30.9 -49.5,46.4 -82.3,46.4 -32.3,0 -58.2,-13.7 -77.4,-41.1 -24.3,-34.8 -36.4,-99.4 -36.4,-193.5 z m -72.4,0 c 0,67.7 6.9,122.2 20.9,163.6 14,41.4 34.7,73.3 62.2,95.6 27.4,22.5 62.1,33.6 103.8,33.6 30.8,0 57.8,-6.1 81,-18.4 23.2,-12.4 42.3,-30.2 57.5,-53.6 15.1,-23.4 26.9,-51.8 35.6,-85.3 8.6,-33.5 12.9,-78.6 12.9,-135.5 0,-67.3 -7,-121.7 -20.7,-162.9 -13.9,-41.4 -34.5,-73.3 -62.1,-95.9 -27.5,-22.5 -62.2,-33.8 -104.2,-33.8 -55.2,0 -98.7,19.8 -130.3,59.4 -37.7,47.8 -56.6,125.5 -56.6,233.2" style="fill:#100f0d;fill-opacity:1;fill-rule:nonzero;stroke:none" id="path1412"/>
      <path d="m 19770.4,8620.3 c 0,-94.1 11,-156.8 33.1,-187.9 21.9,-31.3 49.2,-46.8 81.5,-46.8 32.3,0 59.6,15.7 81.6,46.9 22,31.3 33,94 33,187.8 0,94.4 -11,157.1 -33,188.2 -22,30.9 -49.5,46.4 -82.4,46.4 -32.3,0 -58.2,-13.7 -77.4,-41.1 -24.2,-34.8 -36.4,-99.4 -36.4,-193.5 z m -72.3,0 c 0,67.7 6.9,122.2 20.9,163.6 13.9,41.4 34.7,73.3 62.1,95.6 27.5,22.5 62.2,33.6 103.9,33.6 30.8,0 57.8,-6.1 81,-18.4 23.2,-12.4 42.3,-30.2 57.5,-53.6 15.1,-23.4 26.9,-51.8 35.5,-85.3 8.7,-33.5 13,-78.6 13,-135.5 0,-67.3 -7,-121.7 -20.8,-162.9 -13.8,-41.4 -34.4,-73.3 -62,-95.9 -27.5,-22.5 -62.2,-33.8 -104.2,-33.8 -55.2,0 -98.7,19.8 -130.3,59.4 -37.7,47.8 -56.6,125.5 -56.6,233.2" style="fill:#100f0d;fill-opacity:1;fill-rule:nonzero;stroke:none" id="path1414"/>
      <path d="m 20148.2,8835.7 v 67.8 h 371.2 v -54.8 c -36.5,-38.9 -72.7,-90.5 -108.5,-154.9 -35.9,-64.4 -63.6,-130.7 -83.1,-198.7 -14.2,-48 -23.2,-100.5 -27,-157.6 h -72.4 c 0.8,45.2 9.6,99.7 26.6,163.5 17,63.9 41.2,125.5 72.9,184.8 31.7,59.3 65.4,109.3 101.1,149.9 h -280.8" style="fill:#100f0d;fill-opacity:1;fill-rule:nonzero;stroke:none" id="path1416"/>
      <path d="m 20814.7,8539.3 v 258.5 l -179.5,-258.5 z m 0,-201.8 v 137.3 h -248.8 v 64.5 l 261.7,371.6 h 57.5 v -371.6 h 77.4 v -64.5 h -77.4 v -137.3 h -70.4" style="fill:#100f0d;fill-opacity:1;fill-rule:nonzero;stroke:none" id="path1418"/>
      <path d="m 21059.9,8337.5 v 573.4 h 75.8 v -284.4 l 284.7,284.4 h 103 l -240.6,-232.4 251.1,-341 h -100.2 l -204.1,290.2 -93.9,-91.5 v -198.7 h -75.8" style="fill:#100f0d;fill-opacity:1;fill-rule:nonzero;stroke:none" id="path1420"/>
      <path d="m 21594.1,8337.5 v 573.4 h 75.9 v -505.8 h 282.3 v -67.6 h -358.2" style="fill:#100f0d;fill-opacity:1;fill-rule:nonzero;stroke:none" id="path1422"/>
      <path d="m 22463.6,8835.7 v 67.8 h 371.2 v -54.8 c -36.6,-38.9 -72.7,-90.5 -108.6,-154.9 -35.8,-64.4 -63.5,-130.7 -83.1,-198.7 -14.1,-48 -23.1,-100.5 -27,-157.6 h -72.4 c 0.8,45.2 9.7,99.7 26.7,163.5 16.9,63.9 41.2,125.5 72.9,184.8 31.7,59.3 65.4,109.3 101.1,149.9 h -280.8" style="fill:#100f0d;fill-opacity:1;fill-rule:nonzero;stroke:none" id="path1424"/>
      <path d="m 22909.1,8835.7 v 67.8 h 371.2 v -54.8 c -36.7,-38.9 -72.8,-90.5 -108.6,-154.9 -35.9,-64.4 -63.6,-130.7 -83.1,-198.7 -14.1,-48 -23.2,-100.5 -27.1,-157.6 h -72.3 c 0.8,45.2 9.7,99.7 26.6,163.5 17,63.9 41.3,125.5 73,184.8 31.6,59.3 65.4,109.3 101.1,149.9 h -280.8" style="fill:#100f0d;fill-opacity:1;fill-rule:nonzero;stroke:none" id="path1426"/>
      <path d="m 23575.5,8539.3 v 258.5 l -179.6,-258.5 z m 0,-201.8 v 137.3 h -248.8 v 64.5 l 261.7,371.6 h 57.5 v -371.6 h 77.4 v -64.5 h -77.4 v -137.3 h -70.4" style="fill:#100f0d;fill-opacity:1;fill-rule:nonzero;stroke:none" id="path1428"/>
      <path d="m 24165.3,8405.1 v -67.6 h -379 c -0.6,16.9 2.2,33.2 8.2,48.9 9.6,25.9 25.1,51.2 46.3,76.2 21.3,25.2 52,54.1 92.2,86.8 62.2,51.2 104.4,91.6 126.2,121.5 21.9,29.8 32.9,58.1 32.9,84.7 0,27.9 -9.9,51.4 -29.9,70.6 -19.9,19.2 -46,28.7 -78,28.7 -33.9,0 -61,-10.1 -81.4,-30.5 -20.3,-20.4 -30.6,-48.4 -30.9,-84.4 l -72.3,7.3 c 4.9,54 23.5,95.1 55.9,123.4 32.4,28.3 75.7,42.4 130.2,42.4 55.1,0 98.6,-15.1 130.7,-45.7 32,-30.5 48.1,-68.3 48.1,-113.4 0,-22.9 -4.8,-45.4 -14.1,-67.6 -9.4,-22.2 -25,-45.6 -46.8,-70 -21.7,-24.6 -57.9,-58.2 -108.5,-100.9 -42.2,-35.5 -69.3,-59.6 -81.3,-72.2 -12,-12.7 -21.9,-25.4 -29.7,-38.2 h 281.2" style="fill:#100f0d;fill-opacity:1;fill-rule:nonzero;stroke:none" id="path1430"/>
      <path d="m 24318.6,8523.4 c 0,-24.3 5.2,-47.5 15.4,-69.7 10.4,-22.2 24.7,-39 43.3,-50.7 18.4,-11.6 37.9,-17.4 58.2,-17.4 29.8,0 55.2,12.1 76.7,36.1 21.3,23.9 32,56.5 32,97.6 0,39.6 -10.5,70.9 -31.7,93.7 -21,22.9 -47.7,34.2 -79.7,34.2 -31.9,0 -58.8,-11.3 -81,-34.2 -22.2,-22.8 -33.2,-52.7 -33.2,-89.6 z m 287.4,247.1 -70,-5.5 c -6.3,27.6 -15.1,47.6 -26.5,60.1 -19.1,20.2 -42.6,30.1 -70.4,30.1 -22.5,0 -42.2,-6.2 -59.1,-18.7 -22.2,-16.1 -39.6,-39.6 -52.5,-70.8 -12.7,-31.1 -19.3,-75.1 -19.9,-132.6 17,25.9 37.7,44.9 62.2,57.6 24.5,12.5 50.2,18.8 77.1,18.8 47,0 86.9,-17.3 119.8,-51.9 33,-34.5 49.5,-79.2 49.5,-133.9 0,-35.9 -7.8,-69.4 -23.3,-100.4 -15.5,-30.8 -36.8,-54.5 -63.9,-70.9 -27.1,-16.5 -57.9,-24.7 -92.3,-24.7 -58.7,0 -106.5,21.6 -143.5,64.8 -37,43.2 -55.6,114.2 -55.6,213.3 0,110.8 20.5,191.4 61.4,241.7 35.7,43.8 83.8,65.6 144.4,65.6 45,0 82,-12.6 110.8,-37.8 28.8,-25.3 46.1,-60.3 51.8,-104.8" style="fill:#100f0d;fill-opacity:1;fill-rule:nonzero;stroke:none" id="path1432"/>
      <path d="m 24780.5,8767.7 c 0,-27.1 8.7,-49.3 26.2,-66.4 17.4,-17.3 40.1,-25.9 68,-25.9 27.1,0 49.3,8.6 66.7,25.6 17.3,17.1 25.9,38.1 25.9,62.8 0,25.8 -8.9,47.5 -26.7,65.1 -17.9,17.7 -40.1,26.3 -66.7,26.3 -26.9,0 -49.1,-8.5 -66.9,-25.7 -17.7,-17.2 -26.5,-37.8 -26.5,-61.8 z m -22.7,-264.7 c 0,-20.1 4.7,-39.5 14.2,-58.4 9.5,-18.8 23.7,-33.2 42.4,-43.5 18.8,-10.4 39,-15.5 60.7,-15.5 33.6,0 61.4,10.8 83.3,32.5 21.9,21.6 32.9,49.1 32.9,82.5 0,33.9 -11.3,61.9 -33.9,84.1 -22.5,22.2 -50.7,33.2 -84.6,33.2 -33.2,0 -60.6,-10.9 -82.4,-32.9 -21.8,-21.9 -32.6,-49.1 -32.6,-82 z m 36.7,145.4 c -29.2,10.7 -50.8,25.9 -64.9,45.7 -14.1,19.8 -21.1,43.7 -21.1,71.2 0,41.7 14.9,76.8 44.9,105.3 30,28.4 69.9,42.5 119.7,42.5 50.1,0 90.3,-14.4 120.9,-43.4 30.5,-29.2 45.8,-64.5 45.8,-106.3 0,-26.5 -7,-49.8 -21,-69.4 -14,-19.7 -35.1,-34.9 -63.5,-45.6 35.2,-11.4 61.9,-29.9 80.4,-55.5 18.3,-25.6 27.5,-56.1 27.5,-91.6 0,-49 -17.3,-90.2 -52,-123.6 -34.6,-33.3 -80.4,-50 -136.9,-50 -56.6,0 -102.2,16.8 -136.9,50.3 -34.7,33.5 -52,75.2 -52,125.3 0,37.3 9.5,68.4 28.4,93.8 18.9,25 45.8,42.2 80.7,51.3" style="fill:#100f0d;fill-opacity:1;fill-rule:nonzero;stroke:none" id="path1434"/>
      <path d="m 26132.8,8620.3 c 0,-94.1 11,-156.8 33.1,-187.9 22,-31.3 49.2,-46.8 81.6,-46.8 32.3,0 59.4,15.7 81.4,46.9 22,31.3 33.1,94 33.1,187.8 0,94.4 -11.1,157.1 -33.1,188.2 -22,30.9 -49.4,46.4 -82.2,46.4 -32.4,0 -58.2,-13.7 -77.5,-41.1 -24.2,-34.8 -36.4,-99.4 -36.4,-193.5 z m -72.3,0 c 0,67.7 7,122.2 21,163.6 13.8,41.4 34.6,73.3 62,95.6 27.6,22.5 62.1,33.6 104,33.6 30.6,0 57.7,-6.1 80.9,-18.4 23.1,-12.4 42.4,-30.2 57.5,-53.6 15.1,-23.4 27,-51.8 35.6,-85.3 8.6,-33.5 12.8,-78.6 12.8,-135.5 0,-67.3 -6.8,-121.7 -20.7,-162.9 -13.8,-41.4 -34.4,-73.3 -61.9,-95.9 -27.5,-22.5 -62.2,-33.8 -104.2,-33.8 -55.4,0 -98.7,19.8 -130.3,59.4 -37.8,47.8 -56.7,125.5 -56.7,233.2" style="fill:#100f0d;fill-opacity:1;fill-rule:nonzero;stroke:none" id="path1436"/>
      <path d="m 26510.6,8835.7 v 67.8 h 371.2 v -54.8 c -36.5,-38.9 -72.7,-90.5 -108.5,-154.9 -35.9,-64.4 -63.5,-130.7 -83.2,-198.7 -14.1,-48 -23.1,-100.5 -26.9,-157.6 h -72.4 c 0.8,45.2 9.7,99.7 26.6,163.5 17,63.9 41.3,125.5 73,184.8 31.6,59.3 65.3,109.3 101,149.9 h -280.8" style="fill:#100f0d;fill-opacity:1;fill-rule:nonzero;stroke:none" id="path1438"/>
      <path d="m 27023.8,8620.3 c 0,-94.1 11,-156.8 33,-187.9 22.1,-31.3 49.2,-46.8 81.5,-46.8 32.4,0 59.5,15.7 81.6,46.9 22,31.3 33,94 33,187.8 0,94.4 -11,157.1 -33,188.2 -22.1,30.9 -49.5,46.4 -82.4,46.4 -32.3,0 -58,-13.7 -77.4,-41.1 -24.3,-34.8 -36.3,-99.4 -36.3,-193.5 z m -72.4,0 c 0,67.7 7,122.2 20.9,163.6 14,41.4 34.6,73.3 62.2,95.6 27.5,22.5 62.1,33.6 103.8,33.6 30.8,0 57.7,-6.1 81,-18.4 23.2,-12.4 42.4,-30.2 57.4,-53.6 15.2,-23.4 27.1,-51.8 35.7,-85.3 8.6,-33.5 12.9,-78.6 12.9,-135.5 0,-67.3 -6.9,-121.7 -20.7,-162.9 -13.9,-41.4 -34.5,-73.3 -62,-95.9 -27.5,-22.5 -62.3,-33.8 -104.3,-33.8 -55.3,0 -98.6,19.8 -130.2,59.4 -37.8,47.8 -56.7,125.5 -56.7,233.2" style="fill:#100f0d;fill-opacity:1;fill-rule:nonzero;stroke:none" id="path1440"/>
      <path d="m 19329.2,15907.4 v 691.4 h 91.5 v -342.9 l 343.4,342.9 h 124 l -290,-280.2 302.7,-411.2 h -120.7 l -246.2,349.8 -113.2,-110.3 v -239.5 h -91.5" style="fill:#100f0d;fill-opacity:1;fill-rule:nonzero;stroke:none" id="path1442"/>
      <path d="m 19973.5,15907.4 v 691.4 h 91.5 v -609.9 h 340.5 v -81.5 h -432" style="fill:#100f0d;fill-opacity:1;fill-rule:nonzero;stroke:none" id="path1444"/>
      <path d="m 21032.4,15907.4 h -84.9 v 540.9 c -20.4,-19.5 -47.2,-39 -80.4,-58.4 -33.2,-19.5 -63,-34.2 -89.4,-43.9 v 82 c 47.5,22.4 88.9,49.5 124.5,81.2 35.6,31.7 60.7,62.5 75.5,92.4 h 54.7 v -694.2" style="fill:#100f0d;fill-opacity:1;fill-rule:nonzero;stroke:none" id="path1446"/>
      <path d="m 21249.9,16088.4 89.1,7.6 c 6.6,-43.5 21.9,-76.1 46,-97.8 24,-21.9 53.1,-32.9 87,-32.9 40.9,0 75.5,15.5 103.8,46.3 28.3,30.8 42.4,71.6 42.4,122.7 0,48.3 -13.6,86.5 -40.8,114.5 -27.2,28 -62.8,41.9 -106.8,41.9 -27.3,0 -52,-6.1 -74.1,-18.6 -22,-12.3 -39.3,-28.4 -51.9,-48.4 l -79.7,10.5 67,355.2 h 343.9 v -81.1 h -276 l -37.2,-185.8 c 41.5,28.8 85,43.3 130.6,43.3 60.4,0 111.3,-20.9 152.9,-62.7 41.5,-41.8 62.2,-95.6 62.2,-161.4 0,-62.5 -18.3,-116.6 -54.7,-162.3 -44.3,-55.8 -104.9,-83.8 -181.6,-83.8 -62.9,0 -114.2,17.6 -154,52.7 -39.9,35.3 -62.5,81.9 -68.1,140.1" style="fill:#100f0d;fill-opacity:1;fill-rule:nonzero;stroke:none" id="path1448"/>
      <path d="m 22147.4,16372.3 c 0,48.9 -12.9,87.4 -38.9,116.2 -25.9,28.6 -57.2,42.9 -93.6,42.9 -37.7,0 -70.6,-15.5 -98.6,-46.2 -28,-31 -42,-70.9 -42,-119.9 0,-44 13.3,-79.8 39.9,-107.3 26.6,-27.6 59.4,-41.2 98.3,-41.2 39.3,0 71.7,13.6 97,41.2 25.3,27.5 37.9,65.6 37.9,114.3 z m -347.5,-305 81.5,7.4 c 6.9,-38.3 20.1,-66.1 39.7,-83.4 19.5,-17.4 44.5,-26 75,-26 26,0 48.9,6.1 68.6,18 19.6,11.9 35.8,27.8 48.3,47.8 12.6,19.9 23.1,47 31.6,81 8.5,33.9 12.7,68.5 12.7,103.8 0,3.7 -0.1,9.3 -0.4,16.9 -17,-27.1 -40.2,-49 -69.5,-65.8 -29.5,-16.8 -61.4,-25.3 -95.6,-25.3 -57.2,0 -105.7,20.9 -145.3,62.2 -39.6,41.6 -59.4,96.4 -59.4,164.3 0,70.1 20.6,126.5 62,169.3 41.4,42.7 93.2,64.1 155.5,64.1 44.9,0 86,-12 123.3,-36.3 37.3,-24.3 65.5,-58.7 84.8,-103.5 19.4,-44.8 29.1,-109.7 29.1,-194.6 0,-88.4 -9.6,-158.7 -28.8,-211.1 -19.2,-52.3 -47.7,-92.2 -85.6,-119.6 -37.9,-27.4 -82.3,-40.9 -133.2,-40.9 -54.1,0 -98.3,14.9 -132.6,45 -34.3,30 -54.9,72.2 -61.7,126.7" style="fill:#100f0d;fill-opacity:1;fill-rule:nonzero;stroke:none" id="path1450"/>
      <path d="m 22770.5,15988.9 v -81.5 h -457 c -0.6,20.4 2.6,40 9.8,58.9 11.7,31.1 30.4,61.8 56,91.9 25.6,30.2 62.6,65.2 111.1,104.8 75.1,61.6 125.9,110.5 152.3,146.4 26.4,36 39.6,70.1 39.6,102.1 0,33.6 -12,62.1 -36,85.2 -24.1,23 -55.5,34.7 -94.1,34.7 -40.9,0 -73.6,-12.3 -98.1,-36.8 -24.6,-24.6 -37,-58.5 -37.3,-101.9 l -87.3,9 c 6,65 28.5,114.6 67.5,148.7 38.9,34.1 91.3,51.2 157,51.2 66.4,0 118.9,-18.4 157.6,-55.2 38.6,-36.8 58,-82.3 58,-136.7 0,-27.7 -5.7,-54.9 -17,-81.6 -11.3,-26.8 -30.1,-54.9 -56.4,-84.4 -26.2,-29.6 -69.9,-70.1 -130.9,-121.8 -50.9,-42.7 -83.6,-71.8 -98,-86.9 -14.6,-15.4 -26.5,-30.7 -35.9,-46.1 h 339.1" style="fill:#100f0d;fill-opacity:1;fill-rule:nonzero;stroke:none" id="path1452"/>
      
      
      
      
      
      <path d="m 19224.7,18007.9 h -496 v -185.2 h -66.3 v 445.6 h 66.3 v -186.1 h 496 v -74.3" style="fill:#100f0d;fill-opacity:1;fill-rule:nonzero;stroke:none" id="path1464"/>
      <path d="m 18951.9,18384.4 c 67.7,0 121.2,18.2 160.1,54.7 39.1,36.4 58.6,82.2 58.6,137.1 0,56 -19.7,102 -59.1,138.2 -39.4,36.3 -95.3,54.3 -167.6,54.3 -45.8,0 -85.7,-7.7 -119.9,-23.2 -34.1,-15.5 -60.5,-38.1 -79.3,-67.9 -18.9,-29.8 -28.3,-63.1 -28.3,-100.2 0,-52.7 18.1,-98.1 54.3,-136 36.2,-38.1 96.6,-57 181.2,-57 z m -1,-76.7 c -93.5,0 -166.5,25.1 -219.3,75.1 -52.8,50.2 -79.2,114.8 -79.2,194.1 0,52 12.5,98.7 37.2,140.4 24.8,41.7 59.4,73.4 103.7,95.3 44.4,21.9 94.7,32.8 150.9,32.8 57.1,0 108.1,-11.5 153.1,-34.6 45,-22.9 79.1,-55.5 102.2,-97.8 23.1,-42.1 34.7,-87.5 34.7,-136.5 0,-52.9 -12.8,-100.2 -38.3,-141.8 -25.6,-41.6 -60.5,-73.4 -104.8,-94.8 -44.2,-21.4 -91,-32.2 -140.2,-32.2" style="fill:#100f0d;fill-opacity:1;fill-rule:nonzero;stroke:none" id="path1466"/>
      <path d="m 27240,18194.1 v -76.8 h -489 c 17.6,-18.4 35.3,-42.7 52.9,-72.6 17.5,-30 30.8,-56.9 39.6,-80.7 h -74.2 c -20.1,42.8 -44.6,80.4 -73.2,112.4 -28.8,32.1 -56.6,54.9 -83.7,68.2 v 49.5 h 627.6" style="fill:#ffffff;fill-opacity:1;fill-rule:nonzero;stroke:none" id="path1468"/>
      <path d="m 26696.8,18395.7 h -73.7 v 404.6 h 59.7 c 42.3,-39.8 98.6,-79.2 168.9,-118.4 70.1,-39 142.3,-69.2 216.4,-90.5 52.3,-15.4 109.6,-25.2 171.9,-29.5 v -78.8 c -49.2,0.8 -108.6,10.5 -178.3,28.9 -69.6,18.5 -136.6,45 -201.4,79.5 -64.6,34.6 -119.1,71.3 -163.5,110.2 v -306" style="fill:#ffffff;fill-opacity:1;fill-rule:nonzero;stroke:none" id="path1470"/>
      <path d="m 27019.9,19122 h -281.7 l 281.7,-195.6 z m 220.1,0 h -149.7 v -271.1 h -70.4 l -404.8,285.3 v 62.5 h 404.8 v 84.4 h 70.4 v -84.4 h 149.7 v -76.7" style="fill:#ffffff;fill-opacity:1;fill-rule:nonzero;stroke:none" id="path1472"/>
      <path d="m 26931.8,19440.5 c 102.5,0 170.7,11.9 204.7,36 34.1,24 51,53.6 51,88.9 0,35.1 -17.1,64.8 -51.2,88.9 -34.1,24 -102.2,36 -204.5,36 -102.9,0 -171.3,-12 -205.1,-36 -33.8,-24.1 -50.7,-54.1 -50.7,-89.8 0,-35.3 14.9,-63.4 44.8,-84.4 38,-26.4 108.4,-39.6 211,-39.6 z m 0,-78.9 c -73.9,0 -133.4,7.6 -178.4,22.8 -45.1,15.1 -79.8,37.8 -104.2,67.8 -24.4,30 -36.8,67.6 -36.8,113.2 0,33.5 6.8,62.8 20.2,88.1 13.6,25.4 33.1,46.2 58.6,62.7 25.4,16.6 56.4,29.5 92.9,38.9 36.4,9.4 85.7,14 147.7,14 73.2,0 132.5,-7.5 177.4,-22.6 45.1,-15.1 80,-37.6 104.6,-67.5 24.5,-30.1 36.7,-67.9 36.7,-113.6 0,-60.3 -21.6,-107.6 -64.7,-142 -52,-41.1 -136.7,-61.8 -254,-61.8" style="fill:#ffffff;fill-opacity:1;fill-rule:nonzero;stroke:none" id="path1474"/>
      <path d="m 26435.6,16873.3 h -7106.4 v 4258.3 h 7106.4 v -4258.3" style="fill:#100f0d;fill-opacity:1;fill-rule:nonzero;stroke:none" id="path1476"/>
      
      
      
      <path d="m 17402.4,13538 v 76.5 h 11031 v -76.5 h -11031" style="fill:#503d3f;fill-opacity:1;fill-rule:nonzero;stroke:none" id="path1484"/>
      <path d="m 17402.3,24605.7 v 76.1 h 11031 v -76.1 h -11031" style="fill:#503d3f;fill-opacity:1;fill-rule:nonzero;stroke:none" id="path1486"/>
      <path d="m 22411.1,25862.8 83.8,43.9 156.4,-66.7 167.1,58.4 -389.3,349.4 111.6,48 565.7,-296.7 342.3,119.8 c 34.9,12.2 73.1,-6.3 85.3,-41.1 12.2,-35 -6.1,-73.2 -41.1,-85.3 l -867.8,-303.6 -44.1,-16.8 -169.9,190.7" style="fill:#100f0d;fill-opacity:1;fill-rule:nonzero;stroke:none" id="path1488"/>
      <path d="m 28433.5,796.602 h -11031 V 2118 h 11031 V 796.602" style="fill:#100f0d;fill-opacity:1;fill-rule:nonzero;stroke:none" id="path1490"/>
    </g>
  </g>
</svg>