<svg xmlns="http://www.w3.org/2000/svg" xmlns:xlink="http://www.w3.org/1999/xlink" version="1.1" id="Layer_1" x="0px" y="0px" viewBox="155 45 200 200" style="enable-background:new 0 0 512 512;" xml:space="preserve">
<style type="text/css">
	.st0{clip-path:url(#SVGID_2_);}
	.st1{fill:#CD4F57;}
	.st2{fill:#5B5B5A;}
	.st3{fill:#F8F0EA;}
	.st4{fill:#515151;}
	.st5{fill:#212121;}
	.st6{clip-path:url(#SVGID_4_);}
	.st7{fill:#068C88;}
</style>
<g>
	<g>
		<defs>
			<path id="SVGID_1_" d="M427.9,223.6H81.1c-8.9,0-16.1-7.2-16.1-16.1V84.1C65,75.3,72.2,68,81.1,68h346.8     c8.9,0,16.1,7.2,16.1,16.1v123.4C444,216.4,436.8,223.6,427.9,223.6z"/>
		</defs>
		<use xlink:href="#SVGID_1_" style="overflow:visible;fill:#F7ECE4;"/>
		<clipPath id="SVGID_2_">
			<use xlink:href="#SVGID_1_" style="overflow:visible;"/>
		</clipPath>
		<g class="st0">
			<rect x="49.8" y="42.1" class="st1" width="409.8" height="67.9"/>
		</g>
	</g>
	<g>
		<g>
			<rect x="332.4" y="68" class="st2" width="0.3" height="1.4"/>
		</g>
		<g>
			<path class="st2" d="M332.7,219.5h-0.3v-2.8h0.3V219.5z M332.7,213.9h-0.3v-2.8h0.3V213.9z M332.7,208.3h-0.3v-2.8h0.3V208.3z      M332.7,202.8h-0.3V200h0.3V202.8z M332.7,197.2h-0.3v-2.8h0.3V197.2z M332.7,191.7h-0.3v-2.8h0.3V191.7z M332.7,186.1h-0.3v-2.8     h0.3V186.1z M332.7,180.6h-0.3v-2.8h0.3V180.6z M332.7,175h-0.3v-2.8h0.3V175z M332.7,169.4h-0.3v-2.8h0.3V169.4z M332.7,163.9     h-0.3v-2.8h0.3V163.9z M332.7,158.3h-0.3v-2.8h0.3V158.3z M332.7,152.8h-0.3V150h0.3V152.8z M332.7,147.2h-0.3v-2.8h0.3V147.2z      M332.7,141.7h-0.3v-2.8h0.3V141.7z M332.7,136.1h-0.3v-2.8h0.3V136.1z M332.7,130.5h-0.3v-2.8h0.3V130.5z M332.7,125h-0.3v-2.8     h0.3V125z M332.7,119.4h-0.3v-2.8h0.3V119.4z M332.7,113.9h-0.3v-2.8h0.3V113.9z M332.7,108.3h-0.3v-2.8h0.3V108.3z M332.7,102.8     h-0.3V100h0.3V102.8z M332.7,97.2h-0.3v-2.8h0.3V97.2z M332.7,91.6h-0.3v-2.8h0.3V91.6z M332.7,86.1h-0.3v-2.8h0.3V86.1z      M332.7,80.5h-0.3v-2.8h0.3V80.5z M332.7,75h-0.3v-2.8h0.3V75z"/>
		</g>
		<g>
			<rect x="332.4" y="222.2" class="st2" width="0.3" height="1.4"/>
		</g>
	</g>
	<g>
		<path class="st3" d="M140.5,91.4c0.3,0.4,0.5,0.9,0.5,1.4c0,0.4-0.1,0.8-0.3,1.2c-0.2,0.4-0.6,0.6-1,0.8c-0.4,0.2-0.9,0.3-1.5,0.3    h-3.5v-8.7h3.3c0.6,0,1.1,0.1,1.5,0.3c0.4,0.2,0.7,0.5,1,0.8c0.2,0.3,0.3,0.7,0.3,1.1c0,0.5-0.1,0.9-0.4,1.2    c-0.3,0.3-0.6,0.6-1.1,0.7C139.7,90.8,140.1,91,140.5,91.4z M136.1,90.1h1.8c0.5,0,0.8-0.1,1.1-0.3c0.3-0.2,0.4-0.5,0.4-0.9    c0-0.4-0.1-0.7-0.4-0.9c-0.3-0.2-0.6-0.3-1.1-0.3h-1.8V90.1z M139.1,93.7c0.3-0.2,0.4-0.6,0.4-1c0-0.4-0.1-0.8-0.4-1    c-0.3-0.2-0.7-0.4-1.2-0.4h-1.9V94h1.9C138.5,94,138.8,93.9,139.1,93.7z"/>
		<path class="st3" d="M146.7,94.7c-0.7-0.4-1.2-0.9-1.6-1.6c-0.4-0.7-0.6-1.4-0.6-2.3c0-0.8,0.2-1.6,0.6-2.3    c0.4-0.7,0.9-1.2,1.6-1.6c0.7-0.4,1.4-0.6,2.2-0.6c0.8,0,1.6,0.2,2.2,0.6c0.7,0.4,1.2,0.9,1.6,1.6c0.4,0.7,0.6,1.4,0.6,2.3    c0,0.8-0.2,1.6-0.6,2.3c-0.4,0.7-0.9,1.2-1.6,1.6c-0.7,0.4-1.4,0.6-2.2,0.6C148.1,95.2,147.4,95.1,146.7,94.7z M150.5,93.6    c0.4-0.3,0.8-0.6,1.1-1.1c0.3-0.5,0.4-1.1,0.4-1.7c0-0.6-0.1-1.2-0.4-1.7c-0.3-0.5-0.6-0.9-1.1-1.1c-0.4-0.3-1-0.4-1.5-0.4    s-1.1,0.1-1.5,0.4c-0.4,0.3-0.8,0.6-1.1,1.1c-0.3,0.5-0.4,1-0.4,1.7c0,0.6,0.1,1.2,0.4,1.7c0.3,0.5,0.6,0.9,1.1,1.1    c0.4,0.3,1,0.4,1.5,0.4S150,93.9,150.5,93.6z"/>
		<path class="st3" d="M162.5,93.4h-3.6l-0.6,1.8h-1.5l3.1-8.7h1.6l3.1,8.7h-1.5L162.5,93.4z M162.1,92.2l-1.4-4l-1.4,4H162.1z"/>
		<path class="st3" d="M173,95.2l-2-3.5h-1.1v3.5h-1.4v-8.7h3c0.7,0,1.2,0.1,1.7,0.3c0.5,0.2,0.8,0.5,1,0.9c0.2,0.4,0.3,0.8,0.3,1.3    c0,0.6-0.2,1.1-0.5,1.5c-0.3,0.5-0.8,0.8-1.5,0.9l2.1,3.6H173z M169.9,90.6h1.6c0.5,0,0.9-0.1,1.2-0.4c0.3-0.3,0.4-0.6,0.4-1.1    c0-0.4-0.1-0.8-0.4-1.1c-0.3-0.3-0.7-0.4-1.2-0.4h-1.6V90.6z"/>
		<path class="st3" d="M184.1,87c0.7,0.4,1.2,0.9,1.6,1.5c0.4,0.7,0.6,1.4,0.6,2.3c0,0.9-0.2,1.6-0.6,2.3c-0.4,0.6-0.9,1.1-1.6,1.5    c-0.7,0.3-1.5,0.5-2.4,0.5h-2.8v-8.7h2.8C182.6,86.5,183.4,86.7,184.1,87z M184,93.2c0.5-0.5,0.8-1.3,0.8-2.3c0-1-0.3-1.8-0.8-2.4    c-0.5-0.6-1.3-0.8-2.3-0.8h-1.4V94h1.4C182.7,94,183.5,93.7,184,93.2z"/>
		<path class="st3" d="M191.6,86.5v8.7h-1.4v-8.7H191.6z"/>
		<path class="st3" d="M203.2,95.2h-1.4l-4.3-6.5v6.5H196v-8.7h1.4l4.3,6.5v-6.5h1.4V95.2z"/>
		<path class="st3" d="M213.8,89c-0.2-0.4-0.5-0.8-0.9-1c-0.4-0.2-0.9-0.3-1.4-0.3c-0.6,0-1.1,0.1-1.5,0.4c-0.4,0.3-0.8,0.6-1.1,1.1    c-0.3,0.5-0.4,1-0.4,1.6c0,0.6,0.1,1.2,0.4,1.7c0.3,0.5,0.6,0.8,1.1,1.1c0.4,0.3,1,0.4,1.5,0.4c0.8,0,1.4-0.2,1.9-0.6    c0.5-0.4,0.8-1,0.9-1.8H211v-1.1h4.8v1.1c-0.1,0.7-0.3,1.3-0.7,1.9c-0.4,0.6-0.9,1-1.5,1.4c-0.6,0.3-1.3,0.5-2.1,0.5    c-0.8,0-1.6-0.2-2.2-0.6c-0.7-0.4-1.2-0.9-1.6-1.6c-0.4-0.7-0.6-1.4-0.6-2.3c0-0.8,0.2-1.6,0.6-2.3c0.4-0.7,0.9-1.2,1.6-1.6    c0.7-0.4,1.4-0.6,2.2-0.6c0.9,0,1.7,0.2,2.5,0.7c0.7,0.5,1.2,1.1,1.6,1.9H213.8z"/>
		<path class="st3" d="M231.2,90.3c-0.2,0.4-0.5,0.7-1,1c-0.5,0.2-1,0.4-1.8,0.4h-1.6v3.5h-1.4v-8.7h3c0.7,0,1.2,0.1,1.7,0.3    c0.5,0.2,0.8,0.5,1,0.9c0.2,0.4,0.3,0.8,0.3,1.3C231.5,89.5,231.4,89.9,231.2,90.3z M229.6,90.1c0.3-0.2,0.4-0.6,0.4-1    c0-0.9-0.5-1.4-1.6-1.4h-1.6v2.8h1.6C229,90.5,229.4,90.4,229.6,90.1z"/>
		<path class="st3" d="M240.6,93.4h-3.6l-0.6,1.8h-1.5l3.1-8.7h1.6l3.1,8.7h-1.5L240.6,93.4z M240.2,92.2l-1.4-4l-1.4,4H240.2z"/>
		<path class="st3" d="M247.8,94.9c-0.5-0.2-0.8-0.5-1.1-0.9c-0.3-0.4-0.4-0.8-0.4-1.3h1.5c0,0.4,0.2,0.7,0.4,0.9    c0.3,0.2,0.6,0.4,1.1,0.4c0.5,0,0.9-0.1,1.1-0.4c0.3-0.2,0.4-0.5,0.4-0.9c0-0.3-0.1-0.5-0.3-0.7c-0.2-0.2-0.4-0.3-0.6-0.4    c-0.3-0.1-0.6-0.2-1.1-0.3c-0.6-0.1-1-0.3-1.4-0.5c-0.4-0.2-0.7-0.4-0.9-0.7c-0.2-0.3-0.4-0.8-0.4-1.3c0-0.5,0.1-0.9,0.4-1.3    c0.2-0.4,0.6-0.7,1-0.9c0.4-0.2,1-0.3,1.6-0.3c0.8,0,1.5,0.2,2.1,0.6c0.5,0.4,0.8,1,0.9,1.7h-1.6c0-0.3-0.2-0.6-0.4-0.8    c-0.3-0.2-0.6-0.3-1.1-0.3c-0.4,0-0.7,0.1-1,0.3c-0.3,0.2-0.4,0.5-0.4,0.9c0,0.3,0.1,0.5,0.2,0.7c0.2,0.2,0.4,0.3,0.6,0.4    c0.2,0.1,0.6,0.2,1,0.3c0.6,0.2,1,0.3,1.4,0.5c0.4,0.2,0.7,0.4,0.9,0.7c0.3,0.3,0.4,0.8,0.4,1.3c0,0.4-0.1,0.9-0.4,1.2    c-0.2,0.4-0.6,0.7-1,0.9c-0.5,0.2-1,0.4-1.6,0.4C248.8,95.2,248.3,95.1,247.8,94.9z"/>
		<path class="st3" d="M257.9,94.9c-0.5-0.2-0.8-0.5-1.1-0.9c-0.3-0.4-0.4-0.8-0.4-1.3h1.5c0,0.4,0.2,0.7,0.4,0.9    c0.3,0.2,0.6,0.4,1.1,0.4c0.5,0,0.9-0.1,1.1-0.4c0.3-0.2,0.4-0.5,0.4-0.9c0-0.3-0.1-0.5-0.3-0.7c-0.2-0.2-0.4-0.3-0.6-0.4    c-0.3-0.1-0.6-0.2-1.1-0.3c-0.6-0.1-1-0.3-1.4-0.5c-0.4-0.2-0.7-0.4-0.9-0.7c-0.2-0.3-0.4-0.8-0.4-1.3c0-0.5,0.1-0.9,0.4-1.3    c0.2-0.4,0.6-0.7,1-0.9c0.4-0.2,1-0.3,1.6-0.3c0.8,0,1.5,0.2,2.1,0.6c0.5,0.4,0.8,1,0.9,1.7h-1.6c0-0.3-0.2-0.6-0.4-0.8    c-0.3-0.2-0.6-0.3-1.1-0.3c-0.4,0-0.7,0.1-1,0.3c-0.3,0.2-0.4,0.5-0.4,0.9c0,0.3,0.1,0.5,0.2,0.7c0.2,0.2,0.4,0.3,0.6,0.4    c0.2,0.1,0.6,0.2,1,0.3c0.6,0.2,1,0.3,1.4,0.5c0.4,0.2,0.7,0.4,0.9,0.7c0.3,0.3,0.4,0.8,0.4,1.3c0,0.4-0.1,0.9-0.4,1.2    c-0.2,0.4-0.6,0.7-1,0.9c-0.5,0.2-1,0.4-1.6,0.4C258.9,95.2,258.3,95.1,257.9,94.9z"/>
	</g>
	<g>
		<path class="st4" d="M84.7,124.8c-0.2,0.2-0.5,0.3-1,0.3h-0.7v1.5h-0.5V123h1.2c0.4,0,0.7,0.1,0.9,0.3c0.2,0.2,0.3,0.5,0.3,0.8    C85,124.4,84.9,124.6,84.7,124.8z M84.3,124.5c0.1-0.1,0.2-0.3,0.2-0.5c0-0.5-0.3-0.7-0.8-0.7h-0.7v1.3h0.7    C84,124.7,84.2,124.7,84.3,124.5z"/>
		<path class="st4" d="M88.8,125.8h-1.6l-0.3,0.8h-0.5l1.3-3.6h0.5l1.3,3.6h-0.5L88.8,125.8z M88.7,125.4l-0.7-1.8l-0.7,1.8H88.7z"/>
		<path class="st4" d="M91.7,126.5c-0.2-0.1-0.3-0.2-0.4-0.4c-0.1-0.2-0.2-0.3-0.2-0.5h0.5c0,0.2,0.1,0.3,0.2,0.4s0.3,0.2,0.5,0.2    c0.2,0,0.4-0.1,0.5-0.2c0.1-0.1,0.2-0.3,0.2-0.4c0-0.1,0-0.3-0.1-0.3c-0.1-0.1-0.2-0.2-0.3-0.2c-0.1,0-0.3-0.1-0.5-0.1    c-0.2-0.1-0.4-0.1-0.6-0.2c-0.1-0.1-0.3-0.2-0.4-0.3c-0.1-0.1-0.2-0.3-0.2-0.5c0-0.2,0.1-0.4,0.2-0.5c0.1-0.2,0.2-0.3,0.4-0.4    c0.2-0.1,0.4-0.1,0.6-0.1c0.3,0,0.6,0.1,0.8,0.3c0.2,0.2,0.3,0.4,0.4,0.7H93c0-0.1-0.1-0.3-0.2-0.4c-0.1-0.1-0.3-0.2-0.5-0.2    c-0.2,0-0.4,0.1-0.5,0.2c-0.1,0.1-0.2,0.2-0.2,0.4c0,0.1,0,0.2,0.1,0.3c0.1,0.1,0.2,0.1,0.3,0.2c0.1,0,0.3,0.1,0.5,0.1    c0.2,0.1,0.4,0.1,0.6,0.2c0.1,0.1,0.3,0.2,0.4,0.3c0.1,0.1,0.2,0.3,0.2,0.5c0,0.2,0,0.3-0.1,0.5c-0.1,0.2-0.2,0.3-0.4,0.4    c-0.2,0.1-0.4,0.1-0.7,0.1C92.2,126.7,91.9,126.6,91.7,126.5z"/>
		<path class="st4" d="M95.9,126.5c-0.2-0.1-0.3-0.2-0.4-0.4c-0.1-0.2-0.2-0.3-0.2-0.5h0.5c0,0.2,0.1,0.3,0.2,0.4s0.3,0.2,0.5,0.2    c0.2,0,0.4-0.1,0.5-0.2c0.1-0.1,0.2-0.3,0.2-0.4c0-0.1,0-0.3-0.1-0.3c-0.1-0.1-0.2-0.2-0.3-0.2c-0.1,0-0.3-0.1-0.5-0.1    c-0.2-0.1-0.4-0.1-0.6-0.2c-0.1-0.1-0.3-0.2-0.4-0.3c-0.1-0.1-0.2-0.3-0.2-0.5c0-0.2,0.1-0.4,0.2-0.5c0.1-0.2,0.2-0.3,0.4-0.4    c0.2-0.1,0.4-0.1,0.6-0.1c0.3,0,0.6,0.1,0.8,0.3c0.2,0.2,0.3,0.4,0.4,0.7h-0.5c0-0.1-0.1-0.3-0.2-0.4c-0.1-0.1-0.3-0.2-0.5-0.2    c-0.2,0-0.4,0.1-0.5,0.2c-0.1,0.1-0.2,0.2-0.2,0.4c0,0.1,0,0.2,0.1,0.3c0.1,0.1,0.2,0.1,0.3,0.2c0.1,0,0.3,0.1,0.5,0.1    c0.2,0.1,0.4,0.1,0.6,0.2c0.1,0.1,0.3,0.2,0.4,0.3c0.1,0.1,0.2,0.3,0.2,0.5c0,0.2,0,0.3-0.1,0.5c-0.1,0.2-0.2,0.3-0.4,0.4    c-0.2,0.1-0.4,0.1-0.7,0.1C96.3,126.7,96.1,126.6,95.9,126.5z"/>
		<path class="st4" d="M100,123.4v1.2h1.3v0.4H100v1.3h1.5v0.4h-2V123h2v0.4H100z"/>
		<path class="st4" d="M106.1,126.6h-0.5l-1.9-2.9v2.9h-0.5V123h0.5l1.9,2.9V123h0.5V126.6z"/>
		<path class="st4" d="M110.7,124c-0.1-0.2-0.2-0.4-0.4-0.5s-0.4-0.2-0.7-0.2c-0.3,0-0.5,0.1-0.7,0.2c-0.2,0.1-0.4,0.3-0.5,0.5    c-0.1,0.2-0.2,0.5-0.2,0.8c0,0.3,0.1,0.5,0.2,0.8c0.1,0.2,0.3,0.4,0.5,0.5c0.2,0.1,0.4,0.2,0.7,0.2c0.4,0,0.6-0.1,0.9-0.3    c0.2-0.2,0.4-0.5,0.4-0.9h-1.5v-0.4h2v0.4c0,0.3-0.1,0.6-0.3,0.8c-0.2,0.2-0.4,0.4-0.6,0.6c-0.3,0.1-0.6,0.2-0.9,0.2    c-0.3,0-0.6-0.1-0.9-0.2c-0.3-0.2-0.5-0.4-0.7-0.7c-0.2-0.3-0.2-0.6-0.2-1c0-0.4,0.1-0.7,0.2-1c0.2-0.3,0.4-0.5,0.7-0.7    c0.3-0.2,0.6-0.2,0.9-0.2c0.4,0,0.7,0.1,1,0.3c0.3,0.2,0.5,0.5,0.7,0.8H110.7z"/>
		<path class="st4" d="M113.5,123.4v1.2h1.3v0.4h-1.3v1.3h1.5v0.4h-2V123h2v0.4H113.5z"/>
		<path class="st4" d="M118.7,126.6l-0.9-1.5h-0.6v1.5h-0.5V123h1.2c0.3,0,0.5,0,0.7,0.1c0.2,0.1,0.3,0.2,0.4,0.4    c0.1,0.2,0.1,0.3,0.1,0.5c0,0.3-0.1,0.5-0.2,0.7c-0.1,0.2-0.4,0.3-0.7,0.4l0.9,1.5H118.7z M117.3,124.8h0.7c0.3,0,0.5-0.1,0.6-0.2    c0.1-0.1,0.2-0.3,0.2-0.5c0-0.2-0.1-0.4-0.2-0.5c-0.1-0.1-0.3-0.2-0.6-0.2h-0.7V124.8z"/>
		<path class="st4" d="M126.3,126.6h-0.5l-1.9-2.9v2.9h-0.5V123h0.5l1.9,2.9V123h0.5V126.6z"/>
		<path class="st4" d="M130.4,125.8h-1.6l-0.3,0.8H128l1.3-3.6h0.5l1.3,3.6h-0.5L130.4,125.8z M130.2,125.4l-0.7-1.8l-0.7,1.8H130.2    z"/>
		<path class="st4" d="M136.5,123v3.6H136v-2.7l-1.2,2.7h-0.3l-1.2-2.7v2.7h-0.5V123h0.5l1.3,3l1.3-3H136.5z"/>
		<path class="st4" d="M138.8,123.4v1.2h1.3v0.4h-1.3v1.3h1.5v0.4h-2V123h2v0.4H138.8z"/>
	</g>
	
	
	
	
	
	<g>
		<path class="st5" d="M322.9,187.3c-0.3-0.2-0.5-0.5-0.5-1c0-0.5,0.2-0.8,0.5-1c0.3-0.2,0.8-0.3,1.3-0.3c0.6,0,1,0.1,1.4,0.3    c0.3,0.2,0.5,0.5,0.5,1c0,0.5-0.2,0.8-0.5,1c-0.3,0.2-0.8,0.3-1.4,0.3C323.7,187.6,323.2,187.5,322.9,187.3z M323.6,185.6    c-0.2,0-0.3,0.1-0.5,0.2c-0.1,0.1-0.2,0.3-0.2,0.5c0,0.2,0.1,0.4,0.2,0.5c0.1,0.1,0.3,0.2,0.5,0.2c0.2,0,0.4,0.1,0.7,0.1    c0.3,0,0.5,0,0.7,0c0.2,0,0.3-0.1,0.5-0.2c0.1-0.1,0.2-0.3,0.2-0.5c0-0.2-0.1-0.4-0.2-0.5c-0.1-0.1-0.3-0.2-0.5-0.2    c-0.2,0-0.4,0-0.7,0C324,185.5,323.7,185.5,323.6,185.6z"/>
		<path class="st5" d="M322.9,183.1c-0.3-0.2-0.5-0.5-0.5-1c0-0.5,0.2-0.8,0.5-1c0.3-0.2,0.8-0.3,1.3-0.3c0.6,0,1,0.1,1.4,0.3    c0.3,0.2,0.5,0.5,0.5,1c0,0.5-0.2,0.8-0.5,1c-0.3,0.2-0.8,0.3-1.4,0.3C323.7,183.4,323.2,183.3,322.9,183.1z M323.6,181.4    c-0.2,0-0.3,0.1-0.5,0.2c-0.1,0.1-0.2,0.3-0.2,0.5c0,0.2,0.1,0.4,0.2,0.5c0.1,0.1,0.3,0.2,0.5,0.2c0.2,0,0.4,0.1,0.7,0.1    c0.3,0,0.5,0,0.7,0c0.2,0,0.3-0.1,0.5-0.2c0.1-0.1,0.2-0.3,0.2-0.5c0-0.2-0.1-0.4-0.2-0.5c-0.1-0.1-0.3-0.2-0.5-0.2    c-0.2,0-0.4,0-0.7,0C324,181.3,323.7,181.4,323.6,181.4z"/>
		<path class="st5" d="M323,179.3h-0.5v-1h3.6v0.6H323V179.3z"/>
		<path class="st5" d="M322.6,173.8c-0.2-0.2-0.3-0.5-0.3-0.8c0-0.2,0-0.4,0.1-0.6c0.1-0.2,0.2-0.3,0.3-0.4c0.1-0.1,0.3-0.1,0.5-0.1    c0.2,0,0.4,0.1,0.5,0.2c0.1,0.1,0.2,0.2,0.3,0.4h0c0.1-0.2,0.2-0.3,0.3-0.5c0.2-0.1,0.4-0.2,0.6-0.2c0.2,0,0.4,0,0.5,0.1    c0.2,0.1,0.3,0.2,0.4,0.4c0.1,0.2,0.1,0.4,0.1,0.6c0,0.4-0.1,0.7-0.3,0.9c-0.2,0.2-0.4,0.4-0.8,0.4v-0.5c0.2,0,0.3-0.1,0.4-0.2    c0.1-0.1,0.2-0.3,0.2-0.5c0-0.2-0.1-0.4-0.2-0.5c-0.1-0.1-0.3-0.2-0.4-0.2c-0.2,0-0.4,0.1-0.5,0.2c-0.1,0.1-0.1,0.4-0.1,0.7v0.1    h-0.5v-0.1c0-0.3,0-0.5-0.1-0.6c-0.1-0.1-0.2-0.2-0.4-0.2c-0.2,0-0.3,0.1-0.4,0.2c-0.1,0.1-0.1,0.2-0.1,0.4c0,0.2,0,0.3,0.1,0.4    c0.1,0.1,0.2,0.2,0.3,0.2v0.6C323.1,174.2,322.8,174.1,322.6,173.8z"/>
		<path class="st5" d="M322.9,169.9c-0.3-0.2-0.5-0.5-0.5-1c0-0.5,0.2-0.8,0.5-1c0.3-0.2,0.8-0.3,1.3-0.3c0.6,0,1,0.1,1.4,0.3    c0.3,0.2,0.5,0.5,0.5,1c0,0.5-0.2,0.8-0.5,1c-0.3,0.2-0.8,0.3-1.4,0.3C323.7,170.2,323.2,170.1,322.9,169.9z M323.6,168.3    c-0.2,0-0.3,0.1-0.5,0.2c-0.1,0.1-0.2,0.3-0.2,0.5c0,0.2,0.1,0.4,0.2,0.5c0.1,0.1,0.3,0.2,0.5,0.2c0.2,0,0.4,0.1,0.7,0.1    c0.3,0,0.5,0,0.7,0c0.2,0,0.3-0.1,0.5-0.2c0.1-0.1,0.2-0.3,0.2-0.5c0-0.2-0.1-0.4-0.2-0.5c-0.1-0.1-0.3-0.2-0.5-0.2    c-0.2,0-0.4,0-0.7,0C324,168.2,323.7,168.2,323.6,168.3z"/>
		<path class="st5" d="M325.3,166.1h-0.4l-2.4-1.7v-0.7h2.3v-0.5h0.5v0.5h0.8v0.6h-0.8V166.1z M323.1,164.3l1.8,1.2v-1.2H323.1z"/>
		<path class="st5" d="M323,161.9h-0.5v-1h3.6v0.6H323V161.9z"/>
		<path class="st5" d="M322.6,158.8c-0.2-0.2-0.3-0.5-0.3-0.8c0-0.2,0-0.4,0.1-0.6c0.1-0.2,0.2-0.3,0.3-0.4c0.1-0.1,0.3-0.1,0.5-0.1    c0.2,0,0.4,0.1,0.5,0.2c0.1,0.1,0.2,0.2,0.3,0.4h0c0.1-0.2,0.2-0.3,0.3-0.5c0.2-0.1,0.4-0.2,0.6-0.2c0.2,0,0.4,0,0.5,0.1    c0.2,0.1,0.3,0.2,0.4,0.4c0.1,0.2,0.1,0.4,0.1,0.6c0,0.4-0.1,0.7-0.3,0.9s-0.4,0.4-0.8,0.4v-0.5c0.2,0,0.3-0.1,0.4-0.2    c0.1-0.1,0.2-0.3,0.2-0.5c0-0.2-0.1-0.4-0.2-0.5c-0.1-0.1-0.3-0.2-0.4-0.2c-0.2,0-0.4,0.1-0.5,0.2c-0.1,0.1-0.1,0.4-0.1,0.7v0.1    h-0.5v-0.1c0-0.3,0-0.5-0.1-0.6c-0.1-0.1-0.2-0.2-0.4-0.2c-0.2,0-0.3,0.1-0.4,0.2c-0.1,0.1-0.1,0.2-0.1,0.4c0,0.2,0,0.3,0.1,0.4    c0.1,0.1,0.2,0.2,0.3,0.2v0.6C323.1,159.1,322.8,159,322.6,158.8z"/>
		<path class="st5" d="M325.3,154.9c-0.3-0.3-0.5-0.6-0.7-0.8c-0.2-0.2-0.4-0.3-0.6-0.5c-0.2-0.1-0.4-0.2-0.6-0.2    c-0.2,0-0.4,0-0.5,0.1c-0.1,0.1-0.2,0.2-0.2,0.4c0,0.2,0.1,0.3,0.2,0.5c0.1,0.1,0.3,0.2,0.5,0.2v0.5c-0.4,0-0.7-0.1-0.9-0.3    c-0.2-0.2-0.3-0.5-0.3-0.8c0-0.4,0.1-0.6,0.3-0.8c0.2-0.2,0.5-0.3,0.8-0.3c0.2,0,0.5,0.1,0.7,0.2c0.2,0.1,0.4,0.3,0.6,0.4    c0.2,0.2,0.4,0.4,0.6,0.6l0.2,0.2v-1.6h0.5v2.4h-0.4L325.3,154.9z"/>
		<path class="st5" d="M325.3,151.4h-0.4l-2.4-1.7V149h2.3v-0.5h0.5v0.5h0.8v0.6h-0.8V151.4z M323.1,149.6l1.8,1.2v-1.2H323.1z"/>
		<path class="st5" d="M322.9,144.5c-0.3-0.2-0.5-0.5-0.5-1c0-0.5,0.2-0.8,0.5-1c0.3-0.2,0.8-0.3,1.3-0.3c0.6,0,1,0.1,1.4,0.3    c0.3,0.2,0.5,0.5,0.5,1c0,0.5-0.2,0.8-0.5,1c-0.3,0.2-0.8,0.3-1.4,0.3C323.7,144.8,323.2,144.7,322.9,144.5z M323.6,142.9    c-0.2,0-0.3,0.1-0.5,0.2c-0.1,0.1-0.2,0.3-0.2,0.5c0,0.2,0.1,0.4,0.2,0.5c0.1,0.1,0.3,0.2,0.5,0.2c0.2,0,0.4,0.1,0.7,0.1    c0.3,0,0.5,0,0.7,0c0.2,0,0.3-0.1,0.5-0.2c0.1-0.1,0.2-0.3,0.2-0.5c0-0.2-0.1-0.4-0.2-0.5c-0.1-0.1-0.3-0.2-0.5-0.2    c-0.2,0-0.4,0-0.7,0C324,142.8,323.7,142.8,323.6,142.9z"/>
		<path class="st5" d="M325.3,140.3c-0.3-0.3-0.5-0.6-0.7-0.8c-0.2-0.2-0.4-0.3-0.6-0.5c-0.2-0.1-0.4-0.2-0.6-0.2    c-0.2,0-0.4,0-0.5,0.1c-0.1,0.1-0.2,0.2-0.2,0.4c0,0.2,0.1,0.3,0.2,0.5c0.1,0.1,0.3,0.2,0.5,0.2v0.5c-0.4,0-0.7-0.1-0.9-0.3    c-0.2-0.2-0.3-0.5-0.3-0.8c0-0.4,0.1-0.6,0.3-0.8c0.2-0.2,0.5-0.3,0.8-0.3c0.2,0,0.5,0.1,0.7,0.2c0.2,0.1,0.4,0.3,0.6,0.4    c0.2,0.2,0.4,0.4,0.6,0.6l0.2,0.2v-1.6h0.5v2.4h-0.4L325.3,140.3z"/>
	</g>
	
	
	
	
	<g>
		<path class="st4" d="M84.6,136.2v0.4h-1.6v1.2h1.3v0.4h-1.3v1.6h-0.5v-3.7H84.6z"/>
		<path class="st4" d="M88.2,139.8l-0.9-1.5h-0.6v1.5h-0.5v-3.7h1.2c0.3,0,0.5,0,0.7,0.1c0.2,0.1,0.3,0.2,0.4,0.4    c0.1,0.2,0.1,0.3,0.1,0.5c0,0.3-0.1,0.5-0.2,0.7c-0.1,0.2-0.4,0.3-0.7,0.4l0.9,1.5H88.2z M86.7,137.9h0.7c0.3,0,0.5-0.1,0.6-0.2    c0.1-0.1,0.2-0.3,0.2-0.5c0-0.2-0.1-0.4-0.2-0.5c-0.1-0.1-0.3-0.2-0.6-0.2h-0.7V137.9z"/>
		<path class="st4" d="M91.2,139.6c-0.3-0.2-0.5-0.4-0.7-0.7c-0.2-0.3-0.2-0.6-0.2-1c0-0.4,0.1-0.7,0.2-1c0.2-0.3,0.4-0.5,0.7-0.7    c0.3-0.2,0.6-0.2,0.9-0.2c0.3,0,0.7,0.1,0.9,0.2c0.3,0.2,0.5,0.4,0.7,0.7c0.2,0.3,0.2,0.6,0.2,1s-0.1,0.7-0.2,1    c-0.2,0.3-0.4,0.5-0.7,0.7c-0.3,0.2-0.6,0.2-0.9,0.2C91.8,139.8,91.5,139.8,91.2,139.6z M92.8,139.3c0.2-0.1,0.4-0.3,0.5-0.5    c0.1-0.2,0.2-0.5,0.2-0.8c0-0.3-0.1-0.5-0.2-0.8c-0.1-0.2-0.3-0.4-0.5-0.5c-0.2-0.1-0.4-0.2-0.7-0.2c-0.3,0-0.5,0.1-0.7,0.2    c-0.2,0.1-0.4,0.3-0.5,0.5c-0.1,0.2-0.2,0.5-0.2,0.8c0,0.3,0.1,0.5,0.2,0.8c0.1,0.2,0.3,0.4,0.5,0.5c0.2,0.1,0.4,0.2,0.7,0.2    C92.4,139.4,92.6,139.4,92.8,139.3z"/>
		<path class="st4" d="M99.4,136.2v3.6h-0.5v-2.7l-1.2,2.7h-0.3l-1.2-2.7v2.7h-0.5v-3.6h0.5l1.3,3l1.3-3H99.4z"/>
	</g>
	<g>
		<path class="st4" d="M348.3,131.3h-0.4l-1.7-2.6v2.6h-0.4v-3.3h0.4l1.7,2.6v-2.6h0.4V131.3z"/>
		<path class="st4" d="M352,130.5h-1.5l-0.3,0.7h-0.5l1.2-3.3h0.5l1.2,3.3h-0.5L352,130.5z M351.8,130.2l-0.6-1.7l-0.6,1.7H351.8z"/>
		<path class="st4" d="M357.5,128v3.3h-0.4v-2.5l-1.1,2.5h-0.3l-1.1-2.5v2.5h-0.4V128h0.5l1.2,2.7l1.2-2.7H357.5z"/>
		<path class="st4" d="M359.7,128.3v1.1h1.2v0.4h-1.2v1.1h1.4v0.4h-1.8v-3.3h1.8v0.4H359.7z"/>
	</g>
	
	
	
	<g>
		<path class="st4" d="M347.6,135.6v0.4h-1.4v1.1h1.2v0.4h-1.2v1.5h-0.4v-3.3H347.6z"/>
		<path class="st4" d="M350.8,138.9l-0.8-1.4h-0.5v1.4H349v-3.3h1.1c0.3,0,0.5,0,0.6,0.1c0.2,0.1,0.3,0.2,0.4,0.3    c0.1,0.1,0.1,0.3,0.1,0.5c0,0.2-0.1,0.4-0.2,0.6c-0.1,0.2-0.3,0.3-0.6,0.3l0.8,1.4H350.8z M349.5,137.2h0.6c0.2,0,0.4-0.1,0.5-0.2    c0.1-0.1,0.2-0.3,0.2-0.5c0-0.2-0.1-0.4-0.2-0.5c-0.1-0.1-0.3-0.2-0.5-0.2h-0.6V137.2z"/>
		<path class="st4" d="M353.6,138.7c-0.3-0.1-0.5-0.3-0.6-0.6c-0.1-0.3-0.2-0.6-0.2-0.9c0-0.3,0.1-0.6,0.2-0.9    c0.1-0.3,0.3-0.5,0.6-0.6c0.3-0.1,0.5-0.2,0.8-0.2c0.3,0,0.6,0.1,0.8,0.2c0.3,0.1,0.5,0.3,0.6,0.6c0.1,0.3,0.2,0.6,0.2,0.9    c0,0.3-0.1,0.6-0.2,0.9c-0.1,0.3-0.3,0.5-0.6,0.6c-0.3,0.1-0.5,0.2-0.8,0.2C354.1,139,353.8,138.9,353.6,138.7z M355,138.4    c0.2-0.1,0.3-0.3,0.4-0.5c0.1-0.2,0.2-0.4,0.2-0.7c0-0.3-0.1-0.5-0.2-0.7c-0.1-0.2-0.3-0.4-0.4-0.5c-0.2-0.1-0.4-0.2-0.6-0.2    s-0.4,0.1-0.6,0.2c-0.2,0.1-0.3,0.3-0.4,0.5c-0.1,0.2-0.2,0.4-0.2,0.7c0,0.3,0.1,0.5,0.2,0.7c0.1,0.2,0.3,0.4,0.4,0.5    s0.4,0.2,0.6,0.2C354.6,138.6,354.9,138.5,355,138.4z"/>
		<path class="st4" d="M361,135.6v3.3h-0.4v-2.5l-1.1,2.5h-0.3l-1.1-2.5v2.5h-0.4v-3.3h0.5l1.2,2.7l1.2-2.7H361z"/>
	</g>
	<g>
		<path class="st4" d="M347.7,143.2v0.4h-0.9v3h-0.4v-3h-0.9v-0.4H347.7z"/>
		<path class="st4" d="M349.9,146.4c-0.3-0.1-0.5-0.3-0.6-0.6c-0.1-0.3-0.2-0.6-0.2-0.9c0-0.3,0.1-0.6,0.2-0.9    c0.1-0.3,0.3-0.5,0.6-0.6c0.3-0.1,0.5-0.2,0.8-0.2c0.3,0,0.6,0.1,0.8,0.2c0.3,0.1,0.5,0.3,0.6,0.6c0.1,0.3,0.2,0.6,0.2,0.9    c0,0.3-0.1,0.6-0.2,0.9c-0.1,0.3-0.3,0.5-0.6,0.6c-0.3,0.1-0.5,0.2-0.8,0.2C350.4,146.6,350.1,146.5,349.9,146.4z M351.4,146.1    c0.2-0.1,0.3-0.3,0.4-0.5c0.1-0.2,0.2-0.4,0.2-0.7c0-0.3-0.1-0.5-0.2-0.7c-0.1-0.2-0.3-0.4-0.4-0.5c-0.2-0.1-0.4-0.2-0.6-0.2    s-0.4,0.1-0.6,0.2c-0.2,0.1-0.3,0.3-0.4,0.5c-0.1,0.2-0.2,0.4-0.2,0.7c0,0.3,0.1,0.5,0.2,0.7c0.1,0.2,0.3,0.4,0.4,0.5    c0.2,0.1,0.4,0.2,0.6,0.2C351,146.2,351.2,146.2,351.4,146.1z"/>
	</g>
	<g>
		<path class="st4" d="M347.6,150.5v0.4h-1.4v1.1h1.2v0.4h-1.2v1.5h-0.4v-3.3H347.6z"/>
		<path class="st4" d="M349.5,153.5h1.2v0.4H349v-3.3h0.4V153.5z"/>
		<path class="st4" d="M352.5,150.5v3.3h-0.4v-3.3H352.5z"/>
		<path class="st4" d="M356.7,151.5c-0.1-0.2-0.2-0.3-0.4-0.5c-0.2-0.1-0.4-0.2-0.6-0.2c-0.2,0-0.4,0.1-0.6,0.2    c-0.2,0.1-0.3,0.3-0.4,0.5c-0.1,0.2-0.2,0.4-0.2,0.7c0,0.3,0.1,0.5,0.2,0.7s0.3,0.3,0.4,0.5c0.2,0.1,0.4,0.2,0.6,0.2    c0.3,0,0.6-0.1,0.8-0.3c0.2-0.2,0.3-0.5,0.4-0.8h-1.3V152h1.8v0.3c0,0.3-0.1,0.5-0.3,0.8c-0.1,0.2-0.3,0.4-0.6,0.5    s-0.5,0.2-0.8,0.2c-0.3,0-0.6-0.1-0.8-0.2c-0.3-0.1-0.5-0.3-0.6-0.6c-0.1-0.3-0.2-0.5-0.2-0.9c0-0.3,0.1-0.6,0.2-0.9    c0.1-0.3,0.3-0.5,0.6-0.6c0.3-0.1,0.5-0.2,0.8-0.2c0.4,0,0.7,0.1,0.9,0.3c0.3,0.2,0.5,0.4,0.6,0.7H356.7z"/>
		<path class="st4" d="M361.4,150.5v3.3H361v-1.5h-1.7v1.5h-0.4v-3.3h0.4v1.5h1.7v-1.5H361.4z"/>
		<path class="st4" d="M365.2,150.5v0.4h-0.9v3h-0.4v-3h-0.9v-0.4H365.2z"/>
	</g>
	
	<g>
		<path class="st4" d="M347.7,158.4c0.3,0.1,0.5,0.3,0.6,0.6s0.2,0.5,0.2,0.9c0,0.3-0.1,0.6-0.2,0.9c-0.1,0.2-0.3,0.4-0.6,0.6    c-0.3,0.1-0.6,0.2-0.9,0.2h-1v-3.3h1C347.1,158.2,347.4,158.2,347.7,158.4z M347.7,160.8c0.2-0.2,0.3-0.5,0.3-1    c0-0.4-0.1-0.7-0.3-1c-0.2-0.2-0.6-0.3-1-0.3h-0.6v2.6h0.6C347.2,161.1,347.5,161,347.7,160.8z"/>
		<path class="st4" d="M352,160.7h-1.5l-0.3,0.7h-0.5l1.2-3.3h0.5l1.2,3.3h-0.5L352,160.7z M351.9,160.4l-0.6-1.7l-0.6,1.7H351.9z"/>
		<path class="st4" d="M356.2,158.2v0.4h-0.9v3h-0.4v-3H354v-0.4H356.2z"/>
		<path class="st4" d="M358.2,158.5v1.1h1.2v0.4h-1.2v1.1h1.4v0.4h-1.8v-3.3h1.8v0.4H358.2z"/>
	</g>
	<g>
		<path class="st4" d="M227.6,136.2v0.4H226v1.2h1.3v0.4H226v1.6h-0.5v-3.7H227.6z"/>
		<path class="st4" d="M229.7,139.4h1.3v0.4h-1.8v-3.7h0.5V139.4z"/>
		<path class="st4" d="M233,136.2v3.7h-0.5v-3.7H233z"/>
		<path class="st4" d="M237.6,137.2c-0.1-0.2-0.2-0.4-0.4-0.5s-0.4-0.2-0.7-0.2s-0.5,0.1-0.7,0.2s-0.4,0.3-0.5,0.5    c-0.1,0.2-0.2,0.5-0.2,0.8s0.1,0.5,0.2,0.8c0.1,0.2,0.3,0.4,0.5,0.5c0.2,0.1,0.4,0.2,0.7,0.2c0.4,0,0.6-0.1,0.9-0.3    c0.2-0.2,0.4-0.5,0.4-0.9h-1.5v-0.4h2v0.4c0,0.3-0.1,0.6-0.3,0.8c-0.2,0.2-0.4,0.4-0.6,0.6c-0.3,0.1-0.6,0.2-0.9,0.2    c-0.3,0-0.6-0.1-0.9-0.2c-0.3-0.2-0.5-0.4-0.7-0.7c-0.2-0.3-0.2-0.6-0.2-1c0-0.4,0.1-0.7,0.2-1c0.2-0.3,0.4-0.5,0.7-0.7    c0.3-0.2,0.6-0.2,0.9-0.2c0.4,0,0.7,0.1,1,0.3s0.5,0.5,0.7,0.8H237.6z"/>
		<path class="st4" d="M242.8,136.2v3.7h-0.5v-1.7h-1.9v1.7H240v-3.7h0.5v1.6h1.9v-1.6H242.8z"/>
		<path class="st4" d="M246.9,136.2v0.4h-1v3.3h-0.5v-3.3h-1v-0.4H246.9z"/>
	</g>
	
	
	<g>
		<path class="st4" d="M84.8,149.7v0.4h-1v3.3h-0.5v-3.3h-1v-0.4H84.8z"/>
		<path class="st4" d="M87.2,153.2c-0.3-0.2-0.5-0.4-0.7-0.7c-0.2-0.3-0.2-0.6-0.2-1c0-0.4,0.1-0.7,0.2-1c0.2-0.3,0.4-0.5,0.7-0.7    c0.3-0.2,0.6-0.2,0.9-0.2c0.3,0,0.7,0.1,0.9,0.2c0.3,0.2,0.5,0.4,0.7,0.7c0.2,0.3,0.2,0.6,0.2,1s-0.1,0.7-0.2,1    c-0.2,0.3-0.4,0.5-0.7,0.7c-0.3,0.2-0.6,0.2-0.9,0.2C87.8,153.4,87.5,153.3,87.2,153.2z M88.8,152.8c0.2-0.1,0.4-0.3,0.5-0.5    c0.1-0.2,0.2-0.5,0.2-0.8c0-0.3-0.1-0.5-0.2-0.8c-0.1-0.2-0.3-0.4-0.5-0.5c-0.2-0.1-0.4-0.2-0.7-0.2s-0.5,0.1-0.7,0.2    c-0.2,0.1-0.4,0.3-0.5,0.5c-0.1,0.2-0.2,0.5-0.2,0.8c0,0.3,0.1,0.5,0.2,0.8c0.1,0.2,0.3,0.4,0.5,0.5c0.2,0.1,0.4,0.2,0.7,0.2    S88.6,153,88.8,152.8z"/>
	</g>
	<g>
		<path class="st4" d="M85.3,168.8c-0.1-0.2-0.2-0.4-0.4-0.5s-0.4-0.2-0.7-0.2c-0.3,0-0.5,0.1-0.7,0.2c-0.2,0.1-0.4,0.3-0.5,0.5    c-0.1,0.2-0.2,0.5-0.2,0.8c0,0.3,0.1,0.5,0.2,0.8c0.1,0.2,0.3,0.4,0.5,0.5c0.2,0.1,0.4,0.2,0.7,0.2c0.4,0,0.6-0.1,0.9-0.3    c0.2-0.2,0.4-0.5,0.4-0.9h-1.5v-0.4h2v0.4c0,0.3-0.1,0.6-0.3,0.8c-0.2,0.2-0.4,0.4-0.6,0.6c-0.3,0.1-0.6,0.2-0.9,0.2    c-0.3,0-0.6-0.1-0.9-0.2c-0.3-0.2-0.5-0.4-0.7-0.7c-0.2-0.3-0.2-0.6-0.2-1c0-0.4,0.1-0.7,0.2-1c0.2-0.3,0.4-0.5,0.7-0.7    c0.3-0.2,0.6-0.2,0.9-0.2c0.4,0,0.7,0.1,1,0.3c0.3,0.2,0.5,0.5,0.7,0.8H85.3z"/>
		<path class="st4" d="M89.9,170.6h-1.6l-0.3,0.8h-0.5l1.3-3.6h0.5l1.3,3.6h-0.5L89.9,170.6z M89.7,170.2l-0.7-1.8l-0.7,1.8H89.7z"/>
		<path class="st4" d="M94.5,167.7v0.4h-1v3.3h-0.5v-3.3h-1v-0.4H94.5z"/>
		<path class="st4" d="M96.6,168.1v1.2H98v0.4h-1.3v1.3h1.5v0.4h-2v-3.7h2v0.4H96.6z"/>
	</g>
	<g>
		<path class="st4" d="M145.9,169.6c0.1,0.1,0.2,0.2,0.3,0.3c0.1,0.1,0.1,0.3,0.1,0.4c0,0.2,0,0.4-0.1,0.5c-0.1,0.1-0.2,0.3-0.4,0.4    s-0.4,0.1-0.6,0.1h-1.4v-3.7h1.3c0.2,0,0.5,0,0.6,0.1s0.3,0.2,0.4,0.3c0.1,0.1,0.1,0.3,0.1,0.5c0,0.2-0.1,0.4-0.2,0.5    c-0.1,0.1-0.3,0.2-0.5,0.3C145.6,169.5,145.8,169.6,145.9,169.6z M144.2,169.3h0.8c0.2,0,0.4-0.1,0.5-0.2c0.1-0.1,0.2-0.2,0.2-0.4    c0-0.2-0.1-0.3-0.2-0.4s-0.3-0.2-0.5-0.2h-0.8V169.3z M145.6,170.8c0.1-0.1,0.2-0.3,0.2-0.5c0-0.2-0.1-0.4-0.2-0.5    c-0.1-0.1-0.3-0.2-0.6-0.2h-0.8v1.3h0.8C145.2,171,145.4,170.9,145.6,170.8z"/>
		<path class="st4" d="M148.7,171.2c-0.3-0.2-0.5-0.4-0.7-0.7c-0.2-0.3-0.2-0.6-0.2-1c0-0.4,0.1-0.7,0.2-1c0.2-0.3,0.4-0.5,0.7-0.7    c0.3-0.2,0.6-0.2,0.9-0.2c0.3,0,0.7,0.1,0.9,0.2c0.3,0.2,0.5,0.4,0.7,0.7c0.2,0.3,0.2,0.6,0.2,1s-0.1,0.7-0.2,1    c-0.2,0.3-0.4,0.5-0.7,0.7c-0.3,0.2-0.6,0.2-0.9,0.2C149.3,171.4,148.9,171.3,148.7,171.2z M150.3,170.8c0.2-0.1,0.4-0.3,0.5-0.5    c0.1-0.2,0.2-0.5,0.2-0.8c0-0.3-0.1-0.5-0.2-0.8s-0.3-0.4-0.5-0.5c-0.2-0.1-0.4-0.2-0.7-0.2s-0.5,0.1-0.7,0.2    c-0.2,0.1-0.4,0.3-0.5,0.5c-0.1,0.2-0.2,0.5-0.2,0.8c0,0.3,0.1,0.5,0.2,0.8c0.1,0.2,0.3,0.4,0.5,0.5c0.2,0.1,0.4,0.2,0.7,0.2    S150.1,170.9,150.3,170.8z"/>
		<path class="st4" d="M155.3,170.6h-1.6l-0.3,0.8h-0.5l1.3-3.6h0.5l1.3,3.6h-0.5L155.3,170.6z M155.1,170.2l-0.7-1.8l-0.7,1.8    H155.1z"/>
		<path class="st4" d="M159.6,171.4l-0.9-1.5h-0.6v1.5h-0.5v-3.7h1.2c0.3,0,0.5,0,0.7,0.1c0.2,0.1,0.3,0.2,0.4,0.4    c0.1,0.2,0.1,0.3,0.1,0.5c0,0.3-0.1,0.5-0.2,0.7c-0.1,0.2-0.4,0.3-0.7,0.4l0.9,1.5H159.6z M158.2,169.5h0.7c0.3,0,0.5-0.1,0.6-0.2    c0.1-0.1,0.2-0.3,0.2-0.5c0-0.2-0.1-0.4-0.2-0.5c-0.1-0.1-0.3-0.2-0.6-0.2h-0.7V169.5z"/>
		<path class="st4" d="M164.1,167.9c0.3,0.1,0.5,0.4,0.7,0.6c0.2,0.3,0.2,0.6,0.2,1c0,0.4-0.1,0.7-0.2,1c-0.2,0.3-0.4,0.5-0.7,0.6    c-0.3,0.1-0.6,0.2-1,0.2h-1.1v-3.7h1.1C163.4,167.7,163.8,167.8,164.1,167.9z M164.1,170.6c0.2-0.2,0.4-0.6,0.4-1.1    c0-0.5-0.1-0.8-0.4-1.1c-0.2-0.3-0.6-0.4-1.1-0.4h-0.7v2.9h0.7C163.5,171,163.9,170.8,164.1,170.6z"/>
		<path class="st4" d="M167.1,167.7v3.7h-0.5v-3.7H167.1z"/>
		<path class="st4" d="M171.9,171.4h-0.5l-1.9-2.9v2.9H169v-3.7h0.5l1.9,2.9v-2.9h0.5V171.4z"/>
		<path class="st4" d="M176.5,168.8c-0.1-0.2-0.2-0.4-0.4-0.5s-0.4-0.2-0.7-0.2s-0.5,0.1-0.7,0.2c-0.2,0.1-0.4,0.3-0.5,0.5    c-0.1,0.2-0.2,0.5-0.2,0.8c0,0.3,0.1,0.5,0.2,0.8c0.1,0.2,0.3,0.4,0.5,0.5c0.2,0.1,0.4,0.2,0.7,0.2c0.4,0,0.6-0.1,0.9-0.3    c0.2-0.2,0.4-0.5,0.4-0.9h-1.5v-0.4h2v0.4c0,0.3-0.1,0.6-0.3,0.8c-0.2,0.2-0.4,0.4-0.6,0.6c-0.3,0.1-0.6,0.2-0.9,0.2    c-0.3,0-0.6-0.1-0.9-0.2c-0.3-0.2-0.5-0.4-0.7-0.7c-0.2-0.3-0.2-0.6-0.2-1c0-0.4,0.1-0.7,0.2-1c0.2-0.3,0.4-0.5,0.7-0.7    c0.3-0.2,0.6-0.2,0.9-0.2c0.4,0,0.7,0.1,1,0.3s0.5,0.5,0.7,0.8H176.5z"/>
		<path class="st4" d="M183.5,167.7v0.4h-1v3.3h-0.5v-3.3h-1v-0.4H183.5z"/>
		<path class="st4" d="M185.7,167.7v3.7h-0.5v-3.7H185.7z"/>
		<path class="st4" d="M191.2,167.7v3.6h-0.5v-2.7l-1.2,2.7h-0.3l-1.2-2.7v2.7h-0.5v-3.6h0.5l1.3,3l1.3-3H191.2z"/>
		<path class="st4" d="M193.5,168.1v1.2h1.3v0.4h-1.3v1.3h1.5v0.4h-2v-3.7h2v0.4H193.5z"/>
	</g>
	<g>
		<path class="st4" d="M226.1,171.3c-0.2-0.1-0.3-0.2-0.4-0.4c-0.1-0.2-0.2-0.3-0.2-0.5h0.5c0,0.2,0.1,0.3,0.2,0.4    c0.1,0.1,0.3,0.2,0.5,0.2c0.2,0,0.4-0.1,0.5-0.2c0.1-0.1,0.2-0.3,0.2-0.4c0-0.1,0-0.3-0.1-0.3c-0.1-0.1-0.2-0.2-0.3-0.2    c-0.1,0-0.3-0.1-0.5-0.1c-0.2-0.1-0.4-0.1-0.6-0.2c-0.1-0.1-0.3-0.2-0.4-0.3c-0.1-0.1-0.2-0.3-0.2-0.5c0-0.2,0.1-0.4,0.2-0.5    c0.1-0.2,0.2-0.3,0.4-0.4c0.2-0.1,0.4-0.1,0.6-0.1c0.3,0,0.6,0.1,0.8,0.3c0.2,0.2,0.3,0.4,0.4,0.7h-0.5c0-0.1-0.1-0.3-0.2-0.4    c-0.1-0.1-0.3-0.2-0.5-0.2c-0.2,0-0.4,0.1-0.5,0.2c-0.1,0.1-0.2,0.2-0.2,0.4c0,0.1,0,0.2,0.1,0.3c0.1,0.1,0.2,0.1,0.3,0.2    c0.1,0,0.3,0.1,0.5,0.1c0.2,0.1,0.4,0.1,0.6,0.2c0.1,0.1,0.3,0.2,0.4,0.3c0.1,0.1,0.2,0.3,0.2,0.5c0,0.2,0,0.3-0.1,0.5    c-0.1,0.2-0.2,0.3-0.4,0.4s-0.4,0.1-0.7,0.1C226.5,171.4,226.3,171.4,226.1,171.3z"/>
		<path class="st4" d="M230.1,168.1v1.2h1.3v0.4h-1.3v1.3h1.5v0.4h-2v-3.7h2v0.4H230.1z"/>
		<path class="st4" d="M235.6,170.6H234l-0.3,0.8h-0.5l1.3-3.6h0.5l1.3,3.6h-0.5L235.6,170.6z M235.4,170.2l-0.7-1.8l-0.7,1.8H235.4    z"/>
		<path class="st4" d="M240.2,167.7v0.4h-1v3.3h-0.5v-3.3h-1v-0.4H240.2z"/>
	</g>
	<g>
		<path class="st4" d="M348.2,177.3c-0.1-0.2-0.2-0.3-0.4-0.5c-0.2-0.1-0.4-0.2-0.6-0.2c-0.2,0-0.4,0.1-0.6,0.2    c-0.2,0.1-0.3,0.3-0.4,0.5s-0.2,0.4-0.2,0.7c0,0.3,0.1,0.5,0.2,0.7s0.3,0.3,0.4,0.5c0.2,0.1,0.4,0.2,0.6,0.2    c0.3,0,0.6-0.1,0.8-0.3c0.2-0.2,0.3-0.5,0.4-0.8H347v-0.4h1.8v0.3c0,0.3-0.1,0.5-0.3,0.8c-0.1,0.2-0.3,0.4-0.6,0.5    c-0.2,0.1-0.5,0.2-0.8,0.2c-0.3,0-0.6-0.1-0.8-0.2c-0.3-0.1-0.5-0.3-0.6-0.6c-0.1-0.3-0.2-0.5-0.2-0.9c0-0.3,0.1-0.6,0.2-0.9    c0.1-0.3,0.3-0.5,0.6-0.6c0.3-0.1,0.5-0.2,0.8-0.2c0.4,0,0.7,0.1,0.9,0.3c0.3,0.2,0.5,0.4,0.6,0.7H348.2z"/>
		<path class="st4" d="M352.3,178.9h-1.5l-0.3,0.7h-0.5l1.2-3.3h0.5l1.2,3.3h-0.5L352.3,178.9z M352.2,178.6l-0.6-1.7l-0.6,1.7    H352.2z"/>
		<path class="st4" d="M356.6,176.3v0.4h-0.9v3h-0.4v-3h-0.9v-0.4H356.6z"/>
		<path class="st4" d="M358.5,176.7v1.1h1.2v0.4h-1.2v1.1h1.4v0.4h-1.8v-3.3h1.8v0.4H358.5z"/>
	</g>
	<g>
		<path class="st4" d="M369.2,178.1c0.1,0.1,0.2,0.2,0.2,0.3s0.1,0.2,0.1,0.4c0,0.2,0,0.3-0.1,0.5c-0.1,0.1-0.2,0.2-0.4,0.3    c-0.2,0.1-0.4,0.1-0.6,0.1h-1.2v-3.3h1.2c0.2,0,0.4,0,0.6,0.1c0.2,0.1,0.3,0.2,0.4,0.3c0.1,0.1,0.1,0.3,0.1,0.4    c0,0.2-0.1,0.4-0.2,0.5c-0.1,0.1-0.2,0.2-0.4,0.3C368.9,178,369.1,178,369.2,178.1z M367.6,177.8h0.7c0.2,0,0.4,0,0.5-0.1    c0.1-0.1,0.2-0.2,0.2-0.4c0-0.2-0.1-0.3-0.2-0.4c-0.1-0.1-0.3-0.1-0.5-0.1h-0.7V177.8z M368.9,179.2c0.1-0.1,0.2-0.2,0.2-0.4    c0-0.2-0.1-0.3-0.2-0.4c-0.1-0.1-0.3-0.2-0.5-0.2h-0.8v1.2h0.8C368.6,179.3,368.7,179.3,368.9,179.2z"/>
		<path class="st4" d="M371.7,179.5c-0.3-0.1-0.5-0.3-0.6-0.6c-0.1-0.3-0.2-0.6-0.2-0.9c0-0.3,0.1-0.6,0.2-0.9    c0.1-0.3,0.3-0.5,0.6-0.6c0.3-0.1,0.5-0.2,0.8-0.2c0.3,0,0.6,0.1,0.8,0.2c0.3,0.1,0.5,0.3,0.6,0.6c0.1,0.3,0.2,0.6,0.2,0.9    c0,0.3-0.1,0.6-0.2,0.9c-0.1,0.3-0.3,0.5-0.6,0.6c-0.3,0.1-0.5,0.2-0.8,0.2C372.2,179.7,372,179.6,371.7,179.5z M373.2,179.2    c0.2-0.1,0.3-0.3,0.4-0.5c0.1-0.2,0.2-0.4,0.2-0.7c0-0.3-0.1-0.5-0.2-0.7c-0.1-0.2-0.3-0.4-0.4-0.5c-0.2-0.1-0.4-0.2-0.6-0.2    s-0.4,0.1-0.6,0.2c-0.2,0.1-0.3,0.3-0.4,0.5c-0.1,0.2-0.2,0.4-0.2,0.7c0,0.3,0.1,0.5,0.2,0.7c0.1,0.2,0.3,0.4,0.4,0.5    c0.2,0.1,0.4,0.2,0.6,0.2C372.8,179.3,373,179.3,373.2,179.2z"/>
		<path class="st4" d="M377.7,178.9h-1.5l-0.3,0.7h-0.5l1.2-3.3h0.5l1.2,3.3H378L377.7,178.9z M377.6,178.6l-0.6-1.7l-0.6,1.7H377.6    z"/>
		<path class="st4" d="M381.7,179.7l-0.8-1.4h-0.5v1.4h-0.4v-3.3h1.1c0.3,0,0.5,0,0.6,0.1c0.2,0.1,0.3,0.2,0.4,0.3    c0.1,0.1,0.1,0.3,0.1,0.5c0,0.2-0.1,0.4-0.2,0.6c-0.1,0.2-0.3,0.3-0.6,0.3l0.8,1.4H381.7z M380.3,178h0.6c0.2,0,0.4-0.1,0.5-0.2    c0.1-0.1,0.2-0.3,0.2-0.5c0-0.2-0.1-0.4-0.2-0.5c-0.1-0.1-0.3-0.2-0.5-0.2h-0.6V178z"/>
		<path class="st4" d="M385.7,176.6c0.3,0.1,0.5,0.3,0.6,0.6s0.2,0.5,0.2,0.9c0,0.3-0.1,0.6-0.2,0.9c-0.1,0.2-0.3,0.4-0.6,0.6    c-0.3,0.1-0.6,0.2-0.9,0.2h-1v-3.3h1C385.2,176.3,385.5,176.4,385.7,176.6z M385.8,179c0.2-0.2,0.3-0.5,0.3-1c0-0.4-0.1-0.7-0.3-1    c-0.2-0.2-0.6-0.3-1-0.3h-0.6v2.6h0.6C385.2,179.3,385.6,179.2,385.8,179z"/>
		<path class="st4" d="M388.5,176.3v3.3h-0.4v-3.3H388.5z"/>
		<path class="st4" d="M392.8,179.7h-0.4l-1.7-2.6v2.6h-0.4v-3.3h0.4l1.7,2.6v-2.6h0.4V179.7z"/>
		<path class="st4" d="M397.1,177.3c-0.1-0.2-0.2-0.3-0.4-0.5c-0.2-0.1-0.4-0.2-0.6-0.2c-0.2,0-0.4,0.1-0.6,0.2    c-0.2,0.1-0.3,0.3-0.4,0.5s-0.2,0.4-0.2,0.7c0,0.3,0.1,0.5,0.2,0.7s0.3,0.3,0.4,0.5c0.2,0.1,0.4,0.2,0.6,0.2    c0.3,0,0.6-0.1,0.8-0.3c0.2-0.2,0.3-0.5,0.4-0.8h-1.3v-0.4h1.8v0.3c0,0.3-0.1,0.5-0.3,0.8c-0.1,0.2-0.3,0.4-0.6,0.5    c-0.2,0.1-0.5,0.2-0.8,0.2c-0.3,0-0.6-0.1-0.8-0.2c-0.3-0.1-0.5-0.3-0.6-0.6c-0.1-0.3-0.2-0.5-0.2-0.9c0-0.3,0.1-0.6,0.2-0.9    c0.1-0.3,0.3-0.5,0.6-0.6c0.3-0.1,0.5-0.2,0.8-0.2c0.4,0,0.7,0.1,0.9,0.3c0.3,0.2,0.5,0.4,0.6,0.7H397.1z"/>
		<path class="st4" d="M403.5,176.3v0.4h-0.9v3h-0.4v-3h-0.9v-0.4H403.5z"/>
		<path class="st4" d="M405.4,176.3v3.3H405v-3.3H405.4z"/>
		<path class="st4" d="M410.5,176.4v3.3H410v-2.5l-1.1,2.5h-0.3l-1.1-2.5v2.5h-0.4v-3.3h0.5l1.2,2.7l1.2-2.7H410.5z"/>
		<path class="st4" d="M412.6,176.7v1.1h1.2v0.4h-1.2v1.1h1.4v0.4h-1.8v-3.3h1.8v0.4H412.6z"/>
	</g>
	<g>
		<path class="st4" d="M418.9,179.6c-0.2-0.1-0.3-0.2-0.4-0.3c-0.1-0.1-0.1-0.3-0.2-0.5h0.5c0,0.2,0.1,0.3,0.2,0.4    c0.1,0.1,0.3,0.2,0.5,0.2c0.2,0,0.4-0.1,0.5-0.2c0.1-0.1,0.2-0.2,0.2-0.4c0-0.1,0-0.2-0.1-0.3c-0.1-0.1-0.2-0.1-0.3-0.2    c-0.1,0-0.2-0.1-0.4-0.1c-0.2-0.1-0.4-0.1-0.5-0.2c-0.1-0.1-0.2-0.1-0.3-0.3c-0.1-0.1-0.1-0.3-0.1-0.5c0-0.2,0-0.3,0.1-0.5    c0.1-0.1,0.2-0.2,0.4-0.3c0.2-0.1,0.4-0.1,0.6-0.1c0.3,0,0.6,0.1,0.8,0.2c0.2,0.2,0.3,0.4,0.3,0.6h-0.5c0-0.1-0.1-0.2-0.2-0.3    c-0.1-0.1-0.3-0.1-0.5-0.1c-0.2,0-0.3,0-0.4,0.1c-0.1,0.1-0.2,0.2-0.2,0.4c0,0.1,0,0.2,0.1,0.3c0.1,0.1,0.2,0.1,0.3,0.2    c0.1,0,0.2,0.1,0.4,0.1c0.2,0.1,0.4,0.1,0.5,0.2c0.1,0.1,0.2,0.1,0.3,0.3c0.1,0.1,0.1,0.3,0.1,0.5c0,0.2,0,0.3-0.1,0.5    c-0.1,0.1-0.2,0.3-0.4,0.3c-0.2,0.1-0.4,0.1-0.6,0.1C419.3,179.7,419.1,179.7,418.9,179.6z"/>
		<path class="st4" d="M422.7,176.7v1.1h1.2v0.4h-1.2v1.1h1.4v0.4h-1.8v-3.3h1.8v0.4H422.7z"/>
		<path class="st4" d="M427.6,178.9h-1.5l-0.3,0.7h-0.5l1.2-3.3h0.5l1.2,3.3h-0.5L427.6,178.9z M427.5,178.6l-0.6-1.7l-0.6,1.7    H427.5z"/>
		<path class="st4" d="M431.8,176.3v0.4h-0.9v3h-0.4v-3h-0.9v-0.4H431.8z"/>
	</g>
	<g>
		<path class="st4" d="M227.7,150c0.3,0.1,0.5,0.4,0.7,0.6c0.2,0.3,0.2,0.6,0.2,1s-0.1,0.7-0.2,1c-0.2,0.3-0.4,0.5-0.7,0.6    c-0.3,0.1-0.6,0.2-1,0.2h-1.1v-3.7h1.1C227.1,149.7,227.4,149.8,227.7,150z M227.8,152.6c0.2-0.2,0.4-0.6,0.4-1.1    c0-0.5-0.1-0.8-0.4-1.1c-0.2-0.3-0.6-0.4-1.1-0.4H226v2.9h0.7C227.2,153,227.5,152.9,227.8,152.6z"/>
		<path class="st4" d="M232.5,152.6h-1.6l-0.3,0.8h-0.5l1.3-3.6h0.5l1.3,3.6h-0.5L232.5,152.6z M232.3,152.2l-0.7-1.8l-0.7,1.8    H232.3z"/>
		<path class="st4" d="M237.1,149.7v0.4h-1v3.3h-0.5v-3.3h-1v-0.4H237.1z"/>
		<path class="st4" d="M239.2,150.1v1.2h1.3v0.4h-1.3v1.3h1.5v0.4h-2v-3.7h2v0.4H239.2z"/>
	</g>
	
	
	<g>
		<path class="st3" d="M364.7,85.1c0.2,0.3,0.3,0.6,0.3,0.9c0,0.3-0.1,0.5-0.2,0.8c-0.1,0.2-0.4,0.4-0.6,0.5c-0.3,0.1-0.6,0.2-1,0.2    H361v-5.6h2.1c0.4,0,0.7,0.1,1,0.2c0.3,0.1,0.5,0.3,0.6,0.5c0.1,0.2,0.2,0.5,0.2,0.7c0,0.3-0.1,0.6-0.3,0.8    c-0.2,0.2-0.4,0.4-0.7,0.5C364.3,84.6,364.5,84.8,364.7,85.1z M361.9,84.2h1.1c0.3,0,0.5-0.1,0.7-0.2c0.2-0.1,0.3-0.3,0.3-0.6    c0-0.3-0.1-0.5-0.3-0.6c-0.2-0.1-0.4-0.2-0.7-0.2h-1.1V84.2z M363.9,86.5c0.2-0.2,0.3-0.4,0.3-0.6c0-0.3-0.1-0.5-0.3-0.7    c-0.2-0.2-0.4-0.2-0.8-0.2h-1.2v1.8h1.2C363.4,86.7,363.7,86.6,363.9,86.5z"/>
		<path class="st3" d="M368.8,87.2c-0.4-0.2-0.8-0.6-1-1c-0.3-0.4-0.4-0.9-0.4-1.5c0-0.5,0.1-1,0.4-1.5c0.3-0.4,0.6-0.8,1-1    c0.4-0.2,0.9-0.4,1.4-0.4c0.5,0,1,0.1,1.4,0.4c0.4,0.2,0.8,0.6,1,1c0.3,0.4,0.4,0.9,0.4,1.5c0,0.5-0.1,1-0.4,1.5    c-0.3,0.4-0.6,0.8-1,1c-0.4,0.2-0.9,0.4-1.4,0.4C369.7,87.5,369.2,87.4,368.8,87.2z M371.2,86.5c0.3-0.2,0.5-0.4,0.7-0.7    c0.2-0.3,0.2-0.7,0.2-1.1c0-0.4-0.1-0.8-0.2-1.1c-0.2-0.3-0.4-0.6-0.7-0.7c-0.3-0.2-0.6-0.2-1-0.2s-0.7,0.1-1,0.2    c-0.3,0.2-0.5,0.4-0.7,0.7c-0.2,0.3-0.2,0.7-0.2,1.1c0,0.4,0.1,0.8,0.2,1.1c0.2,0.3,0.4,0.6,0.7,0.7c0.3,0.2,0.6,0.3,1,0.3    S370.9,86.6,371.2,86.5z"/>
		<path class="st3" d="M379,86.3h-2.3l-0.4,1.1h-1l2-5.6h1.1l2,5.6h-1L379,86.3z M378.7,85.6l-0.9-2.6l-0.9,2.6H378.7z"/>
		<path class="st3" d="M385.8,87.5l-1.3-2.2h-0.7v2.2h-0.9v-5.6h1.9c0.4,0,0.8,0.1,1.1,0.2c0.3,0.2,0.5,0.4,0.7,0.6    c0.1,0.3,0.2,0.5,0.2,0.8c0,0.4-0.1,0.7-0.3,1s-0.5,0.5-1,0.6l1.4,2.3H385.8z M383.8,84.5h1c0.3,0,0.6-0.1,0.8-0.3    s0.3-0.4,0.3-0.7c0-0.3-0.1-0.5-0.3-0.7c-0.2-0.2-0.4-0.2-0.8-0.2h-1V84.5z"/>
		<path class="st3" d="M393,82.2c0.4,0.2,0.8,0.6,1,1s0.4,0.9,0.4,1.5c0,0.6-0.1,1.1-0.4,1.5c-0.2,0.4-0.6,0.7-1,1    c-0.4,0.2-1,0.3-1.6,0.3h-1.8v-5.6h1.8C392,81.9,392.5,82,393,82.2z M392.9,86.2c0.3-0.4,0.5-0.9,0.5-1.5c0-0.7-0.2-1.2-0.5-1.5    c-0.3-0.4-0.9-0.5-1.5-0.5h-0.9v4.1h0.9C392,86.7,392.5,86.5,392.9,86.2z"/>
		<path class="st3" d="M397.8,81.9v5.6h-0.9v-5.6H397.8z"/>
		<path class="st3" d="M405.2,87.5h-0.9l-2.8-4.2v4.2h-0.9v-5.6h0.9l2.8,4.2v-4.2h0.9V87.5z"/>
		<path class="st3" d="M412.1,83.5c-0.1-0.3-0.3-0.5-0.6-0.6c-0.3-0.1-0.6-0.2-0.9-0.2c-0.4,0-0.7,0.1-1,0.3    c-0.3,0.2-0.5,0.4-0.7,0.7c-0.2,0.3-0.2,0.7-0.2,1.1c0,0.4,0.1,0.8,0.2,1.1c0.2,0.3,0.4,0.5,0.7,0.7c0.3,0.2,0.6,0.3,1,0.3    c0.5,0,0.9-0.1,1.2-0.4c0.3-0.3,0.5-0.7,0.6-1.1h-2.1v-0.7h3.1v0.7c-0.1,0.4-0.2,0.8-0.5,1.2c-0.3,0.4-0.6,0.7-1,0.9    c-0.4,0.2-0.8,0.3-1.3,0.3c-0.5,0-1-0.1-1.4-0.4c-0.4-0.2-0.8-0.6-1-1c-0.3-0.4-0.4-0.9-0.4-1.5c0-0.5,0.1-1,0.4-1.5    c0.3-0.4,0.6-0.8,1-1c0.4-0.2,0.9-0.4,1.4-0.4c0.6,0,1.1,0.1,1.6,0.4c0.5,0.3,0.8,0.7,1,1.2H412.1z"/>
		<path class="st3" d="M380.7,94c-0.1,0.3-0.3,0.5-0.6,0.6c-0.3,0.2-0.7,0.2-1.1,0.2h-1v2.3H377v-5.6h1.9c0.4,0,0.8,0.1,1.1,0.2    c0.3,0.1,0.5,0.3,0.7,0.6c0.1,0.3,0.2,0.5,0.2,0.8C380.9,93.5,380.8,93.8,380.7,94z M379.7,93.9c0.2-0.2,0.3-0.4,0.3-0.7    c0-0.6-0.3-0.9-1-0.9h-1v1.8h1C379.3,94.1,379.5,94,379.7,93.9z"/>
		<path class="st3" d="M386.8,96h-2.3l-0.4,1.1h-1l2-5.6h1.1l2,5.6h-1L386.8,96z M386.5,95.3l-0.9-2.6l-0.9,2.6H386.5z"/>
		<path class="st3" d="M391.5,97c-0.3-0.1-0.5-0.3-0.7-0.6c-0.2-0.2-0.3-0.5-0.3-0.8h1c0,0.2,0.1,0.4,0.3,0.6    c0.2,0.2,0.4,0.2,0.7,0.2c0.3,0,0.6-0.1,0.7-0.2c0.2-0.2,0.3-0.4,0.3-0.6c0-0.2-0.1-0.3-0.2-0.5c-0.1-0.1-0.2-0.2-0.4-0.3    c-0.2-0.1-0.4-0.1-0.7-0.2c-0.4-0.1-0.7-0.2-0.9-0.3c-0.2-0.1-0.4-0.3-0.6-0.5s-0.2-0.5-0.2-0.8c0-0.3,0.1-0.6,0.2-0.8    c0.2-0.2,0.4-0.4,0.7-0.6c0.3-0.1,0.6-0.2,1-0.2c0.5,0,1,0.1,1.3,0.4c0.3,0.3,0.5,0.6,0.6,1.1h-1c0-0.2-0.1-0.4-0.3-0.5    c-0.2-0.1-0.4-0.2-0.7-0.2c-0.3,0-0.5,0.1-0.6,0.2c-0.2,0.1-0.2,0.3-0.2,0.6c0,0.2,0.1,0.3,0.2,0.4c0.1,0.1,0.2,0.2,0.4,0.3    c0.2,0.1,0.4,0.1,0.7,0.2c0.4,0.1,0.7,0.2,0.9,0.3c0.2,0.1,0.4,0.3,0.6,0.5c0.2,0.2,0.2,0.5,0.2,0.9c0,0.3-0.1,0.6-0.2,0.8    c-0.2,0.3-0.4,0.5-0.7,0.6c-0.3,0.2-0.6,0.2-1,0.2C392.1,97.2,391.8,97.1,391.5,97z"/>
		<path class="st3" d="M398,97c-0.3-0.1-0.5-0.3-0.7-0.6c-0.2-0.2-0.3-0.5-0.3-0.8h1c0,0.2,0.1,0.4,0.3,0.6c0.2,0.2,0.4,0.2,0.7,0.2    c0.3,0,0.6-0.1,0.7-0.2c0.2-0.2,0.3-0.4,0.3-0.6c0-0.2-0.1-0.3-0.2-0.5c-0.1-0.1-0.2-0.2-0.4-0.3c-0.2-0.1-0.4-0.1-0.7-0.2    c-0.4-0.1-0.7-0.2-0.9-0.3c-0.2-0.1-0.4-0.3-0.6-0.5s-0.2-0.5-0.2-0.8c0-0.3,0.1-0.6,0.2-0.8c0.2-0.2,0.4-0.4,0.7-0.6    c0.3-0.1,0.6-0.2,1-0.2c0.5,0,1,0.1,1.3,0.4c0.3,0.3,0.5,0.6,0.6,1.1h-1c0-0.2-0.1-0.4-0.3-0.5c-0.2-0.1-0.4-0.2-0.7-0.2    c-0.3,0-0.5,0.1-0.6,0.2c-0.2,0.1-0.2,0.3-0.2,0.6c0,0.2,0.1,0.3,0.2,0.4c0.1,0.1,0.2,0.2,0.4,0.3c0.2,0.1,0.4,0.1,0.7,0.2    c0.4,0.1,0.7,0.2,0.9,0.3c0.2,0.1,0.4,0.3,0.6,0.5c0.2,0.2,0.2,0.5,0.2,0.9c0,0.3-0.1,0.6-0.2,0.8c-0.2,0.3-0.4,0.5-0.7,0.6    c-0.3,0.2-0.6,0.2-1,0.2C398.6,97.2,398.3,97.1,398,97z"/>
	</g>
	<g>
		<path class="st3" d="M116.9,85.3c-0.1,0.6-0.1,1.3-0.2,1.9c0,0.2-0.2,0.3-0.4,0.4c-2.1,1.6-4.2,3.1-6.3,4.7    c-0.5,0.4-0.8,0.8-0.7,1.4c0.1,1.5,0,3.1-0.4,4.6c-0.1,0.6-0.4,1.1-0.7,1.6c-0.4,0.7-1.1,0.7-1.6,0c-0.6-0.9-0.8-1.9-0.8-3    c-0.1-1.3-0.1-2.6-0.1-3.8c0-0.2,0-0.4-0.2-0.5c-2.2-1.7-4.5-3.5-6.7-5.2c-0.2-0.2-0.4-0.4-0.4-0.7c0-0.5-0.1-1-0.1-1.6    c2.5,1,5,2,7.5,3c0.2-2,0.3-3.9,0.5-5.9c-0.7-0.4-1.4-1-2.2-1.4c-0.5-0.3-0.8-0.6-0.6-1.2c0.3,0.1,0.5,0.1,0.8,0.2    c0.6,0.1,1.2,0.3,1.7,0.4c0.4,0.1,0.7,0.2,1.1-0.2c0.3-0.3,0.9-0.3,1.2,0.1c0.2,0.2,0.4,0.2,0.7,0.2c0.9-0.2,1.9-0.4,2.9-0.7    c0.1,0.5-0.1,0.9-0.6,1.2c-0.8,0.4-1.6,0.9-2.3,1.4c0.1,2,0.2,4,0.3,5.9C111.8,87.1,114.3,86.2,116.9,85.3z"/>
	</g>
	<g>
		<g>
			<path class="st5" d="M319.7,130c0,0.5,0,0.9,0,1.5c-7.1,0-14.2,0-21.4,0c0-0.5,0-0.9,0-1.5C305.4,130,312.5,130,319.7,130z"/>
		</g>
		<g>
			<path class="st5" d="M319.7,147.4c0,0.5,0,1,0,1.5c-7.1,0-14.3,0-21.4,0c0-0.5,0-1,0-1.5C305.4,147.4,312.5,147.4,319.7,147.4z"/>
		</g>
		<g>
			<path class="st5" d="M298.3,153.1c0-0.5,0-1,0-1.5c7.1,0,14.2,0,21.4,0c0,0.5,0,0.9,0,1.5C312.6,153.1,305.5,153.1,298.3,153.1z"/>
		</g>
		<g>
			<path class="st5" d="M319.7,164.2c0,0.5,0,0.9,0,1.5c-7.1,0-14.2,0-21.4,0c0-0.5,0-0.9,0-1.5     C305.4,164.2,312.5,164.2,319.7,164.2z"/>
		</g>
		<g>
			<path class="st5" d="M319.7,169c0,0.5,0,0.9,0,1.5c-7.1,0-14.2,0-21.4,0c0-0.5,0-0.9,0-1.5C305.4,169,312.5,169,319.7,169z"/>
		</g>
		<g>
			<path class="st5" d="M319.7,194.8c0,0.5,0,0.9,0,1.4c-7.1,0-14.3,0-21.4,0c0-0.5,0-0.9,0-1.4     C305.4,194.8,312.5,194.8,319.7,194.8z"/>
		</g>
		<g>
			<path class="st5" d="M298.3,189.6c0-0.5,0-0.9,0-1.4c7.1,0,14.3,0,21.4,0c0,0.5,0,0.9,0,1.4C312.6,189.6,305.5,189.6,298.3,189.6     z"/>
		</g>
		<g>
			<path class="st5" d="M298.3,129c0-0.5,0-0.9,0-1.4c7.1,0,14.3,0,21.4,0c0,0.5,0,0.9,0,1.4C312.6,129,305.5,129,298.3,129z"/>
		</g>
		<g>
			<path class="st5" d="M319.7,179.9c0,0.5,0,0.9,0,1.4c-7.1,0-14.3,0-21.4,0c0-0.5,0-0.9,0-1.4     C305.4,179.9,312.5,179.9,319.7,179.9z"/>
		</g>
		<g>
			<path class="st5" d="M298.3,177.1c0-0.5,0-0.9,0-1.4c7.1,0,14.3,0,21.4,0c0,0.5,0,0.9,0,1.4C312.6,177.1,305.5,177.1,298.3,177.1     z"/>
		</g>
		<g>
			<path class="st5" d="M319.7,140.1c0,0.5,0,0.9,0,1.4c-7.1,0-14.2,0-21.4,0c0-0.4,0-0.9,0-1.4     C305.4,140.1,312.5,140.1,319.7,140.1z"/>
		</g>
		<g>
			<path class="st5" d="M319.7,166.6c0,0.5,0,0.9,0,1.4c-7.1,0-14.3,0-21.4,0c0-0.5,0-0.9,0-1.4     C305.4,166.6,312.5,166.6,319.7,166.6z"/>
		</g>
		<g>
			<path class="st5" d="M319.7,192.4c0,0.5,0,0.9,0,1.4c-7.2,0-14.3,0-21.4,0c0-0.5,0-0.9,0-1.4     C305.4,192.4,312.5,192.4,319.7,192.4z"/>
		</g>
		<g>
			<path class="st5" d="M319.7,146.5c-7.1,0-14.2,0-21.4,0c0-0.5,0-0.9,0-1.4c7.1,0,14.2,0,21.4,0     C319.7,145.5,319.7,145.9,319.7,146.5z"/>
		</g>
		<g>
			<path class="st5" d="M319.7,125.8c0,0.3,0,0.5,0,0.8c-7.1,0-14.2,0-21.4,0c0-0.2,0-0.5-0.1-0.8     C305.4,125.8,312.5,125.8,319.7,125.8z"/>
		</g>
		<g>
			<path class="st5" d="M298.3,135.7c-0.2-0.7,0-0.8,0.5-0.8c6.8,0,13.5,0,20.3,0c0.5,0,0.7,0.2,0.5,0.8     C312.6,135.7,305.5,135.7,298.3,135.7z"/>
		</g>
		<g>
			<path class="st5" d="M298.3,137.4c0-0.2,0-0.4,0-0.7c7.1,0,14.2,0,21.4,0c0.1,0.5,0.1,0.8-0.4,0.8c-6.9,0-13.9,0-20.8,0     C298.4,137.5,298.4,137.4,298.3,137.4z"/>
		</g>
		<g>
			<path class="st5" d="M319.6,139.2c-7.1,0-14.2,0-21.3,0c-0.2-0.6,0-0.8,0.5-0.8c6.8,0,13.6,0,20.3,0     C319.7,138.3,319.8,138.6,319.6,139.2z"/>
		</g>
		<g>
			<path class="st5" d="M298.3,144c-0.1-0.6-0.1-0.8,0.5-0.8c6.8,0,13.6,0,20.4,0c0.5,0,0.6,0.3,0.5,0.8     C312.6,144,305.5,144,298.3,144z"/>
		</g>
		<g>
			<path class="st5" d="M298.3,197.9c-0.2-0.6,0-0.8,0.5-0.8c6.8,0,13.6,0,20.4,0c0.2,0,0.4,0.3,0.6,0.4c-0.2,0.1-0.3,0.4-0.5,0.4     c-6.9,0-13.9,0-20.8,0C298.4,198,298.4,198,298.3,197.9z"/>
		</g>
		<g>
			<path class="st5" d="M298.3,155.5c-0.2-1,0.3-0.8,0.7-0.8c6,0,12,0,18,0c0.7,0,1.4,0,2.1,0c0.5,0,0.5,0,0.4,0.8     C312.5,155.5,305.4,155.5,298.3,155.5z"/>
		</g>
		<g>
			<path class="st5" d="M319.7,156.5c0.2,0.8-0.1,0.8-0.6,0.8c-4.4,0-8.8,0-13.2,0c-2.3,0-4.6,0-7,0c-0.5,0-0.7-0.1-0.5-0.8     C305.4,156.5,312.5,156.5,319.7,156.5z"/>
		</g>
		<g>
			<path class="st5" d="M298.3,160.7c-0.2-0.7,0-0.8,0.5-0.8c6.8,0,13.5,0,20.3,0c0.5,0,0.7,0.1,0.5,0.8     C312.6,160.7,305.5,160.7,298.3,160.7z"/>
		</g>
		<g>
			<path class="st5" d="M319.7,161.7c0.2,0.8-0.2,0.8-0.6,0.8c-3.5,0-7,0-10.5,0c-3.2,0-6.4,0-9.6,0c-0.5,0-0.8,0-0.6-0.8     C305.4,161.7,312.5,161.7,319.7,161.7z"/>
		</g>
		<g>
			<path class="st5" d="M298.3,191.3c0-0.2,0-0.5,0-0.7c7.1,0,14.3,0,21.4,0c0.1,0.5,0.1,0.8-0.4,0.8c-6.9,0-13.9,0-20.8,0     C298.4,191.4,298.4,191.4,298.3,191.3z"/>
		</g>
		<g>
			<path class="st5" d="M319.7,173.2c0.3,0.9-0.3,0.8-0.7,0.8c-5.4,0-10.9,0-16.3,0c-1.3,0-2.6,0-3.8,0c-0.5,0-0.7-0.2-0.5-0.8     C305.4,173.2,312.5,173.2,319.7,173.2z"/>
		</g>
		<g>
			<path class="st5" d="M298.3,178.1c7.1,0,14.3,0,21.4,0c0.2,0.7,0,0.8-0.5,0.8c-6.8,0-13.5,0-20.3,0     C298.4,178.9,298.1,178.8,298.3,178.1z"/>
		</g>
		<g>
			<path class="st5" d="M298.3,183c0-0.2,0-0.5,0-0.7c7.1,0,14.2,0,21.4,0c0.1,0.5,0.1,0.8-0.4,0.8c-6.9,0-13.9,0-20.8,0     C298.4,183.1,298.4,183,298.3,183z"/>
		</g>
		<g>
			<path class="st5" d="M319.7,186.5c0.2,0.8-0.1,0.8-0.6,0.8c-4.4,0-8.7,0-13.1,0c-2.4,0-4.7,0-7.1,0c-0.5,0-0.7-0.2-0.5-0.8     C305.4,186.5,312.5,186.5,319.7,186.5z"/>
		</g>
		<g>
			<path class="st5" d="M319.7,132.5c0.2,1-0.3,0.8-0.7,0.8c-5.3,0-10.6,0-15.8,0c-1.4,0-2.9,0-4.3,0c-0.5,0-0.7-0.2-0.5-0.8     C305.4,132.5,312.5,132.5,319.7,132.5z"/>
		</g>
		<g>
			<path class="st5" d="M298.3,149.8c0.3,0,0.6,0,0.9,0c6.5,0,13.1,0,19.6,0c0.2,0,0.5,0,0.7,0c0.1,0,0.3,0.2,0.2,0.3     c0,0.2-0.1,0.4-0.3,0.4c-0.2,0.1-0.4,0-0.5,0c-6.6,0-13.3,0-19.9,0C298.6,150.7,298.1,150.8,298.3,149.8z"/>
		</g>
		<g>
			<path class="st5" d="M319.8,158.5c-0.2,0.2-0.4,0.4-0.6,0.5c-0.1,0.1-0.4,0-0.5,0c-6.6,0-13.1,0-19.7,0c-0.4,0-1,0.2-0.7-0.8     c7.1,0,14.2,0,21.3,0C319.7,158.4,319.7,158.4,319.8,158.5z"/>
		</g>
		<g>
			<path class="st5" d="M298.3,171.4c0.3,0,0.6,0,0.9,0c6.5,0,13.1,0,19.6,0c0.2,0,0.5,0,0.7,0c0.1,0,0.2,0.3,0.3,0.4     c0,0.1-0.1,0.3-0.2,0.4c-0.1,0.1-0.3,0-0.5,0c-6.7,0-13.4,0-20,0C298.6,172.3,298.1,172.4,298.3,171.4z"/>
		</g>
		<g>
			<path class="st5" d="M298.3,184c0.7,0,1.3,0,1.9,0c6.2,0,12.3,0,18.5,0c0.2,0,0.5,0,0.7,0c0.1,0,0.3,0.3,0.3,0.4     c0,0.2-0.2,0.4-0.3,0.4c-0.1,0.1-0.3,0-0.5,0c-6.6,0-13.3,0-19.9,0C298.6,184.8,298.1,185,298.3,184z"/>
		</g>
	</g>
</g>

</svg>